<svg xmlns="http://www.w3.org/2000/svg" viewBox="1.149 1.147 138.763 42.387"  xmlns:v="https://vecta.io/nano"><path fill="#2e3234" d="M5.897 34.537c.39.016.784.07 1.151.205v-.004l.056.02 4.842-4.723.178.237c.25.334.517.656.8.962l.103.119.207.222.12.118.117.119.104.103.118.119.104.103.133.119.12.104c2.245 1.911 5.078 2.993 8.025 3.065 2.427.061 4.823-.559 6.915-1.792l.37.385 1.304 1.377c-2.575 1.656-5.588 2.497-8.648 2.414-3.452-.082-6.773-1.335-9.418-3.554l.015-.03-3.107 3.063c.863 2.854-1.687 5.572-4.59 4.892s-3.982-4.246-1.942-6.421c.732-.78 1.755-1.223 2.825-1.223h.1zM35.506 14.56c1.52 2.505 2.286 5.395 2.206 8.323a15.17 15.17 0 0 1-3.805 9.684l.015.015 1.91 2.029c.77-.104 1.54.162 2.073.725.908.963.868 2.478-.089 3.391-.962.908-2.477.868-3.39-.089-.531-.561-.757-1.344-.608-2.102l-3.36-3.569-.194-.207.222-.178c.579-.458 1.115-.968 1.6-1.525a12.82 12.82 0 0 0 3.243-8.233 12.85 12.85 0 0 0-1.6-6.575zM8.523 5.509c.68-.01 1.32.259 1.794.744.53.562.756 1.346.607 2.103l3.673 3.85-.223.178c-.577.459-1.11.962-1.599 1.525-3.635 4.092-4.299 10.029-1.658 14.822l-1.763 1.718c-1.54-2.512-2.312-5.42-2.22-8.366.076-3.565 1.465-7.009 3.798-9.691l-2.022-2.11a2.4 2.4 0 0 1-2.073-.727c-.908-.962-.868-2.477.09-3.391a2.43 2.43 0 0 1 1.367-.64c.076-.008.153-.01.23-.016zm30.901-3.076c2.981.001 4.844 3.229 3.353 5.81-.917 1.587-2.82 2.315-4.561 1.743v.005l-.06-.021-5.257 4.99-.178-.237c-.28-.37-.592-.74-.918-1.08l-.06-.075-.162-.163-.296-.296-.104-.089-.103-.088-.133-.119-.104-.089-.134-.118a12.87 12.87 0 0 0-7.966-3.021c-2.444-.06-4.828.548-6.9 1.792l-1.689-1.763C16.726 7.959 19.74 7.118 22.8 7.2c3.454.082 6.777 1.341 9.418 3.569h.03l3.48-3.305c-.782-2.495 1.083-5.032 3.698-5.031z"/><path fill="#047aed" d="M22.543 11.079c.437.005.874.034 1.309.086 6.249.785 10.676 6.486 9.906 12.735-.785 6.25-6.486 10.677-12.735 9.907-6.249-.785-10.677-6.487-9.907-12.735.746-5.797 5.616-9.973 11.427-9.993zm-.171 4.894c-2.53.203-4.36 2.116-4.425 4.659.04 1.766.802 3.013 2.246 3.989l.348.189-.88 4.139h5.901l-.879-4.14c1.62-.834 2.547-2.365 2.593-4.177-.034-2.624-2.064-4.6-4.664-4.665l-.24.006zm.088-.025h-.015.015zm30.457.999c-.287 0-.489.058-.834.518l-4.772 6.21 2.07-11.644c.086-.431-.144-.575-.489-.575h-4.313c-.517 0-.66.259-.718.575l-3.709 21.016c-.086.46.201.633.517.633h4.313c.316 0 .632-.317.69-.633l1.15-6.555 2.501 6.555c.173.46.403.633.719.633h5.175c.374 0 .517-.345.374-.633l-3.68-8.05 6.555-7.446c.23-.23.201-.604-.202-.604zm20.014 5.923c0-3.422-1.955-6.182-6.124-6.182-4.801 0-8.079 2.128-9.027 7.82l-.317 1.898a8.78 8.78 0 0 0-.115 1.466c0 4.083 3.163 6.066 6.354 6.066 2.415 0 4.37-.287 6.296-.89.489-.145.633-.346.719-.806l.46-2.587v-.115c0-.26-.173-.374-.431-.374h-.115c-1.093.115-3.997.23-5.52.23-1.438 0-2.358-.201-2.358-1.639 0-.259.029-.546.086-.891h8.942c.362-.005.667-.274.718-.633l.288-1.725c.086-.546.144-1.092.144-1.638zm-5.175-.202c0 .345-.058.748-.144 1.15h-4.255c.345-1.638 1.035-2.846 2.645-2.846 1.294 0 1.754.69 1.754 1.696zm24.527-5.29c0-.23-.259-.43-.517-.43h-4.744c-.316 0-.604.23-.719.545l-4.111 10.408h-.23c-.172 0-.201-.144-.23-.489l-.518-9.89c-.028-.316-.143-.575-.46-.575h-4.627c-.489 0-.719.23-.719.546v.087l1.667 13.685c.173 1.466.92 1.983 2.272 1.983h.374l-.403.95c-.345.833-.949 1.092-1.754 1.092-1.092 0-2.817-.173-3.881-.23h-.029c-.345 0-.69.287-.747.603l-.489 2.79v.085c0 .26.259.345.546.46.748.288 2.645.518 3.795.518 4.514 0 6.153-1.783 7.562-4.859l7.906-17.077a.54.54 0 0 0 .057-.202z"/><path fill="#2e3234" d="M105.056 17.608c0-.287-.173-.373-.489-.46-.776-.2-2.156-.46-3.853-.46-4.427 0-7.273 2.214-8.193 7.562l-.374 2.156c-.088.542-.137 1.09-.144 1.639 0 3.363 1.955 5.893 5.664 5.893a17.62 17.62 0 0 0 4.025-.46c.403-.086.633-.23.69-.603l.575-3.22v-.115c0-.26-.201-.432-.46-.432h-.057c-1.007.058-1.927.173-3.335.173-.978 0-1.553-.345-1.553-1.639a7.06 7.06 0 0 1 .115-1.236l.374-2.156c.402-2.387 1.236-2.904 2.472-2.904 1.409 0 2.272.144 3.249.201h.058c.316 0 .603-.23.66-.546l.576-3.249zm17.943-5.663c0-.288-.258-.49-.546-.49h-4.284c-.316 0-.603.26-.66.576l-.863 4.859c-.575-.087-1.553-.202-2.013-.202-5.232 0-7.849 2.185-8.797 7.504l-.403 2.243a9.02 9.02 0 0 0-.144 1.466c0 3.536 2.444 6.037 6.383 6.037 2.587 0 5.031-.402 6.584-.718.92-.202 1.063-.374 1.15-.92L123 12.03zm-7.158 9.43l-1.38 7.877a12.26 12.26 0 0 1-1.984.144c-1.236 0-1.667-.719-1.667-1.84a5.31 5.31 0 0 1 .114-1.121l.403-2.243c.287-1.667.977-2.932 2.587-2.932.69 0 1.352.057 1.927.115zm23.176.2c0-3.22-1.323-4.887-4.514-4.887-1.063 0-2.645.26-4.657 1.582l.144-.748c.086-.431-.115-.575-.49-.575h-3.938c-.316 0-.604.259-.661.575l-2.76 15.525c-.058.403.259.633.661.633h4.111c.432 0 .719-.288.777-.633l1.955-11.126c.517-.288 1.58-.633 2.443-.633.978 0 1.352.23 1.352 1.122 0 .488-.115.977-.202 1.466l-1.61 9.171c-.057.288 0 .633.489.633h4.313c.345 0 .66-.317.718-.633l1.582-8.97c.143-.805.287-1.754.287-2.501z"/></svg>