<svg xmlns="http://www.w3.org/2000/svg" viewBox="0 0 700 82" class="-mt-1 h-6 w-auto"><title>what the diff logotype</title><desc>by caneco</desc><polygon fill="#f87171" points="80.7,11.2 72,45.6 59.1,11.2 42.9,11.2 30,45.6 21.3,11.2 0,11.2 10.2,45.6 20.8,81.2 39,81.2 51,45.6 63,81.2 81.2,81.2 91.8,45.6 102,11.2"></polygon><polyline fill="#fecaca" points="80.7,11.2 102,11.2 81.2,81.2 63,81.2 "></polyline><path d="M162.7,37.5c1.5,3,2.3,6.4,2.3,10.2v33.5h-19.3V51.6c0-2.6-0.6-4.6-2-6.1c-1.3-1.5-3.2-2.2-5.7-2.2c-1.6,0-2.9,0.3-4.1,1 c-1.2,0.7-2.1,1.6-2.7,2.9c-0.6,1.2-1,2.7-1,4.5v29.5H111v-70h18.6v27.5h0.6c1.2-3.4,3.2-6,6-7.8c2.8-1.9,6.2-2.8,10.2-2.8 c3.8,0,7.1,0.8,9.9,2.5C159,32.2,161.2,34.5,162.7,37.5z M222.4,38.4c1.1,2.1,1.6,4.3,1.6,6.8v36h-17.5v-7.4h-0.4 c-1,2-2.3,3.5-3.8,4.8c-1.5,1.2-3.2,2.1-5.1,2.6c-1.9,0.5-4,0.8-6.2,0.8c-3.3,0-6.3-0.6-8.8-1.7c-2.5-1.1-4.5-2.8-6-5 c-1.4-2.3-2.2-5.1-2.2-8.6c0-2.9,0.5-5.3,1.5-7.4c1-2,2.3-3.7,4.1-5c1.7-1.3,3.8-2.3,6.1-3c2.3-0.7,4.8-1.1,7.5-1.3 c2.9-0.2,5.3-0.5,7-0.8c1.8-0.3,3.1-0.8,3.9-1.4c0.8-0.6,1.2-1.4,1.2-2.4v-0.1c0-1.4-0.5-2.4-1.6-3.1c-1-0.7-2.4-1.1-4-1.1 c-1.8,0-3.2,0.4-4.4,1.2s-1.8,2-2,3.6H176c0.2-3.2,1.2-6.1,3-8.8c1.8-2.7,4.4-4.9,7.9-6.5s7.8-2.4,13-2.4c3.7,0,7.1,0.4,10.1,1.3 c3,0.9,5.5,2.1,7.6,3.7C219.7,34.5,221.3,36.4,222.4,38.4z M205.4,58.2c-0.5,0.2-1,0.4-1.6,0.6c-0.6,0.2-1.1,0.4-1.8,0.5 c-0.6,0.2-1.3,0.3-2,0.4c-0.7,0.1-1.4,0.3-2.2,0.4c-1.4,0.2-2.6,0.6-3.5,1.1c-0.9,0.5-1.6,1.1-2,1.9c-0.4,0.7-0.7,1.6-0.7,2.5 c0,1.5,0.5,2.6,1.5,3.3c1,0.8,2.3,1.2,3.9,1.2c1.4,0,2.8-0.3,4-0.9c1.3-0.6,2.3-1.4,3.1-2.6c0.8-1.1,1.2-2.5,1.2-4.1V58.2z M265.2,67c-0.4,0.1-0.9,0.2-1.7,0.3c-0.8,0.1-1.4,0.2-2,0.2c-0.8,0-1.5-0.1-2-0.4c-0.5-0.2-0.9-0.6-1.2-1.1 c-0.3-0.5-0.4-1.1-0.4-1.8v-22h9.1V28.6h-9.1V16h-19.1v12.6H232v13.7h6.8v23.8c0,3.7,0.7,6.7,2.2,9.2c1.5,2.4,3.7,4.2,6.7,5.4 c3,1.1,6.7,1.6,11,1.4c2.2-0.1,4-0.4,5.6-0.7c1.6-0.4,2.8-0.7,3.7-0.9L265.2,67z"></path><path fill="#22c55e" d="M295,30V11.2h62V30h-19.7v51.2h-22.7V30H295z"></path><rect fill="#4ade80" x="295" y="11.2" width="42.3" height="18.8"></rect><path d="M418.7,37.5c1.5,3,2.3,6.4,2.3,10.2v33.5h-19.3V51.6c0-2.6-0.6-4.6-2-6.1c-1.3-1.5-3.2-2.2-5.7-2.2c-1.6,0-2.9,0.3-4.1,1 c-1.2,0.7-2.1,1.6-2.7,2.9c-0.6,1.2-1,2.7-1,4.5v29.5H367v-70h18.6v27.5h0.6c1.2-3.4,3.2-6,6-7.8c2.8-1.9,6.2-2.8,10.2-2.8 c3.8,0,7.1,0.8,9.9,2.5C415,32.2,417.2,34.5,418.7,37.5z M448,59.2V60c0,1.7,0.4,3.2,1.1,4.5c0.7,1.3,1.8,2.4,3.1,3.1 c1.4,0.7,3,1.1,4.9,1.1c1.3,0,2.5-0.2,3.7-0.5c1.1-0.4,2.1-0.9,2.9-1.6c0.8-0.7,1.4-1.5,1.7-2.5H483c-0.6,3.6-2,6.8-4.3,9.5 c-2.3,2.7-5.3,4.7-9,6.2c-3.7,1.5-8.1,2.2-13,2.2c-5.7,0-10.7-1.1-14.8-3.2c-4.1-2.1-7.3-5.2-9.5-9.3c-2.2-4-3.3-8.9-3.3-14.5 c0-5.4,1.1-10.1,3.4-14.2c2.2-4,5.4-7.2,9.5-9.4c4.1-2.2,8.9-3.4,14.4-3.4c4.1,0,7.7,0.6,11,1.8c3.3,1.2,6.1,3,8.4,5.3 c2.3,2.3,4.1,5.2,5.4,8.5c1.3,3.3,1.9,7.1,1.9,11.2v4.4H448z M448,48.9h17.2c0-1.5-0.4-2.8-1.2-4c-0.8-1.1-1.8-2-3-2.7 c-1.3-0.6-2.7-1-4.3-1c-1.6,0-3,0.3-4.3,1c-1.3,0.6-2.3,1.5-3.1,2.7C448.5,46,448.1,47.3,448,48.9z"></path><path fill="#2563eb" d="M550,11.2h-1h-36v70h36h1c19.3,0,35-15.7,35-35v0C585,26.8,569.3,11.2,550,11.2z"></path><rect fill="#60a5fa" x="513" y="45.2" width="36" height="36"></rect><path d="M595.7,20c-1.7-1.7-2.6-3.8-2.6-6.1c0-2.4,0.9-4.4,2.6-6.1c1.7-1.7,3.8-2.6,6.3-2.6c2.5,0,4.5,0.9,6.3,2.6 c1.7,1.7,2.6,3.8,2.6,6.1c0,2.4-0.9,4.4-2.6,6.1c-1.7,1.7-3.8,2.6-6.3,2.6C599.6,22.6,597.5,21.7,595.7,20z M687.7,25.8 c0-1.2,0.3-2.2,0.9-3c0.6-0.8,1.9-1.1,3.7-1.1c0.7,0,1.5,0.1,2.4,0.2c0.9,0.1,1.7,0.3,2.4,0.5L700,8.7c-1.1-0.3-2.8-0.6-5.2-1 c-2.3-0.4-4.7-0.6-7.1-0.6c-3.9,0-7.3,0.7-10.2,2.1c-2.9,1.4-5.1,3.6-6.7,6.5c-1.6,2.9-2.4,6.5-2.4,10.9v1.5h-3h-3.8h-15.4v-2.3 c0-1.2,0.3-2.2,0.9-3c0.6-0.8,1.9-1.1,3.7-1.1c0.7,0,1.5,0.1,2.4,0.2c0.9,0.1,1.7,0.3,2.4,0.5l2.8-13.7c-1.1-0.3-2.8-0.6-5.2-1 c-2.3-0.4-4.7-0.6-7.1-0.6c-3.9,0-7.3,0.7-10.2,2.1c-2.9,1.4-5.1,3.6-6.7,6.5c-1.6,2.9-2.4,6.5-2.4,10.9v1.5H620V42h6.9v39.2h19.3 V42h15.4h3.8h3v39.2h19.3V42h9.8V28.2h-9.8V25.8z M593,81.2h18V28.1h-18V81.2z"></path></svg>
