<?xml version="1.0"?>
<svg width="443" height="443" xmlns="http://www.w3.org/2000/svg" xmlns:svg="http://www.w3.org/2000/svg" preserveAspectRatio="xMidYMid">
 <defs>
  <style>.cls-1, .cls-4 {
        fill: #fff;
      }

      .cls-1, .cls-2, .cls-3 {
        fill-rule: evenodd;
      }

      .cls-2 {
        fill: #000;
      }

      .cls-3 {
        fill: #fa0000;
      }</style>
 </defs>
 <g class="layer">
  <title>Layer 1</title>
  <rect fill="#288cef" height="423" id="svg_10" rx="47" ry="47" stroke="#005fbf" stroke-width="20" width="423" x="10" y="10"/>
  <g id="svg_1">
   <path class="cls-1" d="m431.12,297.72c0,0 -13.95,19.69 26.77,39.07c0,0 -62.09,-6.58 -78.55,-22.18c0,0 -107.09,14.02 -64.31,116.81c0,0 -35.2,-25.34 -46,-58.39c0,0 -80.23,84.23 -26.42,222.15c0,0 -58.76,-62.78 -67.02,-124.44c0,0 -4.98,9.67 -2.88,24.46c0,0 -23.65,-68.19 -17.58,-104.21c0,0 -14.41,19.97 -15.3,31.27c0,0 2.02,-25.31 11.99,-40.9c0,0 -2.9,-22.6 7.02,-46.27c9.9,-23.6 6.74,-48.89 4.84,-53.39c0,0 -3.07,10.25 -7.46,14.66c0,0 14.04,-55.49 8.08,-82.11c0,0 -12.27,11.86 -10.48,41.59c0,0 -7.09,-26.26 -0.08,-54.34c0,0 -6.27,0.62 -6.79,7.02c0,0 -6.67,-17.97 2.71,-38.67c0,0 -53.57,-35.93 -58.8,-40.17c0,0 -7.72,-3.92 -17.25,-3.07c30.17,-12.56 70.12,9.3 94.82,25.72c13.43,9.34 20.04,15.25 34.69,19.16c14.84,3.96 28.05,17.06 28.05,17.06c-14.83,-21.68 -19.53,-9.7 -60.06,-38.55c-57.64,-40.78 -89.19,-29.78 -100.23,-23.02c-1.45,0.27 -2.92,0.65 -4.38,1.19c0,0 22.81,-48.33 118.55,-17.39c0,0 14.82,-15.09 23.99,-16.57c0,0 -12.78,9.09 -15.09,16.63c0,0 18.18,-13.18 33,-13.02c0,0 -17.01,8.65 -25.56,16.66c0,0 11.3,-6.03 27.58,-5.83c0,0 -10.12,4.9 -13.58,6.58c-0.72,0.35 -1.17,0.56 -1.17,0.56c0,0 10.24,-2.17 15.79,-2.29c0,0 27.68,-13.3 52.7,-10.69c0,0 -8.7,0.06 -20.77,9.7c0,0 37.72,-1.97 63,10.51c0,0 -21.4,-4.2 -34.72,-4.1c0,0 65.11,2.6 119.48,73.56c57.19,74.67 59.58,80.74 106.29,115.86c0,0 -56.51,-2.46 -84.85,-10.63z" id="svg_2"/>
   <path class="cls-2" d="m391.24,270.31c0,0 -10.04,17.25 19.82,30.32c0,0 -45.59,-0.96 -58.3,-12.83c0,0 -83.55,21.15 -46.64,102.61c0,0 -28.58,-17.4 -38.48,-44.31c0,0 -62.27,81.57 -12.83,185.4c0,0 -50.52,-41.87 -60.63,-92.12c0,0 -3.73,8.82 -1.17,20.99c0,0 -24.22,-55.25 -20.99,-87.45c0,0 -11.57,19.15 -11.66,29.15c0,0 0.24,-22.47 8.16,-37.31c0,0 -3.94,-19.82 3.5,-41.98c7.44,-22.15 3.15,-44.97 1.17,-48.97c0,0 -2.15,9.63 -5.83,13.99c0,0 9.34,-52.24 2.33,-76.96c0,0 -10.51,11.81 -7,39.64c0,0 -8.17,-24.28 -3.5,-51.3c0,0 -5.77,0.85 -5.83,7c0,0 -7.39,-16.98 0,-37.31c0,0 -53.95,-34.27 -59.47,-38.48c0,0 -8.01,-3.86 -17.48,-2.86c28.87,-13.15 69.1,8.26 93.27,23.85c12.9,8.69 19.24,14.18 32.65,17.49c13.41,3.31 25.65,15.16 25.65,15.16c-14.12,-19.9 -17.68,-8.45 -55.97,-34.98c-57.31,-39.45 -87.54,-28.11 -98.14,-21.13c-1.48,0.29 -2.97,0.71 -4.47,1.31c0,0 19.82,-49.5 113.1,-18.66c0,0 12.72,-14.87 20.99,-16.32c0,0 -11.14,8.94 -12.83,16.32c0,0 15.81,-12.95 29.15,-12.83c0,0 -14.84,8.47 -22.15,16.32c0,0 9.9,-5.94 24.49,-5.83c0,0 -8.78,4.79 -11.81,6.45c-0.63,0.34 -1.01,0.55 -1.01,0.55c0,0 9.06,-2.18 13.99,-2.33c0,0 23.75,-12.91 45.47,-10.49c0,0 -7.46,0.09 -17.49,9.33c0,0 32.16,-2.11 53.64,9.33c0,0 -17.92,-3.71 -29.15,-3.5c0,0 54.05,2.04 97.95,64.13c43.9,62.09 45.33,66.34 78.12,92.12c0,0 -39.91,1.49 -60.63,-3.5z" id="svg_3"/>
   <path class="cls-1" d="m170.86,129.22c0,0 8.72,-8.01 11.66,4.66c0,0 -4.16,4.08 -7,2.33c-2.83,-1.75 -4.66,-7 -4.66,-7z" id="svg_4"/>
   <g id="svg_5">
    <path class="cls-3" d="m247.82,164.2c0,0 6.53,-16.16 26.82,-10.49c16.62,5.12 17.49,18.66 17.49,18.66c0,0 -7.26,18.14 -20.99,16.32c-13.72,-1.82 -22.75,-13.26 -23.32,-24.49z" id="svg_6"/>
    <path class="cls-2" d="m266.55,157.27c8.19,-0.3 16.04,4.51 16.29,10.89c0.24,6.48 -7.47,10.56 -15.9,9.22c-7.24,-1.14 -12.43,-5.98 -12.45,-10.89c-0.02,-4.86 5,-8.96 12.07,-9.22z" id="svg_7"/>
    <ellipse class="cls-4" cx="262.4" cy="161.86" id="svg_8" rx="5.25" ry="4.66"/>
   </g>
  </g>
  <rect fill="#FF0000" height="0" id="svg_9" stroke="#000000" width="0" x="9.5" y="17.5"/>
 </g>
</svg>