<svg xmlns="http://www.w3.org/2000/svg" viewBox="70.52 71.867 339.104 339.104">
  <circle cx="240.072" cy="241.419" r="169.552" fill="rgba(216, 216, 216, 0.11)"/>
  <circle cx="240.072" cy="241.419" r="64.194" fill="#fff" paint-order="fill" stroke="#000" stroke-width="7"/>
  <g transform="matrix(.3317 0 0 .3317 188.147964 194.105103)">
    <g fill-rule="evenodd">
      <path
        d="M307 158s-8.611 14.789 17 26c0 0-39.098-.816-50-11 0 0-71.654 18.137-40 88 0 0-24.514-14.916-33-38 0 0-53.398 69.965-11 159 0 0-43.326-35.908-52-79 0 0-3.199 7.563-1 18 0 0-20.771-47.383-18-75 0 0-9.916 16.424-10 25 0 0 .211-19.273 7-32 0 0-3.377-17.002 3-36s2.697-38.572 1-42c0 0-1.84 8.258-5 12 0 0 8.014-44.803 2-66 0 0-9.006 10.129-6 34 0 0-7.006-20.82-3-44 0 0-4.949.73-5 6 0 0-6.34-14.559 0-32L52 38s-6.87-3.313-14.994-2.449C61.771 24.269 96.266 42.627 117 56c11.061 7.455 16.5 12.163 28 15s22 13 22 13c-12.106-17.07-15.156-7.248-48-30-49.154-33.828-75.075-24.112-84.171-18.121-1.266.253-2.548.616-3.829 1.121 0 0 16.998-42.445 97-16 0 0 10.914-12.754 18-14 0 0-9.547 7.67-11 14 0 0 13.561-11.105 25-11 0 0-12.73 7.262-19 14 0 0 8.486-5.09 21-5l-10.132 5.526L151 25s7.766-1.869 12-2c0 0 20.369-11.07 39-9 0 0-6.402.076-15 8 0 0 27.584-1.807 46 8 0 0-15.373-3.176-25-3 0 0 46.348 1.752 84 55s38.877 56.893 67 79c0 0-34.23 1.277-52-3z"/>
      <path d="M118 37s7.482-6.869 10 4c0 0-3.572 3.504-6 2s-4-6-4-6z" fill="#fff"/>
      <path d="M184 67s5.596-13.857 23-9c14.245 4.388 15 16 15 16s-6.227 15.56-18 14-19.508-11.37-20-21z"
            fill="#fa0000"/>
      <path
        d="M200.055 61.063c7.024-.267 13.768 3.863 13.976 9.34.212 5.559-6.411 9.054-13.643 7.91-6.211-.981-10.655-5.133-10.676-9.346-.021-4.166 4.289-7.674 10.343-7.904z"/>
    </g>
    <ellipse cx="196.5" cy="65" rx="4.5" ry="4" fill="#fff"/>
  </g>
</svg>
