<?xml version="1.0" encoding="utf-8"?>
<!-- Generator: Adobe Illustrator 26.0.3, SVG Export Plug-In . SVG Version: 6.00 Build 0)  -->
<svg version="1.1" xmlns="http://www.w3.org/2000/svg" xmlns:xlink="http://www.w3.org/1999/xlink" x="0px" y="0px"
	 viewBox="0 0 1745.8 298.8" style="enable-background:new 0 0 1745.8 298.8;" xml:space="preserve">
<style type="text/css">
	.st0{fill:none;}
	.st1{display:none;fill:#FC636B;}
	.st2{fill:#FC636B;}
	.st3{fill:#E1EFE6;}
	.st4{fill:#7BC29E;}
	.st5{fill:#FFFFFF;}
	.st6{fill:#D7E0DC;}
	.st7{opacity:0.15;fill:#D7E0DC;}
	.st8{fill:#73A88A;}
	.st9{fill:none;stroke:#7BC29E;stroke-miterlimit:10;}
	.st10{fill:#A3D3B9;}
	.st11{fill:url(#SVGID_1_);}
	.st12{fill:url(#SVGID_00000073716262723105117970000005922229473735550892_);}
	.st13{fill:url(#SVGID_00000033346697068504242950000008558756444572264886_);}
	.st14{fill:url(#SVGID_00000085242385607214215510000016384968130353430929_);}
	.st15{fill:url(#SVGID_00000164515415580357926440000002856182744893592986_);}
	.st16{fill:url(#SVGID_00000032612852903047406600000005026357644782472066_);}
	.st17{fill:#F4F4F4;}
	.st18{fill:none;stroke:#578E70;stroke-width:0.9764;stroke-miterlimit:10;}
	.st19{display:none;}
	.st20{display:inline;fill:#7BC29E;}
	.st21{font-family:'Milkshake';}
	.st22{font-size:4.6801px;}
	.st23{font-family:'Montserrat-Bold';}
	.st24{font-size:6.6302px;}
	.st25{fill:#578E70;}
	.st26{fill:#C7D8CF;}
	.st27{font-family:'Nickainley-Normal';}
	.st28{font-size:25.6687px;}
	.st29{font-family:'Montserrat-Regular';}
	.st30{font-size:6.9996px;}
	.st31{letter-spacing:1;}
	.st32{fill:url(#SVGID_00000154422623604521509840000018287687285435097266_);}
	.st33{fill:url(#SVGID_00000016754810760054442160000001114881149705546163_);}
	.st34{fill:url(#SVGID_00000038387449537856816080000002092093646923911040_);}
	.st35{fill:#CCC597;}
	.st36{fill:url(#SVGID_00000130640353598190516440000017037212673091171476_);}
	.st37{fill:url(#SVGID_00000054250823252448883630000008872790515286176399_);}
	.st38{fill:url(#SVGID_00000011745652127821793860000002213641339176711047_);}
	.st39{fill:url(#SVGID_00000178911158228499519350000004925242521745876651_);}
	.st40{fill:url(#SVGID_00000155148666042456839740000016073321431348928405_);}
	.st41{fill:url(#SVGID_00000011719734102649641520000008110494136079110826_);}
	.st42{opacity:0.38;}
	.st43{fill:#A7D6BC;}
	.st44{opacity:0.52;}
	.st45{font-family:'Roboto-Regular';}
	.st46{font-size:4.9549px;}
	.st47{display:none;fill:#7BC29E;}
	.st48{font-family:'TrebuchetMS';}
	.st49{font-size:200px;}
	.st50{display:inline;}
	.st51{fill:url(#SVGID_00000183249705832595481540000006037933177735186578_);}
	.st52{fill:url(#SVGID_00000107587184482888034950000010277494717645819298_);}
	.st53{fill:url(#SVGID_00000055669292685498058010000009568764147824023462_);}
	.st54{fill:url(#SVGID_00000035527811026498241010000002905227112730690710_);}
	.st55{fill:url(#SVGID_00000147904053394653600330000008679425073342990990_);}
	.st56{fill:url(#SVGID_00000021090546283017627690000015417415529563104141_);}
	.st57{fill:url(#SVGID_00000002344106243876750260000006414744271544831882_);}
	.st58{fill:url(#SVGID_00000025422000128589266900000002235973367500542892_);}
	.st59{fill:url(#SVGID_00000023998567465787411840000005889084205498072976_);}
	.st60{fill:url(#SVGID_00000033361916820215692700000000905283953206953636_);}
	.st61{fill:url(#SVGID_00000021808872956945488730000006989730434662656934_);}
	.st62{fill:url(#SVGID_00000160169537570251091230000002983784719735076002_);}
	.st63{fill:url(#SVGID_00000178183235665064872050000003021079307993217939_);}
	.st64{fill:url(#SVGID_00000148626552644455594670000004380139226743473557_);}
	.st65{fill:url(#SVGID_00000106142295571841358330000005534797089872499626_);}
</style>
<g id="HORIZONTAL">
	<g id="Layer_3">
		<rect x="2.3" class="st0" width="1743.5" height="293.2"/>
	</g>
	<g id="Layer_5">
		<path class="st1" d="M263.5,200.5c0.4-19.1,4.6-38.5,14.1-54.9c1.2-2.1,2.5-4.1,4-6.2c-0.4-3.5-1-6.9-1.7-10.3
			c-5.8-1.6-11-4.2-15.8-7.5C263.9,148,263.3,174.3,263.5,200.5z"/>
		<path class="st1" d="M263.5,200.5c0,3.1,0.1,6.1,0.1,9.1C263.5,206.6,263.4,203.5,263.5,200.5c-0.2-26.2,0.4-52.5,0.6-78.8
			c-22-15.2-33.7-46-33.3-73.7C206.5,28,175.3,16,141.4,16c-26.8,0-51.9,7.5-73.3,20.5c25.3,15,56.3,14.4,86.5,18.1
			c42,5,85,32,76,82c-1,2,2,5,2,8c2,18-2,37-14,50c-26,26-66,39-75,75c-2,8,24,9,38,9c14-0.9,28.1-2.5,42.1-6.3
			c35.8-25.7,59.1-67.6,59.1-115c0-6.1-0.4-12-1.1-17.9c-1.5,2-2.9,4-4,6.2C268.1,162,263.9,181.4,263.5,200.5z"/>
		<path class="st1" d="M264.1,121.7c4.8,3.3,10.1,5.9,15.8,7.5c-3.1-15.1-8.5-29.3-15.9-42.2C264.2,98.5,264.2,110.1,264.1,121.7z"
			/>
		<path class="st1" d="M230.9,47.9c-0.4,27.7,11.2,58.5,33.3,73.7c0.1-11.6,0.1-23.1-0.1-34.7C255.4,72,244.1,58.8,230.9,47.9z"/>
		<path class="st2" d="M127.6,266.8c9-36,65-46.1,91-72.1c12-13,16-32,14-50c0-3-3-6-2-8c9-50-34-77-76-82
			c-30.2-3.8-61.3-3.1-86.5-18.1C27.3,61.3,0,106.1,0,157.4c0,78.1,63.3,141.4,141.4,141.4c30.7,0,59.1-9.8,82.3-26.4
			c-14,3.8-28.1,5.4-42.1,6.3C167.6,278.6,125.6,274.8,127.6,266.8z"/>
		<polyline class="st2" points="127.6,271.9 1616.9,296 1616.9,296 141.4,298.8 127.6,271.9 		"/>
	</g>
	<g id="Layer_4">
		<g id="Symbol">
			<g>
				<circle class="st3" cx="127.6" cy="146.6" r="125.3"/>
				<g>
					<polygon class="st4" points="197.6,212.6 57.5,212.6 66.5,206.6 188.6,206.6 					"/>
					<rect x="77.7" y="104.9" class="st5" width="100.1" height="4.8"/>
					<rect x="66.8" y="123.4" class="st5" width="122.2" height="83.3"/>
					<rect x="68.9" y="141.2" class="st6" width="37" height="65.5"/>
					<polygon class="st7" points="189,141.8 189,123.4 66.8,123.4 66.8,136.3 					"/>
					<rect x="70.3" y="142.7" class="st8" width="34.2" height="64"/>
					<rect x="72" y="146.1" class="st9" width="30.8" height="57"/>
					<rect x="72.6" y="146.8" class="st10" width="29.5" height="55.8"/>
					<g>
						<linearGradient id="SVGID_1_" gradientUnits="userSpaceOnUse" x1="73.0812" y1="135.9438" x2="82.5502" y2="191.4855">
							<stop  offset="0" style="stop-color:#FFFFFF"/>
							<stop  offset="1" style="stop-color:#FFFFFF;stop-opacity:0"/>
						</linearGradient>
						<polygon class="st11" points="72.6,162.1 72.6,164.3 80.2,146.8 79.3,146.8 						"/>
						
							<linearGradient id="SVGID_00000174566704874002640940000007127821719011339402_" gradientUnits="userSpaceOnUse" x1="74.4243" y1="135.7148" x2="83.8933" y2="191.2564">
							<stop  offset="0" style="stop-color:#FFFFFF"/>
							<stop  offset="1" style="stop-color:#FFFFFF;stop-opacity:0"/>
						</linearGradient>
						<polygon style="fill:url(#SVGID_00000174566704874002640940000007127821719011339402_);" points="84.8,146.8 82,146.8 
							72.6,168.5 72.6,174.8 						"/>
						
							<linearGradient id="SVGID_00000014625471983867111700000003839704522170479022_" gradientUnits="userSpaceOnUse" x1="79.1724" y1="134.9054" x2="88.6414" y2="190.4472">
							<stop  offset="0" style="stop-color:#FFFFFF"/>
							<stop  offset="1" style="stop-color:#FFFFFF;stop-opacity:0"/>
						</linearGradient>
						<polygon style="fill:url(#SVGID_00000014625471983867111700000003839704522170479022_);" points="90.9,146.8 72.6,188.8 
							72.6,202.5 75.1,202.5 99.3,146.8 						"/>
						
							<linearGradient id="SVGID_00000080168665666767836790000007403112070508864653_" gradientUnits="userSpaceOnUse" x1="86.1199" y1="133.7209" x2="95.5889" y2="189.2627">
							<stop  offset="0" style="stop-color:#FFFFFF"/>
							<stop  offset="1" style="stop-color:#FFFFFF;stop-opacity:0"/>
						</linearGradient>
						<polygon style="fill:url(#SVGID_00000080168665666767836790000007403112070508864653_);" points="102.1,184 102.1,170 
							88,202.5 94.1,202.5 						"/>
						
							<linearGradient id="SVGID_00000020387633698949719630000017260181028837869466_" gradientUnits="userSpaceOnUse" x1="83.6322" y1="134.145" x2="93.1012" y2="189.6867">
							<stop  offset="0" style="stop-color:#FFFFFF"/>
							<stop  offset="1" style="stop-color:#FFFFFF;stop-opacity:0"/>
						</linearGradient>
						<polygon style="fill:url(#SVGID_00000020387633698949719630000017260181028837869466_);" points="102.1,156.9 102.1,150.6 
							79.6,202.5 82.3,202.5 						"/>
						
							<linearGradient id="SVGID_00000086659963490023392400000007617168997429193627_" gradientUnits="userSpaceOnUse" x1="88.5498" y1="133.3067" x2="98.0187" y2="188.8483">
							<stop  offset="0" style="stop-color:#FFFFFF"/>
							<stop  offset="1" style="stop-color:#FFFFFF;stop-opacity:0"/>
						</linearGradient>
						<polygon style="fill:url(#SVGID_00000086659963490023392400000007617168997429193627_);" points="102.1,191.2 102.1,189 
							96.3,202.5 97.2,202.5 						"/>
					</g>
					<g>
						<g>
							<path class="st17" d="M98,174.1l-21.2,0.1c-0.6,0-1.2-0.5-1.2-1.2l0-13c0-0.6,0.5-1.2,1.2-1.2l21.2-0.1
								c0.6,0,1.2,0.5,1.2,1.2l0,13C99.1,173.6,98.6,174.1,98,174.1z"/>
							<path class="st18" d="M76.8,173.3c-0.2,0-0.3-0.1-0.3-0.3l0-13c0-0.2,0.1-0.3,0.3-0.3l21.2-0.1c0.2,0,0.3,0.1,0.3,0.3l0,13
								c0,0.2-0.1,0.3-0.3,0.3L76.8,173.3L76.8,173.3z"/>
							<text id="Follower_BÖRSE" transform="matrix(1 -3.280015e-03 3.280015e-03 1 80.3412 165.1447)" class="st19"><tspan x="0" y="0" class="st20 st21 st22">We Are</tspan><tspan x="-3.1" y="5.6" class="st20 st23 st24">OPEN</tspan></text>
						</g>
						<polyline class="st18" points="83.3,159.7 86.9,155.1 90.4,159.7 						"/>
						<path class="st17" d="M87.6,155.1c0,0.4-0.3,0.7-0.7,0.7c-0.4,0-0.7-0.3-0.7-0.7c0-0.4,0.3-0.7,0.7-0.7
							C87.2,154.4,87.6,154.7,87.6,155.1z"/>
					</g>
					<path class="st25" d="M72,133.3c-3.2,3.2-8.3,3.2-11.4,0c0-2.8,0-5.5,0-8.3c3.8,0,7.6,0,11.4,0C72,127.8,72,130.6,72,133.3z"/>
					<path class="st25" d="M194.9,125.1c0,2.8,0,5.5,0,8.3c-3.2,3.2-8.3,3.2-11.4,0c0-2.8,0-5.5,0-8.3
						C187.3,125.1,191.1,125.1,194.9,125.1z"/>
					<polygon class="st4" points="183.5,124.8 170.6,107.5 179.4,107.5 194.9,124.8 194.9,125.1 183.5,125.1 					"/>
					<polygon class="st4" points="76.1,107.5 84.9,107.5 72,124.8 72,125.1 60.5,125.1 60.5,124.8 					"/>
					<path class="st26" d="M82.2,125.1c0,2.8,0,5.5,0,8.3c-2.8,2.8-7.4,2.8-10.3,0c0-2.8,0-5.5,0-8.3
						C75.4,125.1,78.8,125.1,82.2,125.1z"/>
					<path class="st26" d="M183.5,125.1c0,2.8,0,5.5,0,8.3c-2.8,2.8-7.4,2.8-10.3,0c0-2.8,0-5.5,0-8.3
						C176.6,125.1,180,125.1,183.5,125.1z"/>
					<polygon class="st5" points="82.2,125.1 72,125.1 72,124.8 84.9,107.5 92.8,107.5 82.2,124.8 					"/>
					<polygon class="st5" points="183.5,125.1 173.2,125.1 173.2,124.8 162.7,107.5 170.6,107.5 183.5,124.8 					"/>
					<path class="st25" d="M92.3,125.1c0,2.8,0,5.5,0,8.3c-2.8,2.8-7.3,2.8-10,0c0-2.8,0-5.5,0-8.3
						C85.6,125.1,88.9,125.1,92.3,125.1z"/>
					<path class="st25" d="M173.2,125.1c0,2.8,0,5.5,0,8.3c-2.8,2.8-7.3,2.8-10,0c0-2.8,0-5.5,0-8.3
						C166.5,125.1,169.9,125.1,173.2,125.1z"/>
					<polygon class="st4" points="173.2,125.1 163.2,125.1 163.2,124.8 155,107.5 162.7,107.5 173.2,124.8 					"/>
					<polygon class="st4" points="92.3,125.1 82.2,125.1 82.2,124.8 92.8,107.5 100.5,107.5 92.3,124.8 					"/>
					<path class="st26" d="M163.2,125.1c0,2.8,0,5.5,0,8.3c-3,3-8,3-11,0c0-2.8,0-5.5,0-8.3C155.8,125.1,159.5,125.1,163.2,125.1z"
						/>
					<path class="st26" d="M103.3,125.1c0,2.8,0,5.5,0,8.3c-3,3-8,3-11,0c0-2.8,0-5.5,0-8.3C95.9,125.1,99.6,125.1,103.3,125.1z"/>
					<polygon class="st5" points="163.2,125.1 152.2,125.1 152.2,124.8 146.5,107.5 155,107.5 163.2,124.8 					"/>
					<polygon class="st5" points="103.3,125.1 92.3,125.1 92.3,124.8 100.5,107.5 108.9,107.5 103.3,124.8 					"/>
					<path class="st25" d="M114.1,125.1c0,2.8,0,5.5,0,8.3c-3,3-7.8,3-10.8,0c0-2.8,0-5.5,0-8.3
						C106.9,125.1,110.5,125.1,114.1,125.1z"/>
					<path class="st25" d="M152.2,125.1c0,2.8,0,5.5,0,8.3c-3,3-7.8,3-10.8,0c0-2.8,0-5.5,0-8.3C145,125.1,148.6,125.1,152.2,125.1z
						"/>
					<polygon class="st4" points="114.1,125.1 103.3,125.1 103.3,124.8 108.9,107.5 117.2,107.5 114.1,124.8 					"/>
					<polygon class="st4" points="152.2,125.1 141.4,125.1 141.4,124.8 138.2,107.5 146.5,107.5 152.2,124.8 					"/>
					<path class="st26" d="M123.1,125.1c0,2.8,0,5.5,0,8.3c-2.5,2.5-6.5,2.5-9,0c0-2.8,0-5.5,0-8.3
						C117.1,125.1,120.1,125.1,123.1,125.1z"/>
					<path class="st26" d="M141.4,125.1c0,2.8,0,5.5,0,8.3c-2.5,2.5-6.5,2.5-9,0c0-2.8,0-5.5,0-8.3
						C135.4,125.1,138.4,125.1,141.4,125.1z"/>
					<polygon class="st5" points="123.1,125.1 114.1,125.1 114.1,124.8 117.2,107.5 124.1,107.5 123.1,124.8 					"/>
					<polygon class="st5" points="141.4,125.1 132.4,125.1 132.4,124.8 131.3,107.5 138.2,107.5 141.4,124.8 					"/>
					<path class="st25" d="M132.4,125.1c0,2.8,0,5.5,0,8.3c-1.3,1.3-3,1.9-4.6,1.9c-1.7,0-3.4-0.6-4.6-1.9c0-2.8,0-5.5,0-8.3
						C126.2,125.1,129.3,125.1,132.4,125.1z"/>
					<polygon class="st4" points="132.4,125.1 123.1,125.1 123.1,124.8 124.1,107.5 127.7,107.5 131.3,107.5 132.4,124.8 					"/>
					<text transform="matrix(1 0 0 1 122.1515 174.6272)" class="st5 st27 st28">Shop</text>
					<g>
						<text transform="matrix(0.9753 0 0 1 130.0104 152.7277)" class="st17 st29 st30 st31">BAKERY</text>
					</g>
					
						<linearGradient id="SVGID_00000086678503140922305970000010066228165757137564_" gradientUnits="userSpaceOnUse" x1="81.3589" y1="88.4916" x2="82.1688" y2="104.9594">
						<stop  offset="0" style="stop-color:#FFFFFF"/>
						<stop  offset="1" style="stop-color:#FFFFFF;stop-opacity:0"/>
					</linearGradient>
					<path style="fill:url(#SVGID_00000086678503140922305970000010066228165757137564_);" d="M80.4,91.8c-4.3,0-8,2.6-9.6,6.3
						c-2.2,0.1-4,1.9-4,4.2h30.5c0-3.5-2.9-6.4-6.4-6.4c-0.7,0-1.3,0.1-2,0.3C87,93.5,83.9,91.8,80.4,91.8z"/>
					
						<linearGradient id="SVGID_00000156587219820904384380000011321031894253376646_" gradientUnits="userSpaceOnUse" x1="132.4956" y1="56.7919" x2="133.1316" y2="75.5532">
						<stop  offset="0.3078" style="stop-color:#FFFFFF"/>
						<stop  offset="1" style="stop-color:#FFFFFF;stop-opacity:0"/>
					</linearGradient>
					<path style="fill:url(#SVGID_00000156587219820904384380000011321031894253376646_);" d="M130.3,58.3c-7,0-13,4.2-15.6,10.2
						c-2.7,0.1-5,1.9-6,4.2h48.8c-1.2-4.5-5.2-7.8-10.1-7.8c-1.1,0-2.2,0.2-3.2,0.5C141.1,61.2,136,58.3,130.3,58.3z"/>
					
						<linearGradient id="SVGID_00000124853094928462740950000009300795199303141535_" gradientUnits="userSpaceOnUse" x1="179.4227" y1="82.6976" x2="178.0729" y2="104.2946">
						<stop  offset="0" style="stop-color:#FFFFFF"/>
						<stop  offset="1" style="stop-color:#FFFFFF;stop-opacity:0"/>
					</linearGradient>
					<path style="fill:url(#SVGID_00000124853094928462740950000009300795199303141535_);" d="M192.6,101.3c0.3-0.6,0.5-1.2,0.5-1.9
						c0-2.2-1.7-3.9-3.8-4c-1.6-3.6-5.1-6.1-9.2-6.1c-3.4,0-6.4,1.7-8.2,4.2c-0.6-0.2-1.2-0.3-1.9-0.3c-3.4,0-6.2,2.8-6.2,6.2
						c0,0.7,0.1,1.3,0.3,1.9H192.6z"/>
					<rect x="108.8" y="143.2" class="st8" width="76.4" height="45.8"/>
					
						<rect x="125.5" y="130.5" transform="matrix(-1.836970e-16 1 -1 -1.836970e-16 313.31 19.2172)" class="st9" width="43" height="71.5"/>
					<rect x="112" y="145.4" class="st10" width="70.2" height="41.7"/>
					<polygon class="st6" points="185.5,188.7 108.4,188.7 108.4,193.5 185.5,189.6 					"/>
					<path class="st35" d="M162.5,208.7"/>
					<path class="st25" d="M74.9,177.1L74.9,177.1c-0.4,0-0.8,0.3-0.8,0.8v1.7c0,0.4,0.3,0.8,0.8,0.8l0,0c0.4,0,0.8-0.3,0.8-0.8
						v-1.7C75.7,177.5,75.3,177.1,74.9,177.1z"/>
					<path class="st25" d="M100.3,177.1L100.3,177.1c-0.4,0-0.8,0.3-0.8,0.8v1.7c0,0.4,0.3,0.8,0.8,0.8l0,0c0.4,0,0.8-0.3,0.8-0.8
						v-1.7C101.1,177.5,100.7,177.1,100.3,177.1z"/>
					<path class="st5" d="M100.3,179.2H75.4c-0.3,0-0.6-0.3-0.6-0.6l0,0c0-0.3,0.3-0.6,0.6-0.6h24.9c0.3,0,0.6,0.3,0.6,0.6l0,0
						C100.9,178.9,100.6,179.2,100.3,179.2z"/>
					<g>
						
							<linearGradient id="SVGID_00000007414985504150622880000009557603069219835056_" gradientUnits="userSpaceOnUse" x1="140.9212" y1="124.0741" x2="120.4289" y2="171.8426">
							<stop  offset="0" style="stop-color:#FFFFFF"/>
							<stop  offset="1" style="stop-color:#FFFFFF;stop-opacity:0"/>
						</linearGradient>
						<polygon style="fill:url(#SVGID_00000007414985504150622880000009557603069219835056_);" points="134.9,145.4 128.8,145.4 
							112,184.2 112,187.1 116.8,187.1 						"/>
						
							<linearGradient id="SVGID_00000001653910821101316170000000206778565102927760_" gradientUnits="userSpaceOnUse" x1="148.62" y1="127.3768" x2="128.1276" y2="175.1456">
							<stop  offset="0" style="stop-color:#FFFFFF"/>
							<stop  offset="1" style="stop-color:#FFFFFF;stop-opacity:0"/>
						</linearGradient>
						<polygon style="fill:url(#SVGID_00000001653910821101316170000000206778565102927760_);" points="142.4,145.4 139.6,145.4 
							121.5,187.1 124.3,187.1 						"/>
						
							<linearGradient id="SVGID_00000013901267560058415750000003029697177639689142_" gradientUnits="userSpaceOnUse" x1="131.979" y1="120.238" x2="111.4865" y2="168.0067">
							<stop  offset="0" style="stop-color:#FFFFFF"/>
							<stop  offset="1" style="stop-color:#FFFFFF;stop-opacity:0"/>
						</linearGradient>
						<polygon style="fill:url(#SVGID_00000013901267560058415750000003029697177639689142_);" points="112,165.7 112,167.9 
							121.7,145.4 120.8,145.4 						"/>
						
							<linearGradient id="SVGID_00000114075663021662555010000003017824675937968032_" gradientUnits="userSpaceOnUse" x1="161.6279" y1="132.9571" x2="141.1354" y2="180.7259">
							<stop  offset="0" style="stop-color:#FFFFFF"/>
							<stop  offset="1" style="stop-color:#FFFFFF;stop-opacity:0"/>
						</linearGradient>
						<polygon style="fill:url(#SVGID_00000114075663021662555010000003017824675937968032_);" points="157.8,145.4 155,145.4 
							136.9,187.1 139.7,187.1 						"/>
						
							<linearGradient id="SVGID_00000144327494153217690770000001633778957309421441_" gradientUnits="userSpaceOnUse" x1="166.7032" y1="135.1344" x2="146.2106" y2="182.9032">
							<stop  offset="0" style="stop-color:#FFFFFF"/>
							<stop  offset="1" style="stop-color:#FFFFFF;stop-opacity:0"/>
						</linearGradient>
						<polygon style="fill:url(#SVGID_00000144327494153217690770000001633778957309421441_);" points="162.9,145.4 161.9,145.4 
							143.8,187.1 144.8,187.1 						"/>
						
							<linearGradient id="SVGID_00000155141273627307984570000003038993754928841374_" gradientUnits="userSpaceOnUse" x1="186.1198" y1="143.464" x2="165.6273" y2="191.2328">
							<stop  offset="0" style="stop-color:#FFFFFF"/>
							<stop  offset="1" style="stop-color:#FFFFFF;stop-opacity:0"/>
						</linearGradient>
						<polygon style="fill:url(#SVGID_00000155141273627307984570000003038993754928841374_);" points="182.1,162.7 182.1,145.4 
							181.2,145.4 163.1,187.1 171.5,187.1 						"/>
					</g>
					<g class="st42">
						<ellipse class="st5" cx="165.5" cy="162.7" rx="2.6" ry="2.4"/>
						<path class="st25" d="M158.7,162.9h13.4c-0.9-2.1-3.6-3.6-6.7-3.6C162.2,159.3,159.6,160.8,158.7,162.9z"/>
						<rect x="164.6" y="157.4" class="st25" width="1.6" height="3"/>
						<rect x="165.1" y="145.5" class="st25" width="0.6" height="12.6"/>
					</g>
					<g class="st42">
						<ellipse class="st5" cx="129.7" cy="162.7" rx="2.6" ry="2.4"/>
						<path class="st25" d="M122.9,162.9h13.4c-0.9-2.1-3.6-3.6-6.7-3.6C126.5,159.3,123.8,160.8,122.9,162.9z"/>
						<rect x="128.9" y="157.4" class="st25" width="1.6" height="3"/>
						<rect x="129.4" y="145.5" class="st25" width="0.6" height="12.6"/>
					</g>
					<rect x="108.3" y="184.7" class="st25" width="77.3" height="4.4"/>
					<rect x="108.3" y="184.7" class="st4" width="77.3" height="1.8"/>
					<g>
						<path class="st43" d="M135,200.8c0-0.3-0.1-0.5-0.1-0.8c0,0,0,0,0-0.1c-0.1-0.1-0.1-0.2-0.2-0.4c0-0.1-0.1-0.3-0.2-0.4
							c-0.3-0.4-0.6-0.8-1.1-1.1c-0.5-0.3-1-0.4-1.5-0.4c-0.1,0-0.2,0-0.3,0c0.2-1-0.1-2.2-0.9-2.9c-1.1-1.1-2.9-1.2-4.3-0.4
							c-0.2,0.1-0.3,0.2-0.4,0.3c-0.4-0.4-1-0.8-1.6-0.9c-1-0.3-2.3-0.2-3.2,0.5c-0.1,0.1-0.2,0.1-0.3,0.2c-0.8-0.6-1.8-0.8-2.7-0.5
							c-1.1,0.3-2,1.2-2.3,2.3c-0.1,0.3-0.1,0.6-0.1,1c-0.3-0.1-0.7-0.2-1-0.2c-3.9,0-3.9,6,0,6c0.8,0,1.5-0.3,2-0.7
							c0.1,0,0.1,0.1,0.2,0.1c0.8,0.5,1.7,0.6,2.6,0.4c0.5-0.1,1-0.4,1.4-0.7c0.4,0.3,1,0.5,1.7,0.5c0.5,0,0.9-0.1,1.3-0.3
							c0.1,0.2,0.3,0.5,0.5,0.7c0.4,0.4,0.9,0.7,1.5,0.9c0.2,0.1,0.4,0.1,0.6,0.1c0.7,0.2,1.4,0.2,2.2,0c0.3-0.1,0.7-0.2,1-0.4
							c0,0,0.1,0.1,0.1,0.1c0.5,0.3,1,0.4,1.6,0.4c0.4,0,0.8-0.1,1.1-0.2c0.2,0,0.4-0.1,0.7-0.3l0,0l0.6-0.4c0,0,0,0,0,0
							c0.1-0.1,0.4-0.5,0.5-0.6c0,0,0,0,0-0.1c0.1-0.2,0.2-0.5,0.3-0.7c0,0,0,0,0,0c0-0.1,0-0.3,0.1-0.4
							C134.9,201.2,135,201,135,200.8C135,200.8,135,200.8,135,200.8z"/>
						<polygon class="st25" points="133.8,208.7 112.6,208.7 110.4,201.3 136.1,201.3 						"/>
						<path class="st4" d="M115.3,198.4c-0.2-0.1-0.5,0-0.8,0.1c-0.2,0.1-0.4,0.2-0.6,0.3c-0.4,0.3-0.7,0.6-0.9,1
							c-0.1,0.1-0.1,0.3-0.1,0.4c0,0.1,0.1,0.3,0.2,0.3c0.1,0.1,0.3,0.1,0.4,0.1c0.1,0,0.3-0.1,0.3-0.2c0.1-0.1,0.1-0.2,0.2-0.4
							c0.1-0.1,0.2-0.2,0.3-0.3c0.1-0.1,0.2-0.1,0.3-0.2c0.1-0.1,0.3-0.1,0.4-0.1c0,0-0.1,0-0.1,0c0.1,0,0.2,0,0.4-0.1
							c0.2-0.1,0.3-0.3,0.2-0.5C115.7,198.6,115.5,198.4,115.3,198.4z"/>
						<path class="st4" d="M136.1,201.3h-25.7c0,0,5.9,2.4,12,2.4C130.6,203.7,136.1,201.3,136.1,201.3z"/>
						<path class="st4" d="M125.3,196.3c-0.1-0.1-0.1-0.2-0.2-0.2c-0.1-0.1-0.2-0.2-0.3-0.3c-0.2-0.2-0.5-0.4-0.8-0.5
							c-0.5-0.2-1.1-0.2-1.6,0c-0.2,0.1-0.3,0.3-0.3,0.5c0.1,0.2,0.3,0.3,0.5,0.3c0,0,0.1,0,0.1,0c0,0,0,0,0,0c0.1,0,0.1,0,0.2,0
							c0,0,0,0,0.1,0c0,0,0,0,0,0c0,0,0.1,0,0.1,0c0,0,0.1,0,0.1,0c0.1,0,0.2,0.1,0.3,0.1c0,0,0,0,0,0c0,0,0,0,0.1,0
							c0.1,0,0.1,0.1,0.1,0.1c0.1,0.1,0.2,0.1,0.3,0.2c0,0,0,0,0.1,0c0,0,0.1,0.1,0.1,0.1c0,0,0.1,0.1,0.1,0.1c0,0,0.1,0.2,0,0
							c0.1,0.2,0.2,0.3,0.4,0.4c0.3,0.2,0.8-0.1,0.8-0.5C125.4,196.5,125.4,196.4,125.3,196.3z"/>
						<path class="st4" d="M120.9,195.3c-1,0-1,1.6,0,1.6C121.9,196.9,121.9,195.3,120.9,195.3z"/>
						<g>
							<path class="st4" d="M129,196.2C129.1,196.2,129.1,196.3,129,196.2C129.1,196.2,129,196.2,129,196.2
								C129,196.2,129,196.2,129,196.2z"/>
							<path class="st4" d="M130.3,195.9c-0.2-0.2-0.4-0.4-0.6-0.5c-0.5-0.3-1.1-0.4-1.7-0.2c-0.2,0.1-0.4,0.3-0.3,0.5
								c0.1,0.2,0.3,0.3,0.5,0.3c0,0,0,0,0,0c0,0,0.1,0,0.1,0c0.1,0,0.1,0,0.2,0c0,0,0,0,0,0c0,0,0,0,0,0c0,0,0.1,0,0.1,0
								c0,0,0.1,0,0.1,0c0,0,0.1,0,0.1,0c0,0,0,0,0.1,0c0,0,0.1,0.1,0.1,0.1c0,0,0,0,0.1,0c0,0,0,0,0,0c0,0,0,0,0,0c0,0,0,0,0,0
								c0,0,0,0,0,0c0.1,0.1,0.1,0.1,0.2,0.2c0,0,0,0,0,0c0,0,0.1,0.1,0.1,0.1c0,0,0.1,0.1,0.1,0.1c0,0,0,0,0,0.1c0,0,0,0.1,0,0.1
								c0,0.1,0,0.1,0.1,0.2c0,0,0.1,0.1,0,0c0.1,0.3,0.3,0.4,0.6,0.4c0.3,0,0.5-0.3,0.5-0.5C130.7,196.6,130.5,196.2,130.3,195.9z"
								/>
							<path class="st4" d="M128.4,196C128.5,196,128.4,196,128.4,196L128.4,196z"/>
						</g>
						<path class="st4" d="M133.7,199.6c-0.2-0.2-0.4-0.5-0.6-0.6c-0.1-0.1-0.2-0.1-0.3-0.2c-0.1-0.1-0.2-0.1-0.3-0.1
							c-0.1,0-0.1,0-0.2-0.1c-0.1,0-0.2,0-0.4,0c0,0-0.1,0-0.1,0c-0.2,0.1-0.4,0.3-0.4,0.6c0,0.2,0.2,0.5,0.4,0.6c0,0,0.1,0,0.1,0
							c0.1,0,0.1,0,0.2,0c0.1,0,0.1,0,0.2,0.1c0.1,0,0.1,0,0.2,0.1c0.2,0.1,0.3,0.2,0.5,0.3c0,0,0,0,0,0c0.1,0.1,0.2,0.1,0.3,0.1
							c0.1,0,0.2,0,0.3-0.1C133.9,200.1,133.9,199.8,133.7,199.6z"/>
					</g>
					<g>
						<path class="st43" d="M183.3,200.8c0-0.3-0.1-0.5-0.1-0.8c0,0,0,0,0-0.1c-0.1-0.1-0.1-0.2-0.2-0.4c0-0.1-0.1-0.3-0.2-0.4
							c-0.3-0.4-0.6-0.8-1.1-1.1c-0.5-0.3-1-0.4-1.5-0.4c-0.1,0-0.2,0-0.3,0c0.2-1-0.1-2.2-0.9-2.9c-1.1-1.1-2.9-1.2-4.3-0.4
							c-0.2,0.1-0.3,0.2-0.4,0.3c-0.4-0.4-1-0.8-1.6-0.9c-1-0.3-2.3-0.2-3.2,0.5c-0.1,0.1-0.2,0.1-0.3,0.2c-0.8-0.6-1.8-0.8-2.7-0.5
							c-1.1,0.3-2,1.2-2.3,2.3c-0.1,0.3-0.1,0.6-0.1,1c-0.3-0.1-0.7-0.2-1-0.2c-3.9,0-3.9,6,0,6c0.8,0,1.5-0.3,2-0.7
							c0.1,0,0.1,0.1,0.2,0.1c0.8,0.5,1.7,0.6,2.6,0.4c0.5-0.1,1-0.4,1.4-0.7c0.4,0.3,1,0.5,1.7,0.5c0.5,0,0.9-0.1,1.3-0.3
							c0.1,0.2,0.3,0.5,0.5,0.7c0.4,0.4,0.9,0.7,1.5,0.9c0.2,0.1,0.4,0.1,0.6,0.1c0.7,0.2,1.4,0.2,2.2,0c0.3-0.1,0.7-0.2,1-0.4
							c0,0,0.1,0.1,0.1,0.1c0.5,0.3,1,0.4,1.6,0.4c0.4,0,0.8-0.1,1.1-0.2c0.2,0,0.4-0.1,0.7-0.3l0,0l0.6-0.4c0,0,0,0,0,0
							c0.1-0.1,0.4-0.5,0.5-0.6c0,0,0,0,0-0.1c0.1-0.2,0.2-0.5,0.3-0.7c0,0,0,0,0,0c0-0.1,0-0.3,0.1-0.4
							C183.3,201.2,183.3,201,183.3,200.8C183.3,200.8,183.3,200.8,183.3,200.8z"/>
						<polygon class="st25" points="182.1,208.7 160.9,208.7 158.7,201.3 184.4,201.3 						"/>
						<path class="st4" d="M163.8,198.1c-0.2,0-0.3,0.1-0.5,0.1c0,0-0.1,0-0.1,0c-0.2,0-0.4,0.1-0.6,0.2c-0.1,0.1-0.2,0.1-0.3,0.2
							c-0.1,0-0.1,0.1-0.2,0.2c-0.1,0.1-0.3,0.3-0.4,0.5c-0.1,0.1-0.1,0.3-0.1,0.4c0,0.1,0.1,0.2,0.2,0.3c0.2,0.2,0.6,0.2,0.7,0
							c0.1-0.1,0.1-0.1,0.2-0.2c0,0,0.1,0,0.1-0.1c0.1-0.1,0.3-0.1,0.5-0.1c0.1,0.1,0.2,0.1,0.4,0.1
							C164.8,199.7,164.8,198.1,163.8,198.1z"/>
						<path class="st4" d="M167.9,195.3c-0.3-0.2-0.6-0.1-0.9-0.1c-0.2,0-0.4,0.1-0.6,0.2c-0.4,0.2-0.7,0.5-0.9,0.8
							c-0.1,0.1-0.1,0.3-0.1,0.5c0,0.1,0.1,0.3,0.3,0.4c0.1,0.1,0.3,0.1,0.5,0.1l0.1-0.1c0.1,0,0.1-0.1,0.2-0.1
							c0.1-0.1,0.1-0.2,0.2-0.2c0.1-0.1,0.2-0.1,0.2-0.1c0.1,0,0.2-0.1,0.3-0.1c0,0,0.1,0,0.1,0c0.1,0,0.2,0,0.4,0
							c0.1,0,0.2-0.1,0.3-0.2c0.1-0.1,0.1-0.2,0.2-0.3C168.2,195.6,168.1,195.4,167.9,195.3z"/>
						<path class="st4" d="M170.7,194.6c-1,0-1,1.6,0,1.6C171.7,196.2,171.7,194.6,170.7,194.6z"/>
						<path class="st4" d="M178.1,196c-0.1-0.1-0.1-0.2-0.3-0.3c-0.1-0.1-0.2-0.2-0.3-0.2c-0.2-0.1-0.4-0.2-0.6-0.3
							c-0.2-0.1-0.4-0.1-0.7-0.1c-0.3,0-0.5,0.1-0.8,0.2c-0.1,0.1-0.2,0.2-0.3,0.3c0,0.1,0,0.2,0,0.4c0.1,0.2,0.4,0.4,0.7,0.3
							c0.1,0,0.2,0,0.2-0.1c0.1,0,0.2,0,0.2,0c0.1,0,0.1,0,0.2,0.1c0.1,0,0.1,0.1,0.2,0.1c0,0,0.1,0.1,0.1,0.1
							c0.1,0.1,0.1,0.1,0.2,0.2c0.2,0.2,0.6,0.2,0.8,0C178.2,196.6,178.3,196.3,178.1,196z"/>
						<path class="st4" d="M179.7,198.1c-1,0-1,1.6,0,1.6C180.8,199.7,180.8,198.1,179.7,198.1z"/>
						<path class="st4" d="M184.4,201.3h-25.7c0,0,5.9,2.4,12,2.4C178.9,203.7,184.4,201.3,184.4,201.3z"/>
					</g>
					<g class="st44">
						<rect x="118.3" y="182.4" class="st5" width="58.9" height="1.3"/>
						<g>
							<path class="st25" d="M135.1,181.6h-11.3c-0.3,0-0.6-0.3-0.6-0.6v-2.5c0-1.6,1.3-2.8,2.8-2.8h6.9c1.6,0,2.8,1.3,2.8,2.8v2.5
								C135.7,181.3,135.4,181.6,135.1,181.6z"/>
							<g>
								<rect x="124.7" y="180.8" class="st25" width="0.8" height="4"/>
								<rect x="133.3" y="180.8" class="st25" width="0.8" height="4"/>
							</g>
						</g>
						<g>
							<path class="st25" d="M153.8,181.6h-11.3c-0.3,0-0.6-0.3-0.6-0.6v-2.5c0-1.6,1.3-2.8,2.8-2.8h6.9c1.6,0,2.8,1.3,2.8,2.8v2.5
								C154.4,181.3,154.2,181.6,153.8,181.6z"/>
							<g>
								<rect x="143.5" y="180.8" class="st25" width="0.8" height="4"/>
								<rect x="152" y="180.8" class="st25" width="0.8" height="4"/>
							</g>
						</g>
						<g>
							<path class="st25" d="M172.6,181.6h-11.3c-0.3,0-0.6-0.3-0.6-0.6v-2.5c0-1.6,1.3-2.8,2.8-2.8h6.9c1.6,0,2.8,1.3,2.8,2.8v2.5
								C173.2,181.3,172.9,181.6,172.6,181.6z"/>
							<g>
								<rect x="162.2" y="180.8" class="st25" width="0.8" height="4"/>
								<rect x="170.8" y="180.8" class="st25" width="0.8" height="4"/>
							</g>
						</g>
					</g>
				</g>
				<text transform="matrix(1 0 0 1 77.9616 165.4357)"><tspan x="0" y="0" class="st4 st45 st46">Follower</tspan><tspan x="1.8" y="5.9" class="st4 st45 st46">BÖRSE</tspan></text>
				<g>
					<g>
						<path class="st2" d="M53.8,120l-3.1,3.1l0.3,3.5c0,0.5-0.4,1-0.9,0.9l-3.3-0.4l-3.1,3.1c-1.4,1.4-3.6,1.4-5,0l-5.3-5.3
							c-1.4-1.4-1.4-3.6,0-5l10.1-10.1c1.4-1.4,3.6-1.4,5,0l5.3,5.3C55.2,116.3,55.2,118.6,53.8,120z"/>
					</g>
					<g>
						<circle class="st5" cx="42.1" cy="118.4" r="2.8"/>
						<path class="st5" d="M49.9,119.3c-1.4-1-3.5-0.9-4.8,0.4l-1.7,1.7c-1.3,1.3-1.4,3.3-0.4,4.8L49.9,119.3z"/>
					</g>
				</g>
				<g>
					<g>
						<path class="st2" d="M84.9,89l-4.3,0.9l-1.6,3c-0.2,0.5-0.9,0.6-1.3,0.2l-2.5-2.2l-4.3,0.8c-1.9,0.4-3.8-0.9-4.2-2.8l-1.4-7.3
							c-0.4-1.9,0.9-3.8,2.8-4.2l14.1-2.8c1.9-0.4,3.8,0.9,4.2,2.8l1.4,7.3C88.1,86.8,86.8,88.6,84.9,89z"/>
					</g>
					<g>
						<circle class="st5" cx="76" cy="81.1" r="2.8"/>
						<path class="st5" d="M82,86.3c-0.6-1.7-2.4-2.7-4.2-2.3l-2.4,0.5c-1.8,0.4-3,2-3,3.7L82,86.3z"/>
					</g>
				</g>
				<g>
					<g>
						<path class="st2" d="M134.7,101.4l-4-1.9l-3.1,1.5c-0.5,0.2-1-0.1-1.1-0.6l-0.7-3.3l-3.9-1.9c-1.8-0.8-2.5-3-1.7-4.7l3.2-6.7
							c0.8-1.8,3-2.5,4.7-1.7l12.9,6.2c1.8,0.8,2.5,3,1.7,4.7l-3.2,6.7C138.6,101.5,136.5,102.3,134.7,101.4z"/>
					</g>
					<g>
						<circle class="st5" cx="132.3" cy="89.9" r="2.8"/>
						<path class="st5" d="M134,97.5c0.5-1.7-0.3-3.6-1.9-4.4l-2.2-1c-1.7-0.8-3.6-0.2-4.6,1.2L134,97.5z"/>
					</g>
				</g>
				<g>
					<g>
						<path class="st2" d="M187.8,96.1l-4.3-1.1l-2.8,2c-0.4,0.3-1,0.1-1.2-0.3l-1.3-3.1l-4.2-1.1c-1.9-0.5-3-2.4-2.5-4.3l1.9-7.2
							c0.5-1.9,2.4-3,4.3-2.5l13.9,3.6c1.9,0.5,3,2.4,2.5,4.3l-1.9,7.2C191.7,95.4,189.7,96.6,187.8,96.1z"/>
					</g>
					<g>
						<circle class="st5" cx="183.3" cy="85.1" r="2.8"/>
						<path class="st5" d="M186.4,92.4c0.2-1.8-0.9-3.4-2.7-3.9l-2.3-0.6c-1.8-0.5-3.6,0.5-4.3,2.1L186.4,92.4z"/>
					</g>
				</g>
				<g>
					<circle class="st2" cx="43.6" cy="171.4" r="15.2"/>
					<g>
						<path class="st5" d="M52.7,164.6c0.6,1.4,0.7,3,0.5,4.5c-0.3,2-1.1,3.9-1.9,5.8c-1,2.3-2,4.6-3.1,6.9
							c-2.4-0.8-4.8-1.6-7.2-2.4c-1.9-0.6-3.9-1.3-5.6-2.4c-1.3-0.9-2.4-2-3-3.4c-0.7-1.4-0.9-3-0.3-4.5c0.3-1,1-1.8,1.8-2.4
							c1.4-1.2,3.3-1.7,5.1-1.3c1,0.3,2,0.9,2.7,1.7c-0.1-1.1,0.1-2.2,0.6-3.2c0.9-1.6,2.6-2.7,4.4-3c1-0.2,2-0.1,3,0.3
							C51,162,52.1,163.2,52.7,164.6z"/>
					</g>
				</g>
				<g>
					<circle class="st2" cx="152" cy="130.1" r="15.2"/>
					<g>
						<path class="st5" d="M160.9,123c0.7,1.4,0.8,3,0.7,4.5c-0.2,2-0.9,4-1.7,5.8c-0.9,2.4-1.8,4.7-2.8,7.1
							c-2.4-0.7-4.9-1.4-7.3-2.1c-1.9-0.5-3.9-1.1-5.7-2.2c-1.3-0.8-2.4-1.9-3.2-3.3c-0.7-1.4-1-3-0.5-4.4c0.3-1,0.9-1.8,1.6-2.5
							c1.4-1.2,3.2-1.9,5.1-1.5c1.1,0.2,2.1,0.8,2.8,1.6c-0.2-1.1,0-2.2,0.4-3.2c0.8-1.7,2.5-2.8,4.2-3.2c1-0.2,2-0.2,3,0.2
							C159.1,120.4,160.2,121.6,160.9,123z"/>
					</g>
				</g>
				<g>
					<circle class="st2" cx="208.2" cy="114.9" r="15.2"/>
					<g>
						<path class="st5" d="M219.4,116.7c-0.6,1.4-1.7,2.6-2.9,3.5c-1.6,1.2-3.6,2-5.5,2.7c-2.4,0.9-4.7,1.8-7.1,2.7
							c-1.1-2.3-2.2-4.5-3.4-6.8c-0.9-1.8-1.8-3.7-2.2-5.7c-0.3-1.5-0.2-3.1,0.3-4.5c0.5-1.4,1.6-2.7,2.9-3.4c0.9-0.4,2-0.5,2.9-0.4
							c1.8,0.2,3.6,1.2,4.5,2.8c0.5,0.9,0.8,2.1,0.7,3.2c0.7-0.9,1.6-1.5,2.7-1.8c1.8-0.5,3.7,0,5.2,1c0.8,0.6,1.5,1.4,1.9,2.3
							C220.2,113.7,220,115.3,219.4,116.7z"/>
					</g>
				</g>
				<g>
					<circle class="st2" cx="204.4" cy="151.8" r="15.2"/>
					<g>
						<path class="st5" d="M215.6,153.6c-0.6,1.4-1.7,2.6-2.9,3.5c-1.6,1.2-3.6,2-5.5,2.7c-2.4,0.9-4.7,1.8-7.1,2.7
							c-1.1-2.3-2.2-4.5-3.4-6.8c-0.9-1.8-1.8-3.7-2.2-5.7c-0.3-1.5-0.2-3.1,0.3-4.5c0.5-1.4,1.6-2.7,2.9-3.4c0.9-0.4,2-0.5,2.9-0.4
							c1.8,0.2,3.6,1.2,4.5,2.8c0.5,0.9,0.8,2.1,0.7,3.2c0.7-0.9,1.6-1.5,2.7-1.8c1.8-0.5,3.7,0,5.2,1c0.8,0.6,1.5,1.4,1.9,2.3
							C216.3,150.5,216.2,152.1,215.6,153.6z"/>
					</g>
				</g>
			</g>
			<g>
				<g>
					<g>
						<g>
							
								<text id="Follower_BÖRSE_00000127021180385914222640000003566745006003566764_" transform="matrix(1 -3.280015e-03 3.280015e-03 1 80.3412 632.379)" class="st19"><tspan x="0" y="0" class="st20 st21 st22">We Are</tspan><tspan x="-3.1" y="5.6" class="st20 st23 st24">OPEN</tspan></text>
						</g>
					</g>
				</g>
			</g>
		</g>
	</g>
	<g id="Text">
		<text transform="matrix(1 0 0 1 283.1579 216.1672)" class="st47 st48 st49">Follower-Börse</text>
		<g>
			<path class="st4" d="M317.3,90.7v39.7h50.3V147h-50.3v69.1h-19.5V73.1h88.4v17.6H317.3z"/>
			<path class="st4" d="M394.5,163.6c0-16.1,4.3-29.2,13-39.1c8.7-9.9,20.1-14.9,34.3-14.9c15,0,26.6,4.8,34.9,14.3
				c8.3,9.5,12.4,22.8,12.4,39.7c0,16.9-4.2,30.2-12.7,39.9c-8.5,9.7-20,14.6-34.6,14.6c-14.9,0-26.5-4.9-34.9-14.7
				C398.7,193.5,394.5,180.3,394.5,163.6z M414,163.6c0,26.2,9.3,39.4,27.8,39.4c8.7,0,15.4-3.5,20.4-10.5c4.9-7,7.4-16.6,7.4-28.8
				c0-25.9-9.2-38.9-27.7-38.9c-8.5,0-15.2,3.5-20.3,10.4C416.5,142,414,151.5,414,163.6z"/>
			<path class="st4" d="M510.1,186.6V68.7h18.6v114.7c0,5.6,1.6,10,4.8,13.2s7.4,4.8,12.6,4.8v16.6
				C522.1,218.1,510.1,207.6,510.1,186.6z"/>
			<path class="st4" d="M569.1,186.6V68.7h18.6v114.7c0,5.6,1.6,10,4.8,13.2s7.4,4.8,12.6,4.8v16.6
				C581.1,218.1,569.1,207.6,569.1,186.6z"/>
			<path class="st4" d="M619.8,163.6c0-16.1,4.3-29.2,13-39.1c8.7-9.9,20.1-14.9,34.3-14.9c15,0,26.6,4.8,34.9,14.3
				c8.3,9.5,12.4,22.8,12.4,39.7c0,16.9-4.2,30.2-12.7,39.9c-8.5,9.7-20,14.6-34.6,14.6c-14.9,0-26.5-4.9-34.9-14.7
				C623.9,193.5,619.8,180.3,619.8,163.6z M639.3,163.6c0,26.2,9.3,39.4,27.8,39.4c8.7,0,15.4-3.5,20.4-10.5
				c4.9-7,7.4-16.6,7.4-28.8c0-25.9-9.2-38.9-27.7-38.9c-8.5,0-15.2,3.5-20.3,10.4C641.8,142,639.3,151.5,639.3,163.6z"/>
			<path class="st4" d="M830.6,218.1h-4.9l-30.7-71.2l-30.6,71.2h-4.9l-37.4-106.8H742l22.4,68.7l27.8-68.7h4.9l28.7,68.7l24-68.7
				h18.3L830.6,218.1z"/>
			<path class="st4" d="M970.9,165.7h-75.4c0,12.2,3.4,21.6,10.1,28.2c5.9,5.7,13.5,8.6,22.9,8.6c10.6,0,19.5-3.1,26.6-9.3l7.8,13.4
				c-2.9,2.9-7.3,5.3-13.2,7.4c-7.4,2.7-15.7,4.1-24.8,4.1c-13.2,0-24.3-4.5-33.5-13.4c-10.2-9.8-15.3-23-15.3-39.6
				c0-17.3,5.2-31.1,15.7-41.5c9.4-9.3,20.5-14,33.3-14c14.9,0,26.6,4.2,35.1,12.6c8.2,8.1,12.3,18.8,12.3,32.1
				C972.3,158.5,971.8,162.2,970.9,165.7z M925.8,125.2c-8.3,0-15.2,2.7-20.8,8c-5.3,5.1-8.4,11.4-9.1,18.9h57.9
				c0-7.5-2.3-13.7-7-18.8C941.7,128,934.7,125.2,925.8,125.2z"/>
			<path class="st4" d="M1048.7,129.4c-4-2.8-8.1-4.2-12.2-4.2c-6.6,0-12.3,3-17.2,9.1c-4.9,6.1-7.4,13.3-7.4,21.9v60h-18.6V111.6
				h18.6v16.7c6.8-12.4,16.8-18.7,30.2-18.7c3.3,0,8.1,0.6,14.4,1.8L1048.7,129.4z"/>
			<path class="st4" d="M1071.9,166.8v-17.1h41.8v17.1H1071.9z"/>
			<path class="st4" d="M1185.3,216.2h-40.8V73.1c17.4-0.8,29.9-1.3,37.6-1.3c14.1,0,25.1,3,32.8,9.1c7.7,6.1,11.6,14.8,11.6,26.1
				c0,6.6-2.5,12.7-7.4,18.2c-4.9,5.5-10.4,8.9-16.4,10.3c11.3,2.7,19.6,7.3,24.8,13.6c5.2,6.3,7.8,14.9,7.8,25.8
				c0,12.6-4.6,22.6-13.8,30.1C1212.2,212.4,1200.1,216.2,1185.3,216.2z M1164,88.7v41.1c4.1,0.4,9.2,0.6,15.2,0.6
				c18.5,0,27.7-7.5,27.7-22.6c0-13.2-8.5-19.8-25.5-19.8C1175,88,1169.2,88.3,1164,88.7z M1164,145v54.6c6.7,0.7,11.8,1,15.4,1
				c12.2,0,21.2-2.3,26.8-6.9c5.6-4.6,8.4-11.9,8.4-21.9c0-9.3-2.7-16.2-8.1-20.6c-5.4-4.4-14.3-6.6-26.9-6.6L1164,145z"/>
			<path class="st4" d="M1249.4,163.6c0-16.1,4.3-29.2,13-39.1c8.7-9.9,20.1-14.9,34.3-14.9c15,0,26.6,4.8,34.9,14.3
				c8.3,9.5,12.4,22.8,12.4,39.7c0,16.9-4.2,30.2-12.7,39.9c-8.5,9.7-20,14.6-34.6,14.6c-14.9,0-26.5-4.9-34.9-14.7
				C1253.5,193.5,1249.4,180.3,1249.4,163.6z M1275.1,68.4c3.1,0,5.6,1.1,7.8,3.2c2.1,2.1,3.2,4.7,3.2,7.8c0,3.1-1.1,5.7-3.2,7.8
				c-2.1,2.1-4.7,3.2-7.8,3.2c-3.1,0-5.7-1.1-7.8-3.2s-3.2-4.8-3.2-7.8c0-3.1,1.1-5.6,3.2-7.8C1269.4,69.5,1272,68.4,1275.1,68.4z
				 M1268.9,163.6c0,26.2,9.3,39.4,27.8,39.4c8.7,0,15.4-3.5,20.4-10.5c4.9-7,7.4-16.6,7.4-28.8c0-25.9-9.2-38.9-27.7-38.9
				c-8.5,0-15.2,3.5-20.3,10.4C1271.4,142,1268.9,151.5,1268.9,163.6z M1321.1,68.4c3.1,0,5.7,1.1,7.8,3.2c2.1,2.1,3.2,4.7,3.2,7.8
				c0,3.1-1.1,5.7-3.2,7.8s-4.8,3.2-7.8,3.2c-3.1,0-5.6-1.1-7.8-3.2c-2.1-2.1-3.2-4.8-3.2-7.8c0-3.1,1.1-5.6,3.2-7.8
				C1315.5,69.5,1318.1,68.4,1321.1,68.4z"/>
			<path class="st4" d="M1420.4,129.4c-4-2.8-8.1-4.2-12.2-4.2c-6.6,0-12.3,3-17.2,9.1c-4.9,6.1-7.4,13.3-7.4,21.9v60H1365V111.6
				h18.6v16.7c6.8-12.4,16.8-18.7,30.2-18.7c3.3,0,8.1,0.6,14.4,1.8L1420.4,129.4z"/>
			<path class="st4" d="M1434.4,209.9l6.5-17.6c10.4,6.8,18.7,10.2,25,10.2c11.5,0,17.2-4.8,17.2-14.5c0-6.9-5.5-12.8-16.6-17.8
				c-8.5-3.9-14.3-6.9-17.2-8.9c-3-2-5.5-4.3-7.7-6.9c-2.2-2.6-3.8-5.3-4.9-8.2c-1.1-2.9-1.6-6-1.6-9.3c0-8.6,3.1-15.3,9.4-20.1
				c6.2-4.8,14.4-7.2,24.5-7.2c7.6,0,17.2,2.4,28.8,7.2l-5.3,17.2c-7.4-5.9-14.7-8.8-22.2-8.8c-4.4,0-8.2,1-11.2,3.1
				c-3,2.1-4.5,4.7-4.5,7.9c0,6.7,3.8,11.8,11.4,15.2l13.3,6.1c8.1,3.7,14.1,7.9,17.8,12.7c3.7,4.8,5.6,10.7,5.6,17.9
				c0,9.4-3.3,16.7-9.9,22c-6.6,5.3-15.7,8-27.3,8C1454.5,218.1,1444.1,215.4,1434.4,209.9z"/>
			<path class="st4" d="M1610.3,165.7h-75.4c0,12.2,3.4,21.6,10.1,28.2c5.9,5.7,13.5,8.6,22.9,8.6c10.6,0,19.5-3.1,26.6-9.3
				l7.8,13.4c-2.9,2.9-7.3,5.3-13.2,7.4c-7.4,2.7-15.7,4.1-24.8,4.1c-13.2,0-24.3-4.5-33.5-13.4c-10.2-9.8-15.3-23-15.3-39.6
				c0-17.3,5.2-31.1,15.7-41.5c9.4-9.3,20.5-14,33.3-14c14.9,0,26.6,4.2,35.1,12.6c8.2,8.1,12.3,18.8,12.3,32.1
				C1611.8,158.5,1611.3,162.2,1610.3,165.7z M1565.3,125.2c-8.3,0-15.2,2.7-20.8,8c-5.3,5.1-8.4,11.4-9.1,18.9h57.9
				c0-7.5-2.3-13.7-7-18.8C1581.1,128,1574.1,125.2,1565.3,125.2z"/>
		</g>
	</g>
</g>
<g id="VERTICAL" class="st19">
	<g id="Layer_3_copy" class="st50">
		<rect x="-11.5" y="517.4" class="st0" width="1743.5" height="293.2"/>
	</g>
	<g id="Layer_5_copy" class="st50">
		<path class="st1" d="M249.7,717.8c0.4-19.1,4.6-38.5,14.1-54.9c1.2-2.1,2.5-4.1,4-6.2c-0.4-3.5-1-6.9-1.7-10.3
			c-5.8-1.6-11-4.2-15.8-7.5C250.1,665.4,249.5,691.7,249.7,717.8z"/>
		<path class="st1" d="M249.7,717.8c0,3.1,0.1,6.1,0.1,9.1C249.7,724,249.6,720.9,249.7,717.8c-0.2-26.2,0.4-52.5,0.6-78.8
			c-22-15.2-33.7-46-33.3-73.7c-24.4-20-55.5-31.9-89.5-31.9c-26.8,0-51.9,7.5-73.3,20.5c25.3,15,56.3,14.4,86.5,18.1
			c42,5,85,32,76,82c-1,2,2,5,2,8c2,18-2,37-14,50c-26,26-66,39-75,75c-2,8,24,9,38,9c14-0.9,28.1-2.5,42.1-6.3
			c35.8-25.7,59.1-67.6,59.1-115c0-6.1-0.4-12-1.1-17.9c-1.5,2-2.9,4-4,6.2C254.3,679.4,250.1,698.7,249.7,717.8z"/>
		<path class="st1" d="M250.3,639c4.8,3.3,10.1,5.9,15.8,7.5c-3.1-15.1-8.5-29.3-15.9-42.2C250.4,615.9,250.4,627.5,250.3,639z"/>
		<path class="st1" d="M217.1,565.3c-0.4,27.7,11.2,58.5,33.3,73.7c0.1-11.6,0.1-23.1-0.1-34.7C241.6,589.4,230.3,576.2,217.1,565.3
			z"/>
		<path class="st2" d="M104.8,783.3c9-36,74-45.3,100-71.3c12-13,16-32,14-50c0-3-3-6-2-8c9-50-34-77-76-82
			c-30.2-3.8-61.3-3.1-86.5-18.1c-40.8,24.8-68.1,69.7-68.1,120.9c0,78.1,63.3,141.4,141.4,141.4c30.7,0,39.8-2.5,63-19.2
			c-14,3.8-8.7-1.8-22.8-1C153.8,796,102.8,791.3,104.8,783.3z"/>
		<polyline class="st2" points="113.8,789.3 710.9,818 710.9,818 119.5,815.9 113.8,789.3 		"/>
	</g>
	<g id="Layer_4_copy" class="st50">
		<g id="Symbol_copy">
			<g>
				<circle class="st3" cx="113.8" cy="664" r="125.3"/>
				<g>
					<polygon class="st4" points="183.8,729.9 43.7,729.9 52.7,724 174.9,724 					"/>
					<rect x="63.9" y="622.3" class="st5" width="100.1" height="4.8"/>
					<rect x="53" y="640.8" class="st5" width="122.2" height="83.3"/>
					<rect x="55.1" y="658.6" class="st6" width="37" height="65.5"/>
					<polygon class="st7" points="175.2,659.2 175.2,640.8 53,640.8 53,653.7 					"/>
					<rect x="56.5" y="660.1" class="st8" width="34.2" height="64"/>
					<rect x="58.2" y="663.5" class="st9" width="30.8" height="57"/>
					<rect x="58.8" y="664.1" class="st10" width="29.5" height="55.8"/>
					<g>
						
							<linearGradient id="SVGID_00000093879981721943333100000016788534681863042234_" gradientUnits="userSpaceOnUse" x1="59.2848" y1="653.309" x2="68.7538" y2="708.8508">
							<stop  offset="0" style="stop-color:#FFFFFF"/>
							<stop  offset="1" style="stop-color:#FFFFFF;stop-opacity:0"/>
						</linearGradient>
						<polygon style="fill:url(#SVGID_00000093879981721943333100000016788534681863042234_);" points="58.8,679.5 58.8,681.7 
							66.4,664.1 65.5,664.1 						"/>
						
							<linearGradient id="SVGID_00000161594419183043696410000015770927456891468986_" gradientUnits="userSpaceOnUse" x1="60.6279" y1="653.0801" x2="70.0968" y2="708.6217">
							<stop  offset="0" style="stop-color:#FFFFFF"/>
							<stop  offset="1" style="stop-color:#FFFFFF;stop-opacity:0"/>
						</linearGradient>
						<polygon style="fill:url(#SVGID_00000161594419183043696410000015770927456891468986_);" points="71,664.1 68.2,664.1 
							58.8,685.8 58.8,692.2 						"/>
						
							<linearGradient id="SVGID_00000000190941107680883200000015526263846660166070_" gradientUnits="userSpaceOnUse" x1="65.376" y1="652.2706" x2="74.845" y2="707.8125">
							<stop  offset="0" style="stop-color:#FFFFFF"/>
							<stop  offset="1" style="stop-color:#FFFFFF;stop-opacity:0"/>
						</linearGradient>
						<polygon style="fill:url(#SVGID_00000000190941107680883200000015526263846660166070_);" points="77.1,664.1 58.8,706.2 
							58.8,719.9 61.3,719.9 85.5,664.1 						"/>
						
							<linearGradient id="SVGID_00000047058912107235711490000005179313946985604780_" gradientUnits="userSpaceOnUse" x1="72.3235" y1="651.0862" x2="81.7925" y2="706.628">
							<stop  offset="0" style="stop-color:#FFFFFF"/>
							<stop  offset="1" style="stop-color:#FFFFFF;stop-opacity:0"/>
						</linearGradient>
						<polygon style="fill:url(#SVGID_00000047058912107235711490000005179313946985604780_);" points="88.3,701.4 88.3,687.4 
							74.2,719.9 80.3,719.9 						"/>
						
							<linearGradient id="SVGID_00000073681222289280818480000005691299277659961534_" gradientUnits="userSpaceOnUse" x1="69.8358" y1="651.5103" x2="79.3047" y2="707.0519">
							<stop  offset="0" style="stop-color:#FFFFFF"/>
							<stop  offset="1" style="stop-color:#FFFFFF;stop-opacity:0"/>
						</linearGradient>
						<polygon style="fill:url(#SVGID_00000073681222289280818480000005691299277659961534_);" points="88.3,674.3 88.3,667.9 
							65.8,719.9 68.5,719.9 						"/>
						
							<linearGradient id="SVGID_00000039113045631120048840000008020837064950579858_" gradientUnits="userSpaceOnUse" x1="74.7534" y1="650.672" x2="84.2223" y2="706.2136">
							<stop  offset="0" style="stop-color:#FFFFFF"/>
							<stop  offset="1" style="stop-color:#FFFFFF;stop-opacity:0"/>
						</linearGradient>
						<polygon style="fill:url(#SVGID_00000039113045631120048840000008020837064950579858_);" points="88.3,708.5 88.3,706.3 
							82.5,719.9 83.4,719.9 						"/>
					</g>
					<g>
						<g>
							<path class="st17" d="M84.2,691.5L63,691.5c-0.6,0-1.2-0.5-1.2-1.2l0-13c0-0.6,0.5-1.2,1.2-1.2l21.2-0.1
								c0.6,0,1.2,0.5,1.2,1.2l0,13C85.3,690.9,84.8,691.5,84.2,691.5z"/>
							<path class="st18" d="M63,690.7c-0.2,0-0.3-0.1-0.3-0.3l0-13c0-0.2,0.1-0.3,0.3-0.3l21.2-0.1c0.2,0,0.3,0.1,0.3,0.3l0,13
								c0,0.2-0.1,0.3-0.3,0.3L63,690.7L63,690.7z"/>
							
								<text id="Follower_BÖRSE_00000158717165526795284220000011174431506986514340_" transform="matrix(1 -3.280015e-03 3.280015e-03 1 66.5448 682.5099)" class="st19"><tspan x="0" y="0" class="st20 st21 st22">We Are</tspan><tspan x="-3.1" y="5.6" class="st20 st23 st24">OPEN</tspan></text>
						</g>
						<polyline class="st18" points="69.5,677 73.1,672.5 76.6,677 						"/>
						<path class="st17" d="M73.8,672.4c0,0.4-0.3,0.7-0.7,0.7c-0.4,0-0.7-0.3-0.7-0.7c0-0.4,0.3-0.7,0.7-0.7
							C73.4,671.7,73.8,672,73.8,672.4z"/>
					</g>
					<path class="st25" d="M58.2,650.7c-3.2,3.2-8.3,3.2-11.4,0c0-2.8,0-5.5,0-8.3c3.8,0,7.6,0,11.4,0
						C58.2,645.2,58.2,647.9,58.2,650.7z"/>
					<path class="st25" d="M181.1,642.4c0,2.8,0,5.5,0,8.3c-3.2,3.2-8.3,3.2-11.4,0c0-2.8,0-5.5,0-8.3
						C173.5,642.4,177.3,642.4,181.1,642.4z"/>
					<polygon class="st4" points="169.7,642.2 156.8,624.8 165.6,624.8 181.1,642.2 181.1,642.4 169.7,642.4 					"/>
					<polygon class="st4" points="62.3,624.8 71.1,624.8 58.2,642.2 58.2,642.4 46.7,642.4 46.7,642.2 					"/>
					<path class="st26" d="M68.4,642.4c0,2.8,0,5.5,0,8.3c-2.8,2.8-7.4,2.8-10.3,0c0-2.8,0-5.5,0-8.3
						C61.6,642.4,65,642.4,68.4,642.4z"/>
					<path class="st26" d="M169.7,642.4c0,2.8,0,5.5,0,8.3c-2.8,2.8-7.4,2.8-10.3,0c0-2.8,0-5.5,0-8.3
						C162.8,642.4,166.2,642.4,169.7,642.4z"/>
					<polygon class="st5" points="68.4,642.4 58.2,642.4 58.2,642.2 71.1,624.8 79,624.8 68.4,642.2 					"/>
					<polygon class="st5" points="169.7,642.4 159.4,642.4 159.4,642.2 148.9,624.8 156.8,624.8 169.7,642.2 					"/>
					<path class="st25" d="M78.5,642.4c0,2.8,0,5.5,0,8.3c-2.8,2.8-7.3,2.8-10,0c0-2.8,0-5.5,0-8.3
						C71.8,642.4,75.1,642.4,78.5,642.4z"/>
					<path class="st25" d="M159.4,642.4c0,2.8,0,5.5,0,8.3c-2.8,2.8-7.3,2.8-10,0c0-2.8,0-5.5,0-8.3
						C152.7,642.4,156.1,642.4,159.4,642.4z"/>
					<polygon class="st4" points="159.4,642.4 149.4,642.4 149.4,642.2 141.2,624.8 148.9,624.8 159.4,642.2 					"/>
					<polygon class="st4" points="78.5,642.4 68.4,642.4 68.4,642.2 79,624.8 86.7,624.8 78.5,642.2 					"/>
					<path class="st26" d="M149.4,642.4c0,2.8,0,5.5,0,8.3c-3,3-8,3-11,0c0-2.8,0-5.5,0-8.3C142,642.4,145.7,642.4,149.4,642.4z"/>
					<path class="st26" d="M89.5,642.4c0,2.8,0,5.5,0,8.3c-3,3-8,3-11,0c0-2.8,0-5.5,0-8.3C82.1,642.4,85.8,642.4,89.5,642.4z"/>
					<polygon class="st5" points="149.4,642.4 138.4,642.4 138.4,642.2 132.7,624.8 141.2,624.8 149.4,642.2 					"/>
					<polygon class="st5" points="89.5,642.4 78.5,642.4 78.5,642.2 86.7,624.8 95.1,624.8 89.5,642.2 					"/>
					<path class="st25" d="M100.3,642.4c0,2.8,0,5.5,0,8.3c-3,3-7.8,3-10.8,0c0-2.8,0-5.5,0-8.3C93.1,642.4,96.7,642.4,100.3,642.4z
						"/>
					<path class="st25" d="M138.4,642.4c0,2.8,0,5.5,0,8.3c-3,3-7.8,3-10.8,0c0-2.8,0-5.5,0-8.3
						C131.2,642.4,134.8,642.4,138.4,642.4z"/>
					<polygon class="st4" points="100.3,642.4 89.5,642.4 89.5,642.2 95.1,624.8 103.4,624.8 100.3,642.2 					"/>
					<polygon class="st4" points="138.4,642.4 127.6,642.4 127.6,642.2 124.4,624.8 132.7,624.8 138.4,642.2 					"/>
					<path class="st26" d="M109.3,642.4c0,2.8,0,5.5,0,8.3c-2.5,2.5-6.5,2.5-9,0c0-2.8,0-5.5,0-8.3
						C103.3,642.4,106.3,642.4,109.3,642.4z"/>
					<path class="st26" d="M127.6,642.4c0,2.8,0,5.5,0,8.3c-2.5,2.5-6.5,2.5-9,0c0-2.8,0-5.5,0-8.3
						C121.6,642.4,124.6,642.4,127.6,642.4z"/>
					<polygon class="st5" points="109.3,642.4 100.3,642.4 100.3,642.2 103.4,624.8 110.3,624.8 109.3,642.2 					"/>
					<polygon class="st5" points="127.6,642.4 118.6,642.4 118.6,642.2 117.5,624.8 124.4,624.8 127.6,642.2 					"/>
					<path class="st25" d="M118.6,642.4c0,2.8,0,5.5,0,8.3c-1.3,1.3-3,1.9-4.6,1.9c-1.7,0-3.4-0.6-4.6-1.9c0-2.8,0-5.5,0-8.3
						C112.4,642.4,115.5,642.4,118.6,642.4z"/>
					<polygon class="st4" points="118.6,642.4 109.3,642.4 109.3,642.2 110.3,624.8 113.9,624.8 117.5,624.8 118.6,642.2 					"/>
					<text transform="matrix(1 0 0 1 108.3551 691.9924)" class="st5 st27 st28">Shop</text>
					<g>
						<text transform="matrix(0.9753 0 0 1 116.214 670.093)" class="st17 st29 st30 st31">BAKERY</text>
					</g>
					
						<linearGradient id="SVGID_00000071552669814867486250000009229004290985112975_" gradientUnits="userSpaceOnUse" x1="67.5625" y1="605.8569" x2="68.3724" y2="622.3247">
						<stop  offset="0" style="stop-color:#FFFFFF"/>
						<stop  offset="1" style="stop-color:#FFFFFF;stop-opacity:0"/>
					</linearGradient>
					<path style="fill:url(#SVGID_00000071552669814867486250000009229004290985112975_);" d="M66.6,609.1c-4.3,0-8,2.6-9.6,6.3
						c-2.2,0.1-4,1.9-4,4.2h30.5c0-3.5-2.9-6.4-6.4-6.4c-0.7,0-1.3,0.1-2,0.3C73.2,610.9,70.1,609.1,66.6,609.1z"/>
					
						<linearGradient id="SVGID_00000129164756620942724250000010763869672572201879_" gradientUnits="userSpaceOnUse" x1="118.6992" y1="574.1572" x2="119.3352" y2="592.9185">
						<stop  offset="0.3078" style="stop-color:#FFFFFF"/>
						<stop  offset="1" style="stop-color:#FFFFFF;stop-opacity:0"/>
					</linearGradient>
					<path style="fill:url(#SVGID_00000129164756620942724250000010763869672572201879_);" d="M116.5,575.7c-7,0-13,4.2-15.6,10.2
						c-2.7,0.1-5,1.9-6,4.2h48.8c-1.2-4.5-5.2-7.8-10.1-7.8c-1.1,0-2.2,0.2-3.2,0.5C127.3,578.5,122.2,575.7,116.5,575.7z"/>
					
						<linearGradient id="SVGID_00000021093772954548970090000016050899246732435086_" gradientUnits="userSpaceOnUse" x1="165.6263" y1="600.0629" x2="164.2765" y2="621.6599">
						<stop  offset="0" style="stop-color:#FFFFFF"/>
						<stop  offset="1" style="stop-color:#FFFFFF;stop-opacity:0"/>
					</linearGradient>
					<path style="fill:url(#SVGID_00000021093772954548970090000016050899246732435086_);" d="M178.8,618.6c0.3-0.6,0.5-1.2,0.5-1.9
						c0-2.2-1.7-3.9-3.8-4c-1.6-3.6-5.1-6.1-9.2-6.1c-3.4,0-6.4,1.7-8.2,4.2c-0.6-0.2-1.2-0.3-1.9-0.3c-3.4,0-6.2,2.8-6.2,6.2
						c0,0.7,0.1,1.3,0.3,1.9H178.8z"/>
					<rect x="95.1" y="660.6" class="st8" width="76.4" height="45.8"/>
					
						<rect x="111.7" y="647.9" transform="matrix(-1.836970e-16 1 -1 -1.836970e-16 816.8788 550.3789)" class="st9" width="43" height="71.5"/>
					<rect x="98.2" y="662.8" class="st10" width="70.2" height="41.7"/>
					<polygon class="st6" points="171.7,706 94.6,706 94.6,710.9 171.7,707 					"/>
					<path class="st35" d="M148.7,726.1"/>
					<path class="st25" d="M61.1,694.5L61.1,694.5c-0.4,0-0.8,0.3-0.8,0.8v1.7c0,0.4,0.3,0.8,0.8,0.8l0,0c0.4,0,0.8-0.3,0.8-0.8
						v-1.7C61.9,694.9,61.5,694.5,61.1,694.5z"/>
					<path class="st25" d="M86.5,694.5L86.5,694.5c-0.4,0-0.8,0.3-0.8,0.8v1.7c0,0.4,0.3,0.8,0.8,0.8l0,0c0.4,0,0.8-0.3,0.8-0.8
						v-1.7C87.3,694.9,87,694.5,86.5,694.5z"/>
					<path class="st5" d="M86.5,696.5H61.6c-0.3,0-0.6-0.3-0.6-0.6l0,0c0-0.3,0.3-0.6,0.6-0.6h24.9c0.3,0,0.6,0.3,0.6,0.6l0,0
						C87.1,696.3,86.8,696.5,86.5,696.5z"/>
					<g>
						
							<linearGradient id="SVGID_00000049194124736374625840000002752700798816703913_" gradientUnits="userSpaceOnUse" x1="127.1248" y1="641.4393" x2="106.6325" y2="689.2079">
							<stop  offset="0" style="stop-color:#FFFFFF"/>
							<stop  offset="1" style="stop-color:#FFFFFF;stop-opacity:0"/>
						</linearGradient>
						<polygon style="fill:url(#SVGID_00000049194124736374625840000002752700798816703913_);" points="121.1,662.8 115,662.8 
							98.2,701.6 98.2,704.5 103,704.5 						"/>
						
							<linearGradient id="SVGID_00000127043474482733587940000012500668015935809159_" gradientUnits="userSpaceOnUse" x1="134.8236" y1="644.7421" x2="114.3312" y2="692.5109">
							<stop  offset="0" style="stop-color:#FFFFFF"/>
							<stop  offset="1" style="stop-color:#FFFFFF;stop-opacity:0"/>
						</linearGradient>
						<polygon style="fill:url(#SVGID_00000127043474482733587940000012500668015935809159_);" points="128.6,662.8 125.8,662.8 
							107.7,704.5 110.5,704.5 						"/>
						
							<linearGradient id="SVGID_00000017482175224553878890000011270352875464572316_" gradientUnits="userSpaceOnUse" x1="118.1826" y1="637.6033" x2="97.6901" y2="685.3719">
							<stop  offset="0" style="stop-color:#FFFFFF"/>
							<stop  offset="1" style="stop-color:#FFFFFF;stop-opacity:0"/>
						</linearGradient>
						<polygon style="fill:url(#SVGID_00000017482175224553878890000011270352875464572316_);" points="98.2,683 98.2,685.2 
							107.9,662.8 107,662.8 						"/>
						
							<linearGradient id="SVGID_00000116209789848550749290000010251429422129607314_" gradientUnits="userSpaceOnUse" x1="147.8315" y1="650.3224" x2="127.339" y2="698.0912">
							<stop  offset="0" style="stop-color:#FFFFFF"/>
							<stop  offset="1" style="stop-color:#FFFFFF;stop-opacity:0"/>
						</linearGradient>
						<polygon style="fill:url(#SVGID_00000116209789848550749290000010251429422129607314_);" points="144,662.8 141.2,662.8 
							123.1,704.5 125.9,704.5 						"/>
						
							<linearGradient id="SVGID_00000012434632551283602000000010820608211978350480_" gradientUnits="userSpaceOnUse" x1="152.9068" y1="652.4996" x2="132.4142" y2="700.2685">
							<stop  offset="0" style="stop-color:#FFFFFF"/>
							<stop  offset="1" style="stop-color:#FFFFFF;stop-opacity:0"/>
						</linearGradient>
						<polygon style="fill:url(#SVGID_00000012434632551283602000000010820608211978350480_);" points="149.1,662.8 148.1,662.8 
							130,704.5 131,704.5 						"/>
						
							<linearGradient id="SVGID_00000119086368418390926530000012151675730304280469_" gradientUnits="userSpaceOnUse" x1="172.3234" y1="660.8293" x2="151.8309" y2="708.5981">
							<stop  offset="0" style="stop-color:#FFFFFF"/>
							<stop  offset="1" style="stop-color:#FFFFFF;stop-opacity:0"/>
						</linearGradient>
						<polygon style="fill:url(#SVGID_00000119086368418390926530000012151675730304280469_);" points="168.3,680.1 168.3,662.8 
							167.4,662.8 149.3,704.5 157.7,704.5 						"/>
					</g>
					<g class="st42">
						<ellipse class="st5" cx="151.7" cy="680.1" rx="2.6" ry="2.4"/>
						<path class="st25" d="M144.9,680.2h13.4c-0.9-2.1-3.6-3.6-6.7-3.6C148.4,676.6,145.8,678.2,144.9,680.2z"/>
						<rect x="150.8" y="674.7" class="st25" width="1.6" height="3"/>
						<rect x="151.3" y="662.9" class="st25" width="0.6" height="12.6"/>
					</g>
					<g class="st42">
						<ellipse class="st5" cx="115.9" cy="680.1" rx="2.6" ry="2.4"/>
						<path class="st25" d="M109.1,680.2h13.4c-0.9-2.1-3.6-3.6-6.7-3.6C112.7,676.6,110,678.2,109.1,680.2z"/>
						<rect x="115.1" y="674.7" class="st25" width="1.6" height="3"/>
						<rect x="115.6" y="662.9" class="st25" width="0.6" height="12.6"/>
					</g>
					<rect x="94.5" y="702.1" class="st25" width="77.3" height="4.4"/>
					<rect x="94.5" y="702.1" class="st4" width="77.3" height="1.8"/>
					<g>
						<path class="st43" d="M121.2,718.2c0-0.3-0.1-0.5-0.1-0.8c0,0,0,0,0-0.1c-0.1-0.1-0.1-0.2-0.2-0.4c0-0.1-0.1-0.3-0.2-0.4
							c-0.3-0.4-0.6-0.8-1.1-1.1c-0.5-0.3-1-0.4-1.5-0.4c-0.1,0-0.2,0-0.3,0c0.2-1-0.1-2.2-0.9-2.9c-1.1-1.1-2.9-1.2-4.3-0.4
							c-0.2,0.1-0.3,0.2-0.4,0.3c-0.4-0.4-1-0.8-1.6-0.9c-1-0.3-2.3-0.2-3.2,0.5c-0.1,0.1-0.2,0.1-0.3,0.2c-0.8-0.6-1.8-0.8-2.7-0.5
							c-1.1,0.3-2,1.2-2.3,2.3c-0.1,0.3-0.1,0.6-0.1,1c-0.3-0.1-0.7-0.2-1-0.2c-3.9,0-3.9,6,0,6c0.8,0,1.5-0.3,2-0.7
							c0.1,0,0.1,0.1,0.2,0.1c0.8,0.5,1.7,0.6,2.6,0.4c0.5-0.1,1-0.4,1.4-0.7c0.4,0.3,1,0.5,1.7,0.5c0.5,0,0.9-0.1,1.3-0.3
							c0.1,0.2,0.3,0.5,0.5,0.7c0.4,0.4,0.9,0.7,1.5,0.9c0.2,0.1,0.4,0.1,0.6,0.1c0.7,0.2,1.4,0.2,2.2,0c0.3-0.1,0.7-0.2,1-0.4
							c0,0,0.1,0.1,0.1,0.1c0.5,0.3,1,0.4,1.6,0.4c0.4,0,0.8-0.1,1.1-0.2c0.2,0,0.4-0.1,0.7-0.3l0,0l0.6-0.4c0,0,0,0,0,0
							c0.1-0.1,0.4-0.5,0.5-0.6c0,0,0,0,0-0.1c0.1-0.2,0.2-0.5,0.3-0.7c0,0,0,0,0,0c0-0.1,0-0.3,0.1-0.4
							C121.1,718.6,121.2,718.3,121.2,718.2C121.2,718.2,121.2,718.2,121.2,718.2z"/>
						<polygon class="st25" points="120,726 98.8,726 96.6,718.7 122.3,718.7 						"/>
						<path class="st4" d="M101.5,715.7c-0.2-0.1-0.5,0-0.8,0.1c-0.2,0.1-0.4,0.2-0.6,0.3c-0.4,0.3-0.7,0.6-0.9,1
							c-0.1,0.1-0.1,0.3-0.1,0.4c0,0.1,0.1,0.3,0.2,0.3c0.1,0.1,0.3,0.1,0.4,0.1c0.1,0,0.3-0.1,0.3-0.2c0.1-0.1,0.1-0.2,0.2-0.4
							c0.1-0.1,0.2-0.2,0.3-0.3c0.1-0.1,0.2-0.1,0.3-0.2c0.1-0.1,0.3-0.1,0.4-0.1c0,0-0.1,0-0.1,0c0.1,0,0.2,0,0.4-0.1
							c0.2-0.1,0.3-0.3,0.2-0.5C101.9,715.9,101.7,715.8,101.5,715.7z"/>
						<path class="st4" d="M122.3,718.7H96.6c0,0,5.9,2.4,12,2.4C116.8,721.1,122.3,718.7,122.3,718.7z"/>
						<path class="st4" d="M111.5,713.6c-0.1-0.1-0.1-0.2-0.2-0.2c-0.1-0.1-0.2-0.2-0.3-0.3c-0.2-0.2-0.5-0.4-0.8-0.5
							c-0.5-0.2-1.1-0.2-1.6,0c-0.2,0.1-0.3,0.3-0.3,0.5c0.1,0.2,0.3,0.3,0.5,0.3c0,0,0.1,0,0.1,0c0,0,0,0,0,0c0.1,0,0.1,0,0.2,0
							c0,0,0,0,0.1,0c0,0,0,0,0,0c0,0,0.1,0,0.1,0c0,0,0.1,0,0.1,0c0.1,0,0.2,0.1,0.3,0.1c0,0,0,0,0,0c0,0,0,0,0.1,0
							c0.1,0,0.1,0.1,0.1,0.1c0.1,0.1,0.2,0.1,0.3,0.2c0,0,0,0,0.1,0c0,0,0.1,0.1,0.1,0.1c0,0,0.1,0.1,0.1,0.1c0,0,0.1,0.2,0,0
							c0.1,0.2,0.2,0.3,0.4,0.4c0.3,0.2,0.8-0.1,0.8-0.5C111.6,713.9,111.6,713.8,111.5,713.6z"/>
						<path class="st4" d="M107.1,712.7c-1,0-1,1.6,0,1.6C108.1,714.2,108.1,712.7,107.1,712.7z"/>
						<g>
							<path class="st4" d="M115.2,713.6C115.3,713.6,115.3,713.6,115.2,713.6C115.3,713.6,115.2,713.6,115.2,713.6
								C115.2,713.6,115.2,713.6,115.2,713.6z"/>
							<path class="st4" d="M116.5,713.3c-0.2-0.2-0.4-0.4-0.6-0.5c-0.5-0.3-1.1-0.4-1.7-0.2c-0.2,0.1-0.4,0.3-0.3,0.5
								c0.1,0.2,0.3,0.3,0.5,0.3c0,0,0,0,0,0c0,0,0.1,0,0.1,0c0.1,0,0.1,0,0.2,0c0,0,0,0,0,0c0,0,0,0,0,0c0,0,0.1,0,0.1,0
								c0,0,0.1,0,0.1,0c0,0,0.1,0,0.1,0c0,0,0,0,0.1,0c0,0,0.1,0.1,0.1,0.1c0,0,0,0,0.1,0c0,0,0,0,0,0c0,0,0,0,0,0c0,0,0,0,0,0
								c0,0,0,0,0,0c0.1,0.1,0.1,0.1,0.2,0.2c0,0,0,0,0,0c0,0,0.1,0.1,0.1,0.1c0,0,0.1,0.1,0.1,0.1c0,0,0,0,0,0.1c0,0,0,0.1,0,0.1
								c0,0.1,0,0.1,0.1,0.2c0,0,0.1,0.1,0,0c0.1,0.3,0.3,0.4,0.6,0.4c0.3,0,0.5-0.3,0.5-0.5C116.9,713.9,116.7,713.6,116.5,713.3z"
								/>
							<path class="st4" d="M114.6,713.3C114.7,713.3,114.6,713.3,114.6,713.3L114.6,713.3z"/>
						</g>
						<path class="st4" d="M119.9,717c-0.2-0.2-0.4-0.5-0.6-0.6c-0.1-0.1-0.2-0.1-0.3-0.2c-0.1-0.1-0.2-0.1-0.3-0.1
							c-0.1,0-0.1,0-0.2-0.1c-0.1,0-0.2,0-0.4,0c0,0-0.1,0-0.1,0c-0.2,0.1-0.4,0.3-0.4,0.6c0,0.2,0.2,0.5,0.4,0.6c0,0,0.1,0,0.1,0
							c0.1,0,0.1,0,0.2,0c0.1,0,0.1,0,0.2,0.1c0.1,0,0.1,0,0.2,0.1c0.2,0.1,0.3,0.2,0.5,0.3c0,0,0,0,0,0c0.1,0.1,0.2,0.1,0.3,0.1
							c0.1,0,0.2,0,0.3-0.1C120.1,717.4,120.1,717.2,119.9,717z"/>
					</g>
					<g>
						<path class="st43" d="M169.5,718.2c0-0.3-0.1-0.5-0.1-0.8c0,0,0,0,0-0.1c-0.1-0.1-0.1-0.2-0.2-0.4c0-0.1-0.1-0.3-0.2-0.4
							c-0.3-0.4-0.6-0.8-1.1-1.1c-0.5-0.3-1-0.4-1.5-0.4c-0.1,0-0.2,0-0.3,0c0.2-1-0.1-2.2-0.9-2.9c-1.1-1.1-2.9-1.2-4.3-0.4
							c-0.2,0.1-0.3,0.2-0.4,0.3c-0.4-0.4-1-0.8-1.6-0.9c-1-0.3-2.3-0.2-3.2,0.5c-0.1,0.1-0.2,0.1-0.3,0.2c-0.8-0.6-1.8-0.8-2.7-0.5
							c-1.1,0.3-2,1.2-2.3,2.3c-0.1,0.3-0.1,0.6-0.1,1c-0.3-0.1-0.7-0.2-1-0.2c-3.9,0-3.9,6,0,6c0.8,0,1.5-0.3,2-0.7
							c0.1,0,0.1,0.1,0.2,0.1c0.8,0.5,1.7,0.6,2.6,0.4c0.5-0.1,1-0.4,1.4-0.7c0.4,0.3,1,0.5,1.7,0.5c0.5,0,0.9-0.1,1.3-0.3
							c0.1,0.2,0.3,0.5,0.5,0.7c0.4,0.4,0.9,0.7,1.5,0.9c0.2,0.1,0.4,0.1,0.6,0.1c0.7,0.2,1.4,0.2,2.2,0c0.3-0.1,0.7-0.2,1-0.4
							c0,0,0.1,0.1,0.1,0.1c0.5,0.3,1,0.4,1.6,0.4c0.4,0,0.8-0.1,1.1-0.2c0.2,0,0.4-0.1,0.7-0.3l0,0l0.6-0.4c0,0,0,0,0,0
							c0.1-0.1,0.4-0.5,0.5-0.6c0,0,0,0,0-0.1c0.1-0.2,0.2-0.5,0.3-0.7c0,0,0,0,0,0c0-0.1,0-0.3,0.1-0.4
							C169.5,718.6,169.5,718.3,169.5,718.2C169.5,718.2,169.5,718.2,169.5,718.2z"/>
						<polygon class="st25" points="168.4,726 147.2,726 144.9,718.7 170.6,718.7 						"/>
						<path class="st4" d="M150,715.5c-0.2,0-0.3,0.1-0.5,0.1c0,0-0.1,0-0.1,0c-0.2,0-0.4,0.1-0.6,0.2c-0.1,0.1-0.2,0.1-0.3,0.2
							c-0.1,0-0.1,0.1-0.2,0.2c-0.1,0.1-0.3,0.3-0.4,0.5c-0.1,0.1-0.1,0.3-0.1,0.4c0,0.1,0.1,0.2,0.2,0.3c0.2,0.2,0.6,0.2,0.7,0
							c0.1-0.1,0.1-0.1,0.2-0.2c0,0,0.1,0,0.1-0.1c0.1-0.1,0.3-0.1,0.5-0.1c0.1,0.1,0.2,0.1,0.4,0.1C151,717.1,151,715.5,150,715.5z
							"/>
						<path class="st4" d="M154.1,712.7c-0.3-0.2-0.6-0.1-0.9-0.1c-0.2,0-0.4,0.1-0.6,0.2c-0.4,0.2-0.7,0.5-0.9,0.8
							c-0.1,0.1-0.1,0.3-0.1,0.5c0,0.1,0.1,0.3,0.3,0.4c0.1,0.1,0.3,0.1,0.5,0.1l0.1-0.1c0.1,0,0.1-0.1,0.2-0.1
							c0.1-0.1,0.1-0.2,0.2-0.2c0.1-0.1,0.2-0.1,0.2-0.1c0.1,0,0.2-0.1,0.3-0.1c0,0,0.1,0,0.1,0c0.1,0,0.2,0,0.4,0
							c0.1,0,0.2-0.1,0.3-0.2c0.1-0.1,0.1-0.2,0.2-0.3C154.4,713,154.3,712.8,154.1,712.7z"/>
						<path class="st4" d="M156.9,712c-1,0-1,1.6,0,1.6C157.9,713.5,157.9,712,156.9,712z"/>
						<path class="st4" d="M164.3,713.3c-0.1-0.1-0.1-0.2-0.3-0.3c-0.1-0.1-0.2-0.2-0.3-0.2c-0.2-0.1-0.4-0.2-0.6-0.3
							c-0.2-0.1-0.4-0.1-0.7-0.1c-0.3,0-0.5,0.1-0.8,0.2c-0.1,0.1-0.2,0.2-0.3,0.3c0,0.1,0,0.2,0,0.4c0.1,0.2,0.4,0.4,0.7,0.3
							c0.1,0,0.2,0,0.2-0.1c0.1,0,0.2,0,0.2,0c0.1,0,0.1,0,0.2,0.1c0.1,0,0.1,0.1,0.2,0.1c0,0,0.1,0.1,0.1,0.1
							c0.1,0.1,0.1,0.1,0.2,0.2c0.2,0.2,0.6,0.2,0.8,0C164.4,714,164.5,713.6,164.3,713.3z"/>
						<path class="st4" d="M165.9,715.5c-1,0-1,1.6,0,1.6C167,717.1,167,715.5,165.9,715.5z"/>
						<path class="st4" d="M170.6,718.7h-25.7c0,0,5.9,2.4,12,2.4C165.1,721.1,170.6,718.7,170.6,718.7z"/>
					</g>
					<g class="st44">
						<rect x="104.5" y="699.8" class="st5" width="58.9" height="1.3"/>
						<g>
							<path class="st25" d="M121.3,699H110c-0.3,0-0.6-0.3-0.6-0.6v-2.5c0-1.6,1.3-2.8,2.8-2.8h6.9c1.6,0,2.8,1.3,2.8,2.8v2.5
								C121.9,698.7,121.7,699,121.3,699z"/>
							<g>
								<rect x="110.9" y="698.2" class="st25" width="0.8" height="4"/>
								<rect x="119.5" y="698.2" class="st25" width="0.8" height="4"/>
							</g>
						</g>
						<g>
							<path class="st25" d="M140,699h-11.3c-0.3,0-0.6-0.3-0.6-0.6v-2.5c0-1.6,1.3-2.8,2.8-2.8h6.9c1.6,0,2.8,1.3,2.8,2.8v2.5
								C140.7,698.7,140.4,699,140,699z"/>
							<g>
								<rect x="129.7" y="698.2" class="st25" width="0.8" height="4"/>
								<rect x="138.2" y="698.2" class="st25" width="0.8" height="4"/>
							</g>
						</g>
						<g>
							<path class="st25" d="M158.8,699h-11.3c-0.3,0-0.6-0.3-0.6-0.6v-2.5c0-1.6,1.3-2.8,2.8-2.8h6.9c1.6,0,2.8,1.3,2.8,2.8v2.5
								C159.4,698.7,159.1,699,158.8,699z"/>
							<g>
								<rect x="148.4" y="698.2" class="st25" width="0.8" height="4"/>
								<rect x="157" y="698.2" class="st25" width="0.8" height="4"/>
							</g>
						</g>
					</g>
				</g>
				<text transform="matrix(1 0 0 1 64.1652 682.801)"><tspan x="0" y="0" class="st4 st45 st46">Follower</tspan><tspan x="1.8" y="5.9" class="st4 st45 st46">BÖRSE</tspan></text>
				<g>
					<g>
						<path class="st2" d="M40,637.3l-3.1,3.1l0.3,3.5c0,0.5-0.4,1-0.9,0.9l-3.3-0.4l-3.1,3.1c-1.4,1.4-3.6,1.4-5,0l-5.3-5.3
							c-1.4-1.4-1.4-3.6,0-5L29.7,627c1.4-1.4,3.6-1.4,5,0l5.3,5.3C41.4,633.7,41.4,635.9,40,637.3z"/>
					</g>
					<g>
						<circle class="st5" cx="28.3" cy="635.7" r="2.8"/>
						<path class="st5" d="M36.1,636.7c-1.4-1-3.5-0.9-4.8,0.4l-1.7,1.7c-1.3,1.3-1.4,3.3-0.4,4.8L36.1,636.7z"/>
					</g>
				</g>
				<g>
					<g>
						<path class="st2" d="M71.1,606.4l-4.3,0.9l-1.6,3c-0.2,0.5-0.9,0.6-1.3,0.2l-2.5-2.2l-4.3,0.8c-1.9,0.4-3.8-0.9-4.2-2.8
							l-1.4-7.3c-0.4-1.9,0.9-3.8,2.8-4.2l14.1-2.8c1.9-0.4,3.8,0.9,4.2,2.8l1.4,7.3C74.3,604.1,73,606,71.1,606.4z"/>
					</g>
					<g>
						<circle class="st5" cx="62.2" cy="598.5" r="2.8"/>
						<path class="st5" d="M68.2,603.7c-0.6-1.7-2.4-2.7-4.2-2.3l-2.4,0.5c-1.8,0.4-3,2-3,3.7L68.2,603.7z"/>
					</g>
				</g>
				<g>
					<g>
						<path class="st2" d="M120.9,618.8l-4-1.9l-3.1,1.5c-0.5,0.2-1-0.1-1.1-0.6l-0.7-3.3l-3.9-1.9c-1.8-0.8-2.5-3-1.7-4.7l3.2-6.7
							c0.8-1.8,3-2.5,4.7-1.7l12.9,6.2c1.8,0.8,2.5,3,1.7,4.7l-3.2,6.7C124.8,618.9,122.7,619.7,120.9,618.8z"/>
					</g>
					<g>
						<circle class="st5" cx="118.5" cy="607.2" r="2.8"/>
						<path class="st5" d="M120.2,614.9c0.5-1.7-0.3-3.6-1.9-4.4l-2.2-1c-1.7-0.8-3.6-0.2-4.6,1.2L120.2,614.9z"/>
					</g>
				</g>
				<g>
					<g>
						<path class="st2" d="M174,613.4l-4.3-1.1l-2.8,2c-0.4,0.3-1,0.1-1.2-0.3l-1.3-3.1l-4.2-1.1c-1.9-0.5-3-2.4-2.5-4.3l1.9-7.2
							c0.5-1.9,2.4-3,4.3-2.5l13.9,3.6c1.9,0.5,3,2.4,2.5,4.3l-1.9,7.2C177.9,612.8,175.9,613.9,174,613.4z"/>
					</g>
					<g>
						<circle class="st5" cx="169.5" cy="602.5" r="2.8"/>
						<path class="st5" d="M172.6,609.8c0.2-1.8-0.9-3.4-2.7-3.9l-2.3-0.6c-1.8-0.5-3.6,0.5-4.3,2.1L172.6,609.8z"/>
					</g>
				</g>
				<g>
					<circle class="st2" cx="29.8" cy="688.7" r="15.2"/>
					<g>
						<path class="st5" d="M38.9,682c0.6,1.4,0.7,3,0.5,4.5c-0.3,2-1.1,3.9-1.9,5.8c-1,2.3-2,4.6-3.1,6.9c-2.4-0.8-4.8-1.6-7.2-2.4
							c-1.9-0.6-3.9-1.3-5.6-2.4c-1.3-0.9-2.4-2-3-3.4s-0.9-3-0.3-4.5c0.3-1,1-1.8,1.8-2.4c1.4-1.2,3.3-1.7,5.1-1.3
							c1,0.3,2,0.9,2.7,1.7c-0.1-1.1,0.1-2.2,0.6-3.2c0.9-1.6,2.6-2.7,4.4-3c1-0.2,2-0.1,3,0.3C37.2,679.3,38.3,680.6,38.9,682z"/>
					</g>
				</g>
				<g>
					<circle class="st2" cx="138.2" cy="647.5" r="15.2"/>
					<g>
						<path class="st5" d="M147.1,640.3c0.7,1.4,0.8,3,0.7,4.5c-0.2,2-0.9,4-1.7,5.8c-0.9,2.4-1.8,4.7-2.8,7.1
							c-2.4-0.7-4.9-1.4-7.3-2.1c-1.9-0.5-3.9-1.1-5.7-2.2c-1.3-0.8-2.4-1.9-3.2-3.3s-1-3-0.5-4.4c0.3-1,0.9-1.8,1.6-2.5
							c1.4-1.2,3.2-1.9,5.1-1.5c1.1,0.2,2.1,0.8,2.8,1.6c-0.2-1.1,0-2.2,0.4-3.2c0.8-1.7,2.5-2.8,4.2-3.2c1-0.2,2-0.2,3,0.2
							C145.3,637.7,146.4,638.9,147.1,640.3z"/>
					</g>
				</g>
				<g>
					<circle class="st2" cx="194.4" cy="632.3" r="15.2"/>
					<g>
						<path class="st5" d="M205.6,634.1c-0.6,1.4-1.7,2.6-2.9,3.5c-1.6,1.2-3.6,2-5.5,2.7c-2.4,0.9-4.7,1.8-7.1,2.7
							c-1.1-2.3-2.2-4.5-3.4-6.8c-0.9-1.8-1.8-3.7-2.2-5.7c-0.3-1.5-0.2-3.1,0.3-4.5c0.5-1.4,1.6-2.7,2.9-3.4c0.9-0.4,2-0.5,2.9-0.4
							c1.8,0.2,3.6,1.2,4.5,2.8c0.5,0.9,0.8,2.1,0.7,3.2c0.7-0.9,1.6-1.5,2.7-1.8c1.8-0.5,3.7,0,5.2,1c0.8,0.6,1.5,1.4,1.9,2.3
							C206.4,631,206.3,632.7,205.6,634.1z"/>
					</g>
				</g>
				<g>
					<circle class="st2" cx="190.6" cy="669.1" r="15.2"/>
					<g>
						<path class="st5" d="M201.8,670.9c-0.6,1.4-1.7,2.6-2.9,3.5c-1.6,1.2-3.6,2-5.5,2.7c-2.4,0.9-4.7,1.8-7.1,2.7
							c-1.1-2.3-2.2-4.5-3.4-6.8c-0.9-1.8-1.8-3.7-2.2-5.7c-0.3-1.5-0.2-3.1,0.3-4.5s1.6-2.7,2.9-3.4c0.9-0.4,2-0.5,2.9-0.4
							c1.8,0.2,3.6,1.2,4.5,2.8c0.5,0.9,0.8,2.1,0.7,3.2c0.7-0.9,1.6-1.5,2.7-1.8c1.8-0.5,3.7,0,5.2,1c0.8,0.6,1.5,1.4,1.9,2.3
							C202.5,667.8,202.4,669.5,201.8,670.9z"/>
					</g>
				</g>
			</g>
			<g>
				<g>
					<g>
						<g>
							
								<text id="Follower_BÖRSE_00000139993601305938302590000017767184847165459115_" transform="matrix(1 -3.280015e-03 3.280015e-03 1 66.5448 662.2778)" class="st19"><tspan x="0" y="0" class="st20 st21 st22">We Are</tspan><tspan x="-3.1" y="5.6" class="st20 st23 st24">OPEN</tspan></text>
						</g>
					</g>
				</g>
			</g>
		</g>
	</g>
	<g id="Text_copy" class="st50">
		<text transform="matrix(1 0 0 1 262.4634 651.0701)"><tspan x="0" y="0" class="st4" style="font-family:'TrebuchetMS-Bold'; font-size:115.9842px;">Follower</tspan><tspan x="0" y="94.9" class="st4" style="font-family:'TrebuchetMS-Bold'; font-size:115.9842px;">Börse</tspan></text>
	</g>
</g>
</svg>
