<svg version="1.1" id="Layer_1" xmlns="http://www.w3.org/2000/svg" xmlns:xlink="http://www.w3.org/1999/xlink" x="0px" y="0px" viewBox="0 0 512 192" style="enable-background:new 0 0 512 192;" xml:space="preserve">
	 <title>Ray</title>
<style type="text/css">
	.st0{fill:url(#SVGID_1_);}
	.st1{fill:url(#SVGID_2_);}
	.st2{fill:#FF5500;}
</style>
<g>
	<radialGradient id="SVGID_1_" cx="431.374" cy="143.7958" r="242.8345" gradientUnits="userSpaceOnUse">
		<stop offset="0" style="stop-color:#4F2FA3"></stop>
		<stop offset="0.4537" style="stop-color:#33157F"></stop>
		<stop offset="0.7749" style="stop-color:#1E0063"></stop>
		<stop offset="0.9788" style="stop-color:#271059"></stop>
	</radialGradient>
	<path class="st0" d="M123.9,122.8l37.2,65.9H96.8l-29-54.2h-9.3v54.2H1.4V2.7h76.5c28.7,0,48.6,7.2,61.1,19.7
		c10.9,10.9,16.7,25,16.7,44.4v1.6C155.8,95.2,143,112.5,123.9,122.8z M232.5,1.7l-64.3,187.1H228l34-117.4l34.3,117.4h60.9
		L292.9,1.7H232.5z M449.3,2.7l-25.8,61.1L398.1,2.7h-62.7l59,120.4v65.6h57.4v-66.2L511,2.7H449.3z"></path>
	<linearGradient id="SVGID_2_" gradientUnits="userSpaceOnUse" x1="58.5183" y1="101.1163" x2="451.7476" y2="101.1163">
		<stop offset="1.189721e-03" style="stop-color:#FF3400"></stop>
		<stop offset="5.678343e-02" style="stop-color:#FF4A00"></stop>
		<stop offset="8.036564e-02" style="stop-color:#FF5500"></stop>
		<stop offset="0.3478" style="stop-color:#FF5703"></stop>
		<stop offset="0.5101" style="stop-color:#FF5C0B"></stop>
		<stop offset="0.6444" style="stop-color:#FF6619"></stop>
		<stop offset="0.7633" style="stop-color:#FF732E"></stop>
		<stop offset="0.8712" style="stop-color:#FF8548"></stop>
		<stop offset="0.8895" style="stop-color:#FF884D"></stop>
		<stop offset="1" style="stop-color:#FFD8C4"></stop>
	</linearGradient>
	<path class="st1" d="M77.1,92.3c12.8,0,21-6.9,21-19.9V71c0-13.3-8.2-19.9-20.7-19.9H58.5v41.2H77.1z M268.2,92.4l10.4,35.6
		l60.5,8.1l-8.3-24.2L268.2,92.4 M207.8,73.5L193,116.6l53.8,7.2l10.1-34.9L207.8,73.5 M394.4,131.8l57.4,17.9v1.4l-57.4-7.7V131.8"></path>
	<path class="st2" d="M457,146.7"></path>
	<path class="st2" d="M456.4,155.6"></path>
	<path class="st2" d="M458.1,150.8"></path>
</g>
</svg>
