<svg version="1.1" id="Layer_1" xmlns:x="ns_extend;" xmlns:i="ns_ai;" xmlns:graph="ns_graphs;" xmlns="http://www.w3.org/2000/svg" xmlns:xlink="http://www.w3.org/1999/xlink" x="0px" y="0px" viewBox="0 0 41.5 51" style="enable-background:new 0 0 41.5 51;" xml:space="preserve">
 <style type="text/css">
  .st0{fill:#FFFFFF;}
 </style>
 <metadata>
  <sfw xmlns="ns_sfw;">
   <slices>
   </slices>
   <sliceSourceBounds bottomLeftOrigin="true" height="51" width="41.5" x="166.1" y="-208.1">
   </sliceSourceBounds>
  </sfw>
 </metadata>
 <g>
  <path class="st0" d="M40.2,17.4c-3.4,2.1-5.5,5.7-5.5,9.7c0,4.5,2.7,8.6,6.8,10.3c-0.8,2.6-2,5-3.5,7.2c-2.2,3.1-4.5,6.3-7.9,6.3
		s-4.4-2-8.4-2c-3.9,0-5.3,2.1-8.5,2.1s-5.4-2.9-7.9-6.5C2,39.5,0.1,33.7,0,27.6c0-9.9,6.4-15.2,12.8-15.2c3.4,0,6.2,2.2,8.3,2.2
		c2,0,5.2-2.3,9-2.3C34.1,12.2,37.9,14.1,40.2,17.4z M28.3,8.1C30,6.1,30.9,3.6,31,1c0-0.3,0-0.7-0.1-1c-2.9,0.3-5.6,1.7-7.5,3.9
		c-1.7,1.9-2.7,4.3-2.8,6.9c0,0.3,0,0.6,0.1,0.9c0.2,0,0.5,0.1,0.7,0.1C24.1,11.6,26.6,10.2,28.3,8.1z">
  </path>
 </g>
</svg>