<svg xmlns="http://www.w3.org/2000/svg" xml:space="preserve" id="Layer_1" x="0" y="0" version="1.1" viewBox="-0.03 59.9 512.03 392.1"><style>.st0{fill:#fd4b2d}</style><path d="M279.9 141h17.9v51.2h-17.9zm46.6-2.2h17.9v40h-17.9zM65.3 197.3c-24 0-46 13.2-57.4 34.3h30.4c13.5-11.6 33-15 47.1 0h32.2c-12.6-17.1-31.4-34.3-52.3-34.3" class="st0"/><path d="M108.7 262.4C66.8 350-6.6 275.3 38.3 231.5H7.9C-15.9 273 17 329 65.3 327.8c37.4 0 68.2-55.5 68.2-65.3 0-4.3-6-17.6-16-31H85.4c10.7 9.7 20 23.7 23.3 30.9m1.1-2.6" class="st0"/><path d="M512 140.3v231.3c0 44.3-36.1 80.4-80.4 80.4h-34.1v-78.8h-163V452h-34.1c-44.4 0-80.4-36.1-80.4-80.4v-72.8h258.4v-139H253.6V238H119.9v-97.6c0-3.1.2-6.2.5-9.2.4-3.7 1.1-7.3 2-10.8.3-1.1.6-2.3 1-3.4.1-.3.2-.6.3-.8.2-.6.4-1.1.5-1.7.2-.5.4-1.1.6-1.7s.5-1.2.7-1.8.5-1.2.8-1.8c2-4.7 4.4-9.3 7.3-13.6l.1-.1c.7-1.1 1.5-2.1 2.3-3.2.7-.9 1.3-1.7 2-2.6.8-.9 1.6-1.9 2.4-2.8s1.6-1.8 2.4-2.6l.1-.1c.4-.5.9-.9 1.4-1.4 3-2.9 6.2-5.6 9.6-8 .9-.7 1.9-1.3 2.8-1.9 1.1-.7 2.2-1.4 3.3-2 2.1-1.2 4.2-2.4 6.5-3.4.7-.3 1.4-.7 2.1-1 3.1-1.3 6.2-2.5 9.4-3.4 1.2-.4 2.5-.7 3.7-1 .6-.2 1.2-.3 1.8-.4 3.6-.8 7.2-1.3 10.9-1.6l1.6-.1h.8c1.2-.1 2.4-.1 3.7-.1h231.3c1.2 0 2.5 0 3.7.1h.8l1.6.1c3.7.3 7.3.8 10.9 1.6.6.1 1.2.3 1.8.4 1.3.3 2.5.6 3.7 1 3.2.9 6.3 2.1 9.4 3.4.7.3 1.4.6 2.1 1 2.2 1 4.4 2.2 6.5 3.4 1.1.7 2.2 1.3 3.3 2 1 .6 1.9 1.3 2.8 1.9 3.9 2.8 7.6 6 11 9.4.8.8 1.7 1.7 2.4 2.6.8.9 1.6 1.9 2.4 2.8.7.8 1.3 1.7 2 2.6.8 1.1 1.5 2.1 2.3 3.2l.1.1c2.9 4.3 5.3 8.8 7.3 13.6.2.6.5 1.2.8 1.8.2.6.5 1.2.7 1.8.2.5.4 1.1.6 1.7s.4 1.1.5 1.7c.1.3.2.6.3.8.3 1.1.7 2.3 1 3.4.9 3.6 1.6 7.2 2 10.8 0 3.1.2 6.1.2 9.2" class="st0"/><path d="M498.3 95.5H133.5c14.9-22.2 40-35.6 66.7-35.6h231.3c26.9 0 51.9 13.4 66.8 35.6m13.2 35.6H120.4c1.4-12.8 6-25 13.1-35.6h364.8c7.2 10.6 11.7 22.9 13.2 35.6m.5 9.2v26.4H378.3v-6.9H253.6v6.9H119.9v-26.4c0-3.1.2-6.2.5-9.2h391.1c.3 3.1.5 6.1.5 9.2M119.9 166.7h133.7v35.6H119.9zm258.4 0H512v35.6H378.3zm-258.4 35.6h133.7v35.6H119.9zm258.4 0H512v35.6H378.3z" class="st0"/></svg>
