<svg width="32" height="32" viewBox="0 0 32 32" fill="none" xmlns="http://www.w3.org/2000/svg">
<rect width="32" height="32" rx="6" fill="#191919"/>
<path d="M7.75834 14.4843C11.5228 13.863 14.4739 10.7466 15.0921 6.97597L15.2995 5.1637C15.3509 4.87571 15.1558 4.47458 14.7923 4.50338C11.9479 4.72554 9.2637 5.66562 7.77066 6.27657C7.02928 6.58102 6.54666 7.30099 6.54666 8.10324V14.0152C6.54666 14.3649 6.86088 14.6324 7.2059 14.5768L7.75834 14.4863V14.4843Z" fill="white"/>
<path d="M16.9079 6.9761C17.5281 10.7467 20.4792 13.8632 24.2416 14.4844L24.7941 14.5749C25.1391 14.6325 25.4533 14.3651 25.4533 14.0133V8.10132C25.4533 7.29906 24.9707 6.57909 24.2293 6.27464C22.7342 5.66164 20.0521 4.72362 17.2077 4.50145C16.8421 4.47266 16.6553 4.8779 16.6984 5.16177L16.9058 6.97405L16.9079 6.9761Z" fill="white"/>
<path d="M24.2387 16.1404C19.0942 17.1566 16.7058 20.5816 16.7058 27.0655C16.7058 27.3905 17.0282 27.6168 17.2993 27.4358C19.6652 25.8374 24.8713 21.6657 25.4073 16.4469C25.4278 15.7907 24.6084 16.0993 24.2387 16.1404Z" fill="white"/>
<path d="M7.76024 16.1404C12.9047 17.1566 15.2932 20.5816 15.2932 27.0655C15.2932 27.3905 14.9708 27.6168 14.6997 27.4358C12.3338 25.8374 7.1277 21.6657 6.59169 16.4469C6.57115 15.7907 7.39057 16.0993 7.76024 16.1404Z" fill="white"/>
</svg>
