<svg xmlns="http://www.w3.org/2000/svg" xml:space="preserve" viewBox="0 0 512 512"><linearGradient id="a" x1="-7.464" x2="485.846" y1="259.217" y2="256.579" gradientTransform="matrix(1 0 0 -1 0 514)" gradientUnits="userSpaceOnUse"><stop offset="0" style="stop-color:#3f51b4"/><stop offset="1" style="stop-color:#123156"/></linearGradient><path d="M256.7 128c67.4-1.9 128.3 52.3 128.6 127.9.3 72.7-58.1 128.6-129.3 128.5-70.2-.1-128.5-58.2-128-128.5.4-74.2 61.9-130.2 128.7-127.9m33.3 77.4c0-16.3-9.6-29.3-24.7-33.2-14.8-3.8-30.2 2.8-37.7 16-7.8 13.9-5.6 29.4 6.8 40.6 5.7 5.1 6.7 9.9 4.8 16.9-5.7 21.9-10.9 43.9-16.2 65.9-2 8.4.3 15.4 7.1 20.6 13.3 10.3 34.4 11.4 48.9 2.8 10.7-6.4 13.9-12.9 11.1-25-5.2-22.6-10.7-45.1-16.3-67.5-1.3-5.1-.7-8.4 3.8-11.9 7.9-6.3 13-14.5 12.4-25.2" style="fill:url(#a)"/><linearGradient id="b" x1="-7.511" x2="485.799" y1="250.455" y2="247.817" gradientTransform="matrix(1 0 0 -1 0 514)" gradientUnits="userSpaceOnUse"><stop offset="0" style="stop-color:#3f51b4"/><stop offset="1" style="stop-color:#123156"/></linearGradient><path d="M254.9 447.7C163.1 450.2 76.7 380.2 65 279.1c-7.6-65.8 12.4-122.5 62-167.3 11.8-10.7 26.3-18.7 40.1-27 9.8-5.9 18.6-3 23.9 5.9 5.4 9.3 3.1 17.8-6.7 24.5-9.7 6.7-20.1 12.6-29.1 20.2-32.7 27.4-50.9 62.7-54.9 105.1-3.6 38.7 5 74.9 28.2 106.3C158.8 387.9 200 410 251.3 412c45.7 1.7 85.1-14.5 116.6-46.9 12.8-13.2 21.7-30.3 31.8-46.1 5.4-8.5 12.7-13 20.8-10.9 11.2 3 17.2 12.7 11.9 23.9-7.2 15.2-15.2 30.6-25.6 43.7-33.4 42.1-78 65-131.1 71.7-.8.1-1.5.2-2.3.2-6.2.1-12.4.1-18.5.1" style="fill:url(#b)"/><linearGradient id="c" x1="-7.285" x2="486.025" y1="292.737" y2="290.099" gradientTransform="matrix(1 0 0 -1 0 514)" gradientUnits="userSpaceOnUse"><stop offset="0" style="stop-color:#3f51b4"/><stop offset="1" style="stop-color:#123156"/></linearGradient><path d="M226.6 4.5c4.1 0 8.2.1 12.3 0 7.4-.1 13.2 2 15 10.2 1.7 7.7-1.7 16.9-8.5 19.7-5.3 2.2-11.3 3.2-17.1 4-41.8 5.5-79.6 20.8-112 47.8C71 124 43.4 172 36.9 231.2c-6.4 58.4 8.9 111 43.5 158.1 5.6 7.6 12.4 14.4 18.2 22 6.8 8.8 5.7 17-2.6 24.5-6.9 6.3-16.4 6.1-23.5-1.2-42-43.2-66.3-94.5-71.4-154.9-2.2-26.1-1.2-51.8 4.1-77.4 8.1-39 25.1-73.9 49.8-104.9 39-48.8 89.4-79.6 150.9-91.7 6.7-1.3 13.8-1.1 20.7-1.6z" style="fill:url(#c)"/><linearGradient id="d" x1="-7.857" x2="485.453" y1="185.72" y2="183.082" gradientTransform="matrix(1 0 0 -1 0 514)" gradientUnits="userSpaceOnUse"><stop offset="0" style="stop-color:#3f51b4"/><stop offset="1" style="stop-color:#123156"/></linearGradient><path d="M282.8 507.8c-2.8 0-5.7.2-8.5 0-9.2-.8-15.5-6.5-16.4-14.6-1-8.7 4.4-16.6 13.7-18.8 7.2-1.7 14.7-2.4 22-3.7 68.3-12.6 120-48.6 154.5-109.2C466 330 475.4 295.9 476.3 260c.7-27.3-3.7-54.3-13.8-80.1-1.6-4-2.5-9.2-1.4-13.2 2.1-7.5 7.2-13.1 15.8-13.8 8-.6 14.9 3 17.9 11.8 4.9 14.3 9.7 28.8 12.5 43.7 10 53.6 4.1 105.5-19.3 155-19.1 40.2-46.7 73.6-83.1 99.5-32.4 23-68.1 38.1-107.5 44.1-1.8.3-3.5.8-5.3.9-3.1 0-6.2-.1-9.3-.1" style="fill:url(#d)"/><linearGradient id="e" x1="-6.927" x2="486.383" y1="359.57" y2="356.932" gradientTransform="matrix(1 0 0 -1 0 514)" gradientUnits="userSpaceOnUse"><stop offset="0" style="stop-color:#3f51b4"/><stop offset="1" style="stop-color:#123156"/></linearGradient><path d="M444.5 215.5c0 11.9-5.2 18.6-14.3 20.3-8.8 1.6-16.2-2.9-19.6-12.3-4.5-12.3-8.1-25-13.6-36.8-14.9-32.2-39.1-55.6-70.8-71.3-2.8-1.4-5.6-2.6-8.2-4.2-8.4-5.2-11.6-14.9-7.8-23.4 4-9 12.9-13.8 22.3-9.2 14.5 7 29 14.6 41.8 24.3 34.8 26.3 57.1 61.4 68.5 103.4.9 3.7 1.4 7.5 1.7 9.2" style="fill:url(#e)"/></svg>