<svg xmlns="http://www.w3.org/2000/svg" aria-labelledby="okta-logo" viewBox="0.01 0.01 35.98 36"><title>Okta</title><path d="m19.8.26-.74 9.12c-.35-.04-.7-.06-1.06-.06-.45 0-.89.03-1.32.1L16.26 5c-.01-.14.1-.26.24-.26h.75L16.89.27c-.01-.14.1-.26.23-.26h2.45c.14 0 .25.12.23.26Zm-6.18.45c-.04-.13-.18-.21-.31-.16l-2.3.84c-.13.05-.19.2-.13.32l1.87 4.08-.71.26c-.13.05-.19.2-.13.32l1.91 4.01c.69-.38 1.44-.67 2.23-.85L13.63.71ZM7.98 3.25l5.29 7.46c-.67.44-1.28.96-1.8 1.56L8.3 9.15c-.1-.1-.09-.26.01-.35l.58-.48-3.15-3.19c-.1-.1-.09-.26.02-.35l1.87-1.57c.11-.09.26-.07.34.04ZM3.54 7.57c-.11-.08-.27-.04-.34.08L1.98 9.77c-.07.12-.02.27.1.33l4.06 1.92-.38.65a.23.23 0 0 0 .11.33l4.04 1.85c.29-.75.68-1.45 1.16-2.08zM.55 13.33c.02-.14.16-.22.29-.19l8.85 2.31c-.23.75-.36 1.54-.38 2.36l-4.43-.36a.23.23 0 0 1-.21-.28l.13-.74-4.47-.42c-.14-.01-.23-.14-.21-.28l.42-2.41Zm-.33 5.98c-.14.01-.23.14-.21.28L.44 22c.02.14.16.22.29.19l4.34-1.13.13.74c.02.14.16.22.29.19l4.28-1.18c-.25-.74-.41-1.53-.45-2.34l-9.11.84Zm1.42 6.34a.236.236 0 0 1 .1-.33L10 21.4c.31.74.73 1.43 1.23 2.05l-3.62 2.58c-.11.08-.27.05-.34-.07l-.38-.66-3.69 2.55c-.11.08-.27.04-.34-.08l-1.23-2.12Zm10.01-1.72-6.43 6.51c-.1.1-.09.26.02.35l1.88 1.57c.11.09.26.07.34-.04l2.6-3.66.58.49c.11.09.27.07.35-.05l2.52-3.66c-.68-.42-1.31-.93-1.85-1.51Zm-1.27 10.45a.234.234 0 0 1-.13-.32l3.81-8.32c.7.36 1.46.63 2.25.78l-1.12 4.3c-.03.13-.18.21-.31.16l-.71-.26-1.19 4.33c-.04.13-.18.21-.31.16l-2.3-.84Zm6.56-7.75-.74 9.12c-.01.14.1.26.23.26h2.45c.14 0 .25-.12.23-.26l-.36-4.47h.75c.14 0 .25-.12.24-.26l-.42-4.42c-.43.07-.87.1-1.32.1-.36 0-.71-.02-1.06-.07m8.82-24.69c.06-.13 0-.27-.13-.32l-2.3-.84c-.13-.05-.27.03-.31.16l-1.19 4.33-.71-.26c-.13-.05-.27.03-.31.16l-1.12 4.3c.8.16 1.55.43 2.25.78zm5.02 3.63-6.43 6.51a8.7 8.7 0 0 0-1.85-1.51l2.52-3.66c.08-.11.24-.14.35-.05l.58.49 2.6-3.66c.08-.11.24-.13.34-.04l1.88 1.57c.11.09.11.25.02.35Zm3.48 5.12c.13-.06.17-.21.1-.33l-1.23-2.12a.246.246 0 0 0-.34-.08l-3.69 2.55-.38-.65c-.07-.12-.23-.16-.34-.07l-3.62 2.58c.5.62.91 1.31 1.23 2.05l8.26-3.92Zm1.3 3.32.42 2.41c.02.14-.07.26-.21.28l-9.11.85c-.04-.82-.2-1.6-.45-2.34l4.28-1.18c.13-.04.27.05.29.19l.13.74 4.34-1.13c.13-.03.27.05.29.19Zm-.41 8.85c.13.03.27-.05.29-.19l.42-2.41a.24.24 0 0 0-.21-.28l-4.47-.42.13-.74a.24.24 0 0 0-.21-.28l-4.43-.36c-.02.82-.15 1.61-.38 2.36l8.85 2.31Zm-2.36 5.5c-.07.12-.23.15-.34.08l-7.53-5.2c.48-.63.87-1.33 1.16-2.08l4.04 1.85c.13.06.18.21.11.33l-.38.65 4.06 1.92c.12.06.17.21.1.33zm-10.07-3.07 5.29 7.46c.08.11.24.13.34.04l1.87-1.57c.11-.09.11-.25.02-.35l-3.15-3.19.58-.48c.11-.09.11-.25.01-.35l-3.17-3.12c-.53.6-1.13 1.13-1.8 1.56Zm-.05 10.16c-.13.05-.27-.03-.31-.16l-2.42-8.82c.79-.18 1.54-.47 2.23-.85l1.91 4.01c.06.13 0 .28-.13.32l-.71.26 1.87 4.08c.06.13 0 .27-.13.32l-2.3.84Z" fill="black" fill-rule="evenodd"/></svg>