<svg xmlns="http://www.w3.org/2000/svg" xml:space="preserve" id="Layer_1" x="0" y="0" version="1.1" viewBox="0 0 512 512"><style>.st0{fill-rule:evenodd;clip-rule:evenodd;fill:#101010}.st7{fill:none}</style><path d="m396.433 392.365-16.722-62.407 9.655-2.587 21.25 79.304-262.621-72.014 191.653-192.843 21.237 79.26-9.655 2.587-16.734-62.451-167.267 168.34z" class="st0"/><g transform="matrix(-.1176 -.43887 .43887 -.1176 21.407 236.712)"><linearGradient id="SVGID_1_" x1="-841.451" x2="-837.913" y1="-387.618" y2="-387.618" gradientTransform="matrix(-131.1984 -75.7481 -75.7477 131.1977 -139971.719 -12969.629)" gradientUnits="userSpaceOnUse"><stop offset="0" style="stop-color:#ff8f00"/><stop offset="1" style="stop-color:#fe00ff"/></linearGradient><path d="M-114.8 162.4h-89l-76.3-132.1-76.3 132.1h-89l165.3-286.2z" style="fill-rule:evenodd;clip-rule:evenodd;fill:url(#SVGID_1_)"/></g><g transform="matrix(.43887 .1176 -.1176 .43887 6.068 40.49)"><linearGradient id="SVGID_00000011002782207945317180000006283963174081033372_" x1="230.435" x2="233.973" y1="1334.709" y2="1334.709" gradientTransform="matrix(131.1977 -75.7477 -75.7481 -131.1984 70892.688 192633.25)" gradientUnits="userSpaceOnUse"><stop offset="0" style="stop-color:#ff8f00"/><stop offset="1" style="stop-color:#fe00ff"/></linearGradient><path d="M923.2-9.1h-89l-76.3-132.1L681.6-9.1h-89l165.3-286.2z" style="fill-rule:evenodd;clip-rule:evenodd;fill:url(#SVGID_00000011002782207945317180000006283963174081033372_)"/></g><g transform="scale(-.45434)rotate(-45 -535.796 350.295)"><linearGradient id="SVGID_00000016790098903637759710000015797680102993170069_" x1="1181.227" x2="1184.765" y1="-454.157" y2="-454.157" gradientTransform="matrix(.00006 151.4955 151.4955 .00006 69561.914 -179168.484)" gradientUnits="userSpaceOnUse"><stop offset="0" style="stop-color:#ff8f00"/><stop offset="1" style="stop-color:#fe00ff"/></linearGradient><path d="M256-826h-89L90.7-958.1 14.5-826h-89l165.3-286.2z" style="fill-rule:evenodd;clip-rule:evenodd;fill:url(#SVGID_00000016790098903637759710000015797680102993170069_)"/></g><g transform="matrix(-.43887 -.1176 .1176 -.43887 111.525 228.651)"><linearGradient id="SVGID_00000147192582952929876330000007095644198870153877_" x1="102.344" x2="105.882" y1="-989.506" y2="-989.506" gradientTransform="matrix(131.1977 -75.7477 -75.7481 -131.1984 -88288.703 -122590.633)" gradientUnits="userSpaceOnUse"><stop offset="0" style="stop-color:#ff8f00"/><stop offset="1" style="stop-color:#fe00ff"/></linearGradient><path d="m-439.5-479.9 68.8 183.5h-137.7z" style="fill-rule:evenodd;clip-rule:evenodd;fill:url(#SVGID_00000147192582952929876330000007095644198870153877_)"/></g><g transform="scale(-.45435 .45435)rotate(45 -150.62 -117.638)"><linearGradient id="SVGID_00000089549978495846429710000003092585180124942212_" x1="1132.041" x2="1135.579" y1="797.15" y2="797.15" gradientTransform="matrix(.00006 -151.4955 -151.4955 .00006 121094.805 171677.078)" gradientUnits="userSpaceOnUse"><stop offset="0" style="stop-color:#ff8f00"/><stop offset="1" style="stop-color:#fe00ff"/></linearGradient><path d="M48.7 333.5 117.5 517H-20.1z" style="fill-rule:evenodd;clip-rule:evenodd;fill:url(#SVGID_00000089549978495846429710000003092585180124942212_)"/></g><g transform="scale(-.45435 .45435)rotate(-74.999 69.865 428.81)"><linearGradient id="SVGID_00000016049997037203010980000012160594364936706228_" x1="-891.923" x2="-888.385" y1="727.567" y2="727.567" gradientTransform="matrix(-131.1984 75.7481 75.7477 131.1977 -172238.953 -27509.813)" gradientUnits="userSpaceOnUse"><stop offset="0" style="stop-color:#ff8f00"/><stop offset="1" style="stop-color:#fe00ff"/></linearGradient><path d="m-336.3-649.7 68.8 183.5h-137.7z" style="fill-rule:evenodd;clip-rule:evenodd;fill:url(#SVGID_00000016049997037203010980000012160594364936706228_)"/></g><circle cx="2028.2" cy="1370" r="23.3" class="st0" transform="matrix(.43168 -.14178 .14178 .43168 -714.496 -81.5)"/><circle cx="2031.3" cy="1580" r="23.3" class="st0" transform="matrix(.43168 -.14178 .14178 .43168 -715.443 -65.43)"/><circle cx="2029.7" cy="1719.1" r="23.3" class="st0" transform="matrix(.43168 -.14178 .14178 .43168 -716.352 -54.812)"/><circle cx="1612.5" cy="1474.6" r="23.3" class="st0" transform="matrix(.43168 -.14178 .14178 .43168 -746.864 -75.849)"/><circle cx="2029.9" cy="1231" r="23.3" class="st0" transform="matrix(.43168 -.14178 .14178 .43168 -713.587 -92.117)"/><path d="M365.031 200.51s-7.078-2.013-9.24-5.343c-1.693-2.634-4.83-12.412-5.423-14.27-2.476-7.486 5.31-14.593 5.31-14.593l-29.48 8.475s10.001-3.05 14.252 8.776c.68 1.834 1.878 9.992 2.438 15.069.64 3.615-3.93 8.503-3.93 8.503z" class="st0"/><path d="m399.184 387.58-12.08-45.083" class="st7"/><path d="M407.515 376.54s-5.467-.388-6.941-5.014c-.865-3.226-1.186-4.251-2.1-7.834-.602-1.897-1.235-3.908-1.563-5.837-1.908-8.873 3.108-12.275 3.108-12.275l-22.865 5.427s6.741.58 10.009 9.09c.67 1.796 1.418 4.764 1.8 6.72.8 3.16.862 3.39 1.74 6.49 1.456 5.083-1.729 7.418-1.729 7.418z" class="st0"/><path d="m165.362 324.394 161.416-162.445" class="st7"/><path d="M182.404 327.606s-4.46-3.826 3.72-14.908c4.625-6.26 11.148-12.988 18.275-20.62 12.967-13.927 28.926-29.851 44.82-45.84 13.408-13.512 26.815-27.024 38.959-38.756 10.177-9.765 19.332-18.433 26.846-24.974 1.485-1.303 3.063-2.26 4.285-3.494 7.308-7.309 15.406-4.293 15.406-4.293l-21.431-20.475s1.607 9.16-3.638 15.216c-1.147 1.336-2.155 2.84-3.457 4.3-6.482 7.582-15.11 16.809-24.793 27.018-11.672 12.264-25.09 25.737-38.507 39.21-15.905 15.95-31.681 32.032-45.583 45.1-7.59 7.137-14.316 13.631-20.479 18.37-8.972 6.89-18.817 5.082-18.817 5.082z" class="st0"/><path d="m168.23 335.515 221.012 59.973" class="st7"/><path d="M171.825 349.986s2.619-4.447 16.77-2.189c7.67 1.238 16.779 3.283 26.92 5.67 18.53 4.378 40.276 10.404 62.026 16.265 18.4 4.948 36.413 10.205 52.61 15.002 13.489 4 37.613 10.295 39.297 10.79 11.003 3.143 10.322 7.976 10.322 7.976l5.51-19.462s-3.925 4.838-12.997 1.877c-1.651-.545-25.604-7.256-39.257-10.636-16.416-4.039-34.793-9.075-53.116-14.084-21.77-5.938-43.543-11.71-61.736-17.29-9.944-3.056-19.068-5.51-26.137-8.719-14.226-6.395-10.285-14.86-10.285-14.86z" class="st0"/></svg>
