<svg xmlns="http://www.w3.org/2000/svg" viewBox="0 0 487 96">
  <path
    d="M37.9 15.5L0 80.5h5.4l32.5-55.7v9.3L10.8 80.5h5.4l21.7-37.1v9.2L21.7 80.5h5.4l10.8-18.6v9.3l-5.4 9.3h43.3zm54.3 9.3H127v7.3h-26.5v12.1H124v7.4h-23.5V64h26.9v7.3H92.2V24.8zm88.2 0l-16.3 22.7 17 23.7h-9.7L159 53.5l-12.3 17.7h-9.4l16.9-23.6-16.3-22.8h9.7l11.6 16.8L171 24.8h9.4zm7.5 23.3V48c0-13.1 10.2-24 24.6-24s24.4 10.8 24.4 23.9v.1c0 13.1-10.2 24-24.6 24-14.3 0-24.4-10.8-24.4-23.9zm40.4 0V48c0-9-6.6-16.4-15.9-16.4s-15.8 7.3-15.8 16.3v.1c0 9 6.6 16.4 15.9 16.4s15.8-7.3 15.8-16.3zm18.9 16.3l5-5.8c4.5 3.8 9 6 14.8 6 5.1 0 8.3-2.4 8.3-5.8v-.1c0-3.3-1.9-5.1-10.6-7.1-10-2.4-15.6-5.3-15.6-13.8v-.1c0-8 6.7-13.4 16-13.4 6.8 0 12.3 2.1 17 5.8l-4.4 6.2c-4.2-3.1-8.4-4.8-12.7-4.8-4.8 0-7.6 2.5-7.6 5.5 0 3.6 2.1 5.2 11.2 7.3 9.9 2.4 15 5.9 15 13.6v.1c0 8.7-6.9 13.8-16.7 13.8-7.3.1-14.1-2.4-19.7-7.4zm47.7-16.3V48c0-13.2 10-24 24.1-24 8.7 0 13.9 3 18.4 7.2l-5.3 6c-3.8-3.4-7.8-5.7-13.2-5.7-8.8 0-15.4 7.2-15.4 16.3v.2c0 9.1 6.5 16.4 15.5 16.4 5.8 0 9.4-2.3 13.5-6l5.3 5.3c-4.9 5-10.2 8.2-19 8.2-13.8.1-23.9-10.4-23.9-23.8zm71.8-23.6h7.6L395 71.2h-8.7L381.5 60h-22.2l-4.8 11.2h-8.4l20.6-46.7zm11.8 28.3l-8.1-18.6-8 18.6h16.1zm28.3-28h8.2v39h24.6v7.4h-32.9V24.8zm45.1 0h34.8v7.3h-26.5v12.1h23.5v7.4h-23.5V64H487v7.3h-35.1V24.8z"
    fill="#fff"/>
  <defs/>
</svg>
