<svg xmlns="http://www.w3.org/2000/svg" viewBox="0 0 700 82" fill="#fff"><path d="M80.7 11.2L72 45.6 59.1 11.2H42.9L30 45.6l-8.7-34.4H0l10.2 34.4 10.6 35.6H39l12-35.6 12 35.6h18.2l10.6-35.6L102 11.2z"/><path d="M80.7 11.2H102l-20.8 70H63m99.7-43.7c1.5 3 2.3 6.4 2.3 10.2v33.5h-19.3V51.6c0-2.6-.6-4.6-2-6.1-1.3-1.5-3.2-2.2-5.7-2.2-1.6 0-2.9.3-4.1 1s-2.1 1.6-2.7 2.9c-.6 1.2-1 2.7-1 4.5v29.5H111v-70h18.6v27.5h.6c1.2-3.4 3.2-6 6-7.8 2.8-1.9 6.2-2.8 10.2-2.8 3.8 0 7.1.8 9.9 2.5 2.7 1.6 4.9 3.9 6.4 6.9zm59.7.9c1.1 2.1 1.6 4.3 1.6 6.8v36h-17.5v-7.4h-.4c-1 2-2.3 3.5-3.8 4.8-1.5 1.2-3.2 2.1-5.1 2.6s-4 .8-6.2.8c-3.3 0-6.3-.6-8.8-1.7s-4.5-2.8-6-5c-1.4-2.3-2.2-5.1-2.2-8.6 0-2.9.5-5.3 1.5-7.4 1-2 2.3-3.7 4.1-5 1.7-1.3 3.8-2.3 6.1-3s4.8-1.1 7.5-1.3c2.9-.2 5.3-.5 7-.8 1.8-.3 3.1-.8 3.9-1.4s1.2-1.4 1.2-2.4v-.1c0-1.4-.5-2.4-1.6-3.1-1-.7-2.4-1.1-4-1.1-1.8 0-3.2.4-4.4 1.2s-1.8 2-2 3.6H176c.2-3.2 1.2-6.1 3-8.8s4.4-4.9 7.9-6.5 7.8-2.4 13-2.4c3.7 0 7.1.4 10.1 1.3s5.5 2.1 7.6 3.7c2.1 1.3 3.7 3.2 4.8 5.2zm-17 19.8a27.68 27.68 0 0 1-1.6.6c-.6.2-1.1.4-1.8.5-.6.2-1.3.3-2 .4s-1.4.3-2.2.4c-1.4.2-2.6.6-3.5 1.1s-1.6 1.1-2 1.9c-.4.7-.7 1.6-.7 2.5 0 1.5.5 2.6 1.5 3.3 1 .8 2.3 1.2 3.9 1.2 1.4 0 2.8-.3 4-.9 1.3-.6 2.3-1.4 3.1-2.6.8-1.1 1.2-2.5 1.2-4.1v-4.3zm59.8 8.8c-.4.1-.9.2-1.7.3s-1.4.2-2 .2c-.8 0-1.5-.1-2-.4-.5-.2-.9-.6-1.2-1.1s-.4-1.1-.4-1.8v-22h9.1V28.6h-9.1V16h-19.1v12.6H232v13.7h6.8v23.8c0 3.7.7 6.7 2.2 9.2 1.5 2.4 3.7 4.2 6.7 5.4 3 1.1 6.7 1.6 11 1.4 2.2-.1 4-.4 5.6-.7l3.7-.9-2.8-13.5zM295 30V11.2h62V30h-19.7v51.2h-22.7V30H295z"/><path d="M295 11.2h42.3V30H295zm123.7 26.3c1.5 3 2.3 6.4 2.3 10.2v33.5h-19.3V51.6c0-2.6-.6-4.6-2-6.1-1.3-1.5-3.2-2.2-5.7-2.2-1.6 0-2.9.3-4.1 1s-2.1 1.6-2.7 2.9c-.6 1.2-1 2.7-1 4.5v29.5H367v-70h18.6v27.5h.6c1.2-3.4 3.2-6 6-7.8 2.8-1.9 6.2-2.8 10.2-2.8 3.8 0 7.1.8 9.9 2.5 2.7 1.6 4.9 3.9 6.4 6.9zM448 59.2v.8c0 1.7.4 3.2 1.1 4.5a7.71 7.71 0 0 0 3.1 3.1c1.4.7 3 1.1 4.9 1.1 1.3 0 2.5-.2 3.7-.5 1.1-.4 2.1-.9 2.9-1.6s1.4-1.5 1.7-2.5H483c-.6 3.6-2 6.8-4.3 9.5s-5.3 4.7-9 6.2-8.1 2.2-13 2.2c-5.7 0-10.7-1.1-14.8-3.2s-7.3-5.2-9.5-9.3c-2.2-4-3.3-8.9-3.3-14.5 0-5.4 1.1-10.1 3.4-14.2 2.2-4 5.4-7.2 9.5-9.4s8.9-3.4 14.4-3.4c4.1 0 7.7.6 11 1.8s6.1 3 8.4 5.3 4.1 5.2 5.4 8.5 1.9 7.1 1.9 11.2v4.4H448zm0-10.3h17.2c0-1.5-.4-2.8-1.2-4-.8-1.1-1.8-2-3-2.7-1.3-.6-2.7-1-4.3-1s-3 .3-4.3 1c-1.3.6-2.3 1.5-3.1 2.7-.8 1.1-1.2 2.4-1.3 4zm102-37.7h-1-36v70h36 1c19.3 0 35-15.7 35-35h0c0-19.4-15.7-35-35-35z"/><path d="M513 45.2h36v36h-36zM595.7 20c-1.7-1.7-2.6-3.8-2.6-6.1 0-2.4.9-4.4 2.6-6.1s3.8-2.6 6.3-2.6 4.5.9 6.3 2.6c1.7 1.7 2.6 3.8 2.6 6.1 0 2.4-.9 4.4-2.6 6.1s-3.8 2.6-6.3 2.6c-2.4 0-4.5-.9-6.3-2.6zm92 5.8c0-1.2.3-2.2.9-3s1.9-1.1 3.7-1.1c.7 0 1.5.1 2.4.2s1.7.3 2.4.5L700 8.7c-1.1-.3-2.8-.6-5.2-1-2.3-.4-4.7-.6-7.1-.6-3.9 0-7.3.7-10.2 2.1s-5.1 3.6-6.7 6.5-2.4 6.5-2.4 10.9v1.5h-3-3.8-15.4v-2.3c0-1.2.3-2.2.9-3s1.9-1.1 3.7-1.1c.7 0 1.5.1 2.4.2s1.7.3 2.4.5l2.8-13.7c-1.1-.3-2.8-.6-5.2-1-2.3-.4-4.7-.6-7.1-.6-3.9 0-7.3.7-10.2 2.1s-5.1 3.6-6.7 6.5-2.4 6.5-2.4 10.9v1.5H620V42h6.9v39.2h19.3V42h15.4 3.8 3v39.2h19.3V42h9.8V28.2h-9.8v-2.4zM593 81.2h18V28.1h-18v53.1z"/></svg>
