<?xml version="1.0" encoding="utf-8"?>
<!-- Generator: Adobe Illustrator 16.0.3, SVG Export Plug-In . SVG Version: 6.00 Build 0)  -->
<!DOCTYPE svg PUBLIC "-//W3C//DTD SVG 1.1//EN" "http://www.w3.org/Graphics/SVG/1.1/DTD/svg11.dtd">
<svg version="1.1" xmlns="http://www.w3.org/2000/svg" xmlns:xlink="http://www.w3.org/1999/xlink" x="0px" y="0px"
	 width="176px" height="177px" viewBox="0 0 176 177" enable-background="new 0 0 176 177" xml:space="preserve">
<g>
	<g>
		<path fill="#fff" d="M88,0.5c-48.602,0-88,39.399-88,88c0,48.601,39.398,88,88,88c48.601,0,88-39.399,88-88
			C176,39.899,136.601,0.5,88,0.5z M88,169.108c-44.52,0-80.608-36.09-80.608-80.608C7.392,43.981,43.48,7.892,88,7.892
			c44.519,0,80.608,36.089,80.608,80.608C168.608,133.019,132.519,169.108,88,169.108z M126.254,31.462
			c-1.221-1.033-3.796-0.399-3.796-0.399L70.117,41.451c0,0-2.253,0.057-3.795,1.998c-1.083,1.363-0.999,3.796-0.999,3.796v62.129
			c0,0,0.188,2.209-1.398,3.796c-1.843,1.842-6.479,2.14-10.588,3.196c-6.84,1.76-13.585,4.634-13.585,12.985
			c0,5.86,2.965,13.186,13.186,13.186c12.313,0,18.578-6.789,18.578-15.982c0-5.952,0-7.392,0-7.392l0.2-47.346
			c0,0-0.299-2.608,0.6-3.596c1.264-1.389,3.995-1.598,3.995-1.598l40.354-8.19c0,0,2.452-0.845,3.596,0
			c1.154,0.853,0.999,3.396,0.999,3.396v36.159c0,0,0.219,2.379-0.999,3.596c-2.288,2.289-6.141,2.242-9.988,3.196
			c-7.225,1.792-14.783,4.386-14.783,13.785c0,9.929,9.67,12.785,12.785,12.785c13.62,0,19.378-7.352,19.378-16.182V35.458
			C127.652,35.458,127.622,32.62,126.254,31.462z"/>
	</g>
</g>
</svg>
