<?xml version="1.0" encoding="utf-8"?>
<svg viewBox="0 0 500 500" xmlns="http://www.w3.org/2000/svg" xmlns:xlink="http://www.w3.org/1999/xlink">
  <defs>
    <linearGradient id="gradient-2-0" gradientTransform="matrix(1.630484, 0.681896, -0.385832, 0.922568, 1.187751, 0.103153)" x1="-0.856" y1="0.304" x2="0.144" y2="0.304" xlink:href="#gradient-2"/>
    <linearGradient id="gradient-2">
      <stop offset="0" style="stop-color: rgb(198, 43, 232);"/>
      <stop offset="0.22" style="stop-color: rgb(103, 28, 228);"/>
      <stop offset="1" style="stop-color: rgb(198, 43, 232);"/>
    </linearGradient>
  </defs>
  <rect style="fill: url('#gradient-2-0'); fill-rule: nonzero; stroke-width: 0px; stroke-miterlimit: 4.98; stroke: rgb(0, 0, 0); paint-order: fill; transform-origin: 250px 250px;" width="500" height="500"/>
  <g transform="matrix(0.8879029750823975, 0, 0, 0.8879029750823975, 52.0737762451173, 56.69451904296875)" style="opacity: 1;">
    <path d="M 328.303 188.961 C 328.303 188.961 318.17 203.266 347.76 217.348 C 347.76 217.348 302.636 212.569 290.67 201.233 C 290.67 201.233 212.854 211.423 243.947 286.124 C 243.947 286.124 218.36 267.71 210.518 243.685 C 210.518 243.685 152.216 304.894 191.314 405.117 C 191.314 405.117 148.62 359.498 142.608 314.694 C 142.608 314.694 138.995 321.72 140.515 332.469 C 140.515 332.469 123.333 282.915 127.745 256.742 C 127.745 256.742 117.266 271.261 116.622 279.47 C 116.622 279.47 118.088 261.069 125.336 249.74 C 125.336 249.74 123.225 233.321 130.436 216.127 C 137.63 198.974 135.336 180.594 133.949 177.325 C 133.949 177.325 131.722 184.773 128.532 187.975 C 128.532 187.975 138.732 147.647 134.398 128.305 C 134.398 128.305 125.485 136.922 126.786 158.527 C 126.786 158.527 121.629 139.445 126.723 119.042 C 126.723 119.042 122.162 119.49 121.789 124.142 C 121.789 124.142 116.949 111.085 123.76 96.051 C 123.76 96.051 84.833 69.942 81.028 66.853 C 81.028 66.853 75.417 64.012 68.493 64.63 C 90.415 55.506 119.45 71.392 137.4 83.323 C 147.164 90.108 151.962 94.401 162.608 97.243 C 173.395 100.122 182.999 109.637 182.999 109.637 C 172.215 93.891 168.799 102.591 139.349 81.622 C 97.464 51.998 74.541 59.985 66.511 64.903 C 65.463 65.098 64.397 65.373 63.323 65.762 C 63.323 65.762 79.902 30.643 149.477 53.127 C 149.477 53.127 160.244 42.164 166.903 41.09 C 166.903 41.09 157.622 47.703 155.936 53.17 C 155.936 53.17 169.148 43.598 179.921 43.705 C 179.921 43.705 167.56 49.992 161.35 55.813 C 161.35 55.813 169.556 51.438 181.381 51.582 C 181.381 51.582 174.035 55.135 171.511 56.355 C 170.985 56.609 170.668 56.762 170.668 56.762 C 170.668 56.762 178.105 55.185 182.139 55.101 C 182.139 55.101 202.253 45.441 220.442 47.332 C 220.442 47.332 214.117 47.379 205.347 54.386 C 205.347 54.386 232.76 52.951 251.126 62.02 C 251.126 62.02 235.577 58.969 225.896 59.036 C 225.896 59.036 273.212 60.924 312.72 112.498 C 354.285 166.757 356.018 171.163 389.963 196.683 C 389.963 196.683 348.906 194.896 328.303 188.961 Z" class="cls-1" style="fill: rgb(255, 255, 255); fill-rule: evenodd;"/>
    <path d="M 299.325 169.037 C 299.325 169.037 292.029 181.568 313.73 191.067 C 313.73 191.067 280.601 190.376 271.363 181.746 C 271.363 181.746 210.649 197.114 237.47 256.311 C 237.47 256.311 216.699 243.673 209.508 224.113 C 209.508 224.113 164.263 283.396 200.188 358.838 C 200.188 358.838 163.476 328.412 156.127 291.899 C 156.127 291.899 153.416 298.307 155.279 307.151 C 155.279 307.151 137.679 267.002 140.027 243.601 C 140.027 243.601 131.625 257.518 131.554 264.785 C 131.554 264.785 131.733 248.454 137.485 237.67 C 137.485 237.67 134.624 223.264 140.027 207.166 C 145.431 191.069 142.313 174.483 140.875 171.579 C 140.875 171.579 139.316 178.576 136.638 181.746 C 136.638 181.746 143.429 143.784 138.333 125.823 C 138.333 125.823 130.702 134.405 133.249 154.632 C 133.249 154.632 127.312 136.991 130.707 117.35 C 130.707 117.35 126.513 117.968 126.47 122.433 C 126.47 122.433 121.098 110.097 126.47 95.319 C 126.47 95.319 87.26 70.415 83.256 67.357 C 83.256 67.357 77.435 64.55 70.552 65.282 C 91.536 55.723 120.764 71.278 138.333 82.609 C 147.705 88.926 152.314 92.915 162.058 95.319 C 171.802 97.723 180.699 106.334 180.699 106.334 C 170.441 91.87 167.857 100.193 140.027 80.914 C 98.378 52.251 76.414 60.484 68.707 65.56 C 67.634 65.774 66.548 66.082 65.463 66.51 C 65.463 66.51 79.865 30.545 147.653 52.953 C 147.653 52.953 156.901 42.146 162.905 41.09 C 162.905 41.09 154.816 47.589 153.585 52.953 C 153.585 52.953 165.075 43.543 174.768 43.632 C 174.768 43.632 163.981 49.785 158.669 55.495 C 158.669 55.495 165.859 51.182 176.462 51.258 C 176.462 51.258 170.079 54.74 167.877 55.94 C 167.419 56.191 167.142 56.342 167.142 56.342 C 167.142 56.342 173.722 54.758 177.31 54.647 C 177.31 54.647 194.569 45.267 210.356 47.021 C 210.356 47.021 204.931 47.086 197.646 53.8 C 197.646 53.8 221.018 52.269 236.623 60.579 C 236.623 60.579 223.597 57.887 215.44 58.037 C 215.44 58.037 254.712 59.521 286.615 104.64 C 318.519 149.758 319.557 152.847 343.386 171.579 C 343.386 171.579 314.382 172.661 299.325 169.037 Z" class="cls-2" style="fill-rule: evenodd;"/>
    <path d="M 139.18 66.51 C 139.18 66.51 145.52 60.69 147.653 69.899 C 147.653 69.899 144.627 72.868 142.569 71.594 C 140.512 70.319 139.18 66.51 139.18 66.51 Z" class="cls-1" style="fill: rgb(255, 255, 255); fill-rule: evenodd;"/>
    <g style="" transform="matrix(0.847328, 0, 0, 0.847328, 39.194847, 35.159096)">
      <path d="M184.000,67.000 C184.000,67.000 189.596,53.143 207.000,58.000 C221.245,62.388 222.000,74.000 222.000,74.000 C222.000,74.000 215.773,89.560 204.000,88.000 C192.227,86.440 184.492,76.630 184.000,67.000 Z" class="cls-3" style="fill: rgb(250, 0, 0); fill-rule: evenodd;"/>
      <path d="M200.055,61.063 C207.079,60.796 213.823,64.926 214.031,70.403 C214.243,75.962 207.620,79.457 200.388,78.313 C194.177,77.332 189.733,73.180 189.712,68.967 C189.691,64.801 194.001,61.293 200.055,61.063 Z" class="cls-2" style="fill-rule: evenodd;"/>
      <ellipse cx="196.5" cy="65" rx="4.5" ry="4" class="cls-4" style="fill: rgb(255, 255, 255);"/>
    </g>
  </g>
</svg>
