<?xml version="1.0" standalone="yes"?>
<svg xmlns="http://www.w3.org/2000/svg" width="672" height="612">
<path style="fill:#feffff; stroke:none;" d="M0 0L0 612L672 612L672 0L0 0z"/>
<path style="fill:#f1a803; stroke:none;" d="M325 118L325 119L331 119L325 118z"/>
<path style="fill:#e750e2; stroke:none;" d="M331.667 118.333L332.333 118.667L331.667 118.333z"/>
<path style="fill:#282627; stroke:none;" d="M214 273L213 273C213.211 247.497 221.417 225.667 232 203C244.473 205.857 257.344 185.371 267 178.428C287.549 163.652 312.627 155.179 338 155.179C362.675 155.179 387.547 164.803 407 179.654C415.975 186.506 427.875 205.752 440 203C450.53 225.554 458.79 247.616 459 273C454.059 268.299 451.535 261.792 445.996 257.789C439.1 252.805 421.977 247.528 415.738 256.133C412.185 261.036 412.077 270.145 411.081 276C408.752 289.696 406.042 303.329 403.576 317C401.409 329.009 398.965 340.968 396.919 353C396.014 358.321 393.85 364.084 397.653 368.787C404.234 376.927 421.634 377.017 430 371.995C434.02 369.582 440.471 366.231 443.57 362.772C445.97 360.094 446.055 356.22 448.513 353.609C458.77 342.712 466.6 336.76 469.385 321C470.519 314.584 468.878 308.326 469.553 302C470.914 289.24 474.303 276.979 473.985 264C473.362 238.485 464.566 216.39 455.658 193C453.873 188.313 455.682 183.565 453.197 179C418.303 114.893 323.896 104.38 265 136.309C247.295 145.907 229.913 160.651 219.399 178C216.415 182.924 218.177 187.911 216.165 193C206.899 216.44 198.642 238.384 198.015 264C197.695 277.039 201.339 289.202 202.367 302C203.544 316.665 201.493 329.041 210.789 342C214.459 347.116 220.501 349.581 224.146 354.379C226.085 356.931 226.25 360.322 228.43 362.775C236.008 371.306 248.887 375.729 260 374.91C266.165 374.455 274.492 371.94 275.772 364.996C277.432 355.988 273.738 344.835 271.999 336C268.596 318.705 265.63 301.325 262.389 284C260.908 276.084 261.045 262.732 256.262 256.133C244.158 239.436 219.971 262.868 214 273z"/>
<path style="fill:#e750e2; stroke:none;" d="M340 118L340 119L344 119L340 118z"/>
<path style="fill:#f1a803; stroke:none;" d="M344 118L344 119L348 119L344 118M316 119L316 120L319 120L316 119M355.667 119.333L356.333 119.667L355.667 119.333M310 120L311 121L310 120z"/>
<path style="fill:#e750e2; stroke:none;" d="M311 120L312 121L311 120z"/>
<path style="fill:#f1a803; stroke:none;" d="M361.667 120.333L362.333 120.667L361.667 120.333M304.667 121.333L305.333 121.667L304.667 121.333z"/>
<path style="fill:#e750e2; stroke:none;" d="M366 121L367 122L366 121z"/>
<path style="fill:#f1a803; stroke:none;" d="M367 121L368 122L367 121M300 122L301 123L300 122M371.667 122.333L372.333 122.667L371.667 122.333M296 123L297 124L296 123z"/>
<path style="fill:#e750e2; stroke:none;" d="M297 123L298 124L297 123z"/>
<path style="fill:#0cc6d4; stroke:none;" d="M331 123.424C298.04 127.752 268.351 134.516 243 158.09C233.72 166.72 214.02 182.57 228.04 194.671C229.931 196.302 232.405 198.186 234.985 198.433C239.542 198.87 243.202 192.822 246.004 190.001C253.269 182.687 261.337 176.272 270 170.692C293.43 155.601 323.072 147.429 351 151.428C372.951 154.571 393.403 162.766 411 176.425C417.456 181.436 423.287 187.072 428.91 192.995C431.106 195.308 433.397 198.78 437.015 198.433C443.116 197.848 451.22 189.328 449.417 183C446.603 173.12 434.443 162.765 427 156.289C402.466 134.943 364.121 119.076 331 123.424z"/>
<path style="fill:#f1a803; stroke:none;" d="M375 123L376 124L375 123M292 124L293 125L292 124z"/>
<path style="fill:#e750e2; stroke:none;" d="M293 124L294 125L293 124z"/>
<path style="fill:#f1a803; stroke:none;" d="M379 124L380 125L379 124M289 125L290 126L289 125z"/>
<path style="fill:#e750e2; stroke:none;" d="M290 125L291 126L290 125z"/>
<path style="fill:#f1a803; stroke:none;" d="M382 125L383 126L382 125z"/>
<path style="fill:#e750e2; stroke:none;" d="M287 126L288 127L287 126z"/>
<path style="fill:#f1a803; stroke:none;" d="M385 126L386 127L385 126z"/>
<path style="fill:#e750e2; stroke:none;" d="M284 127L285 128L284 127M387 127L388 128L387 127z"/>
<path style="fill:#f1a803; stroke:none;" d="M281 128L282 129L281 128M390 128L391 129L390 128z"/>
<path style="fill:#e750e2; stroke:none;" d="M279 129L280 130L279 129M392 129L393 130L392 129z"/>
<path style="fill:#f1a803; stroke:none;" d="M276 130L277 131L276 130M395 130L396 131L395 130M274 131L275 132L274 131M397 131L398 132L397 131z"/>
<path style="fill:#e750e2; stroke:none;" d="M272 132L273 133L272 132z"/>
<path style="fill:#f1a803; stroke:none;" d="M399 132L400 133L399 132z"/>
<path style="fill:#e750e2; stroke:none;" d="M270 133L271 134L270 133z"/>
<path style="fill:#f1a803; stroke:none;" d="M401 133L402 134L401 133M268 134L269 135L268 134z"/>
<path style="fill:#e750e2; stroke:none;" d="M403 134L404 135L403 134z"/>
<path style="fill:#f1a803; stroke:none;" d="M266 135L267 136L266 135M405 135L406 136L405 135M264 136L265 137L264 136M407 136L408 137L407 136z"/>
<path style="fill:#e750e2; stroke:none;" d="M261 138L262 139L261 138M410 138L411 139L410 138z"/>
<path style="fill:#f1a803; stroke:none;" d="M259 139L260 140L259 139M412 139L413 140L412 139M256 141L257 142L256 141M415 141L416 142L415 141M418 143L419 144L418 143M252 144L253 145L252 144M249 146L250 147L249 146M422 146L423 147L422 146z"/>
<path style="fill:#e750e2; stroke:none;" d="M248 147L249 148L248 147z"/>
<path style="fill:#f1a803; stroke:none;" d="M245 149L246 150L245 149M426 149L427 150L426 149z"/>
<path style="fill:#e750e2; stroke:none;" d="M244 150L245 151L244 150M427 150L428 151L427 150z"/>
<path style="fill:#f1a803; stroke:none;" d="M432 154L433 155L432 154z"/>
<path style="fill:#e750e2; stroke:none;" d="M334.667 155.333L335.333 155.667L334.667 155.333z"/>
<path style="fill:#f1a803; stroke:none;" d="M336 155L336 156L339 156L336 155z"/>
<path style="fill:#e750e2; stroke:none;" d="M339 155L339 156L342 156L339 155z"/>
<path style="fill:#f1a803; stroke:none;" d="M433 155L434 156L433 155M321.667 156.333L322.333 156.667L321.667 156.333M351.667 156.333L352.333 156.667L351.667 156.333z"/>
<path style="fill:#e750e2; stroke:none;" d="M353 156L354 157L353 156z"/>
<path style="fill:#f1a803; stroke:none;" d="M434 156L435 157L434 156M315.667 157.333L316.333 157.667L315.667 157.333M358 157L359 158L358 157M435 157L436 158L435 157M235 158L236 159L235 158z"/>
<path style="fill:#e750e2; stroke:none;" d="M309 158L310 159L309 158z"/>
<path style="fill:#f1a803; stroke:none;" d="M310 158L311 159L310 158M362 158L363 159L362 158M436 158L437 159L436 158M234 159L235 160L234 159M306 159L307 160L306 159M366 159L367 160L366 159M437 159L438 160L437 159M302 160L303 161L302 160M369 160L370 161L369 160z"/>
<path style="fill:#e750e2; stroke:none;" d="M370 160L371 161L370 160z"/>
<path style="fill:#f1a803; stroke:none;" d="M438 160L439 161L438 160M299 161L300 162L299 161z"/>
<path style="fill:#e750e2; stroke:none;" d="M373 161L374 162L373 161M296 162L297 163L296 162M376 162L377 163L376 162z"/>
<path style="fill:#f1a803; stroke:none;" d="M294 163L295 164L294 163M378 163L379 164L378 163M291 164L292 165L291 164z"/>
<path style="fill:#e750e2; stroke:none;" d="M381 164L382 165L381 164z"/>
<path style="fill:#f1a803; stroke:none;" d="M289 165L290 166L289 165M383 165L384 166L383 165M385 166L386 167L385 166M227 167L228 168L227 167M387 167L388 168L387 167M444 167L445 168L444 167M226 168L227 169L226 168M389 168L390 169L389 168M445 168L446 169L445 168M391 169L392 170L391 169M279 170L280 171L279 170M393 170L394 171L393 170M277 171L278 172L277 171z"/>
<path style="fill:#e750e2; stroke:none;" d="M395 171L396 172L395 171z"/>
<path style="fill:#f1a803; stroke:none;" d="M223 172L224 173L223 172z"/>
<path style="fill:#e750e2; stroke:none;" d="M275 172L276 173L275 172z"/>
<path style="fill:#f1a803; stroke:none;" d="M448 172L449 173L448 172M398 173L399 174L398 173M272 174L273 175L272 174M401 175L402 176L401 175M220 176L221 177L220 176M269 176L270 177L269 176M451 176L452 177L451 176M404 177L405 178L404 177z"/>
<path style="fill:#e750e2; stroke:none;" d="M266 178L267 179L266 178z"/>
<path style="fill:#f1a803; stroke:none;" d="M218 179L219 180L218 179M265 179L266 180L265 179M453 179L454 180L453 179M408 180L409 181L408 180z"/>
<path style="fill:#e750e2; stroke:none;" d="M262 181L263 182L262 181z"/>
<path style="fill:#f1a803; stroke:none;" d="M261 182L262 183L261 182M455.333 183.667L455.667 184.333L455.333 183.667M216 184L217 185L216 184z"/>
<path style="fill:#e750e2; stroke:none;" d="M413 184L414 185L413 184z"/>
<path style="fill:#f1a803; stroke:none;" d="M414 185L415 186L414 185z"/>
<path style="fill:#e750e2; stroke:none;" d="M256 186L257 187L256 186z"/>
<path style="fill:#f1a803; stroke:none;" d="M415 186L416 187L415 186M255 187L256 188L255 187M217 188L218 189L217 188M254 188L255 189L254 188M454 188L455 189L454 188M253 189L254 190L253 189M217 190L218 191L217 190M252 190L253 191L252 190M251 191L252 192L251 191z"/>
<path style="fill:#e750e2; stroke:none;" d="M454 191L455 192L454 191z"/>
<path style="fill:#f1a803; stroke:none;" d="M216 192L217 193L216 192M215 194L216 195L215 194M221 195C202.66 226.428 204.286 258.409 205 293C211.226 288.866 207.541 277.608 208.17 271C209.971 252.071 212.661 233.716 220.012 216C223.367 207.914 229.912 201.493 221 195M450 195C442.616 203.015 449.37 209.35 452.796 218C459.65 235.299 461.56 252.741 463.715 271C464.499 277.65 460.654 288.992 467 293C467.546 266.555 469.238 243.808 460.667 218C458.147 210.414 455.787 200.73 450 195M214 196L215 197L214 196M246 196L247 197L246 196M245 197L246 198L245 197M426 197L427 198L426 197z"/>
<path style="fill:#e750e2; stroke:none;" d="M457 197L458 198L457 197z"/>
<path style="fill:#f1a803; stroke:none;" d="M244 198L245 199L244 198M427 198L428 199L427 198z"/>
<path style="fill:#e750e2; stroke:none;" d="M428 199L429 200L428 199M458 199L459 200L458 199M429 200L430 201L429 200M212 201L213 202L212 201z"/>
<path style="fill:#f1a803; stroke:none;" d="M459 201L460 202L459 201z"/>
<path style="fill:#e750e2; stroke:none;" d="M431 202L432 203L431 202z"/>
<path style="fill:#f1a803; stroke:none;" d="M211 203L212 204L211 203M233 203L234 204L233 203M239 203L240 204L239 203M432 203L433 204L432 203M438 203L439 204L438 203M460 203L461 204L460 203M231 204L232 205L231 204z"/>
<path style="fill:#0cc6d4; stroke:none;" d="M277 204L277 331C277 345.492 271.308 366.682 287 374L279 365L355 365C362.281 365 377.375 367.865 383.606 363.821C390.775 359.167 387 336.583 387 329L387 237C387 229.804 390.325 210.899 384.486 205.742C379.146 201.026 362.811 204 356 204L277 204z"/>
<path style="fill:#f1a803; stroke:none;" d="M440 204L441 205L440 204M210 205L211 206L210 205z"/>
<path style="fill:#e750e2; stroke:none;" d="M461 206L462 207L461 206z"/>
<path style="fill:#f1a803; stroke:none;" d="M229 207L230 208L229 207M442 207L443 208L442 207z"/>
<path style="fill:#e750e2; stroke:none;" d="M209 208L210 209L209 208z"/>
<path style="fill:#f1a803; stroke:none;" d="M462 208L463 209L462 208M228 209L229 210L228 209M443 209L444 210L443 209M208 210L209 211L208 210M227 211L228 212L227 211M444 211L445 212L444 211M463 211L464 212L463 211M207 213L208 214L207 213M226 213L227 214L226 213M445 213L446 214L445 213z"/>
<path style="fill:#e750e2; stroke:none;" d="M464 214L465 215L464 214z"/>
<path style="fill:#f1a803; stroke:none;" d="M225 215L226 216L225 215M446 215L447 216L446 215M206 216L207 217L206 216z"/>
<path style="fill:#0cc6d4; stroke:none;" d="M394 216L394 334C394 343.277 398.335 367.292 389 372L389 373C399.404 371.341 395 345.389 395 337L395 253C395 242.366 398.108 225.789 394 216z"/>
<path style="fill:#e750e2; stroke:none;" d="M224 217L225 218L224 217M447 217L448 218L447 217M465 217L466 218L465 217z"/>
<path style="fill:#f1a803; stroke:none;" d="M205 219L206 220L205 219M223 220L224 221L223 220M448 220L449 221L448 220z"/>
<path style="fill:#e750e2; stroke:none;" d="M466 220L467 221L466 220z"/>
<path style="fill:#f1a803; stroke:none;" d="M204 222L205 223L204 222M222 222L223 223L222 222M449 222L450 223L449 222M467 223L468 224L467 223M221 225L222 226L221 225M450 225L451 226L450 225M203 226L204 227L203 226M468 226L469 227L468 226z"/>
<path style="fill:#e750e2; stroke:none;" d="M468 227L469 228L468 227z"/>
<path style="fill:#f1a803; stroke:none;" d="M220 228L221 229L220 228M451 228L452 229L451 228M202 230L203 231L202 230M469.333 230.667L469.667 231.333L469.333 230.667M219 231L220 232L219 231z"/>
<path style="fill:#e750e2; stroke:none;" d="M452 231L453 232L452 231z"/>
<path style="fill:#f1a803; stroke:none;" d="M452 232L453 233L452 232M201 234L202 235L201 234M218 235L219 236L218 235M453 235L454 236L453 235M470 235L471 236L470 235z"/>
<path style="fill:#e750e2; stroke:none;" d="M470 236L471 237L470 236M217 238L218 239L217 238z"/>
<path style="fill:#f1a803; stroke:none;" d="M200 239L201 240L200 239M217 239L218 240L217 239M454 239L455 240L454 239z"/>
<path style="fill:#e750e2; stroke:none;" d="M200 240L201 241L200 240z"/>
<path style="fill:#f1a803; stroke:none;" d="M471 240L472 241L471 240z"/>
<path style="fill:#e750e2; stroke:none;" d="M471 241L472 242L471 241M216 243L217 244L216 243z"/>
<path style="fill:#f1a803; stroke:none;" d="M216 244L217 245L216 244M455 244L456 245L455 244M199 245L200 246L199 245z"/>
<path style="fill:#e750e2; stroke:none;" d="M199 246L200 247L199 246z"/>
<path style="fill:#f1a803; stroke:none;" d="M472.333 246.667L472.667 247.333L472.333 246.667z"/>
<path style="fill:#e750e2; stroke:none;" d="M215 248L216 249L215 248M472 248L473 249L472 248z"/>
<path style="fill:#f1a803; stroke:none;" d="M215.333 249.667L215.667 250.333L215.333 249.667z"/>
<path style="fill:#e750e2; stroke:none;" d="M456 249L457 250L456 249z"/>
<path style="fill:#f1a803; stroke:none;" d="M456 250L457 251L456 250M242 251L242 252L249 252L242 251M423 251L423 252L429 252L423 251M237 252L238 253L237 252z"/>
<path style="fill:#e750e2; stroke:none;" d="M238 252L239 253L238 252M251 252L252 253L251 252M420 252L421 253L420 252M433 252L434 253L433 252z"/>
<path style="fill:#f1a803; stroke:none;" d="M434 252L435 253L434 252M234 253L235 254L234 253M437 253L438 254L437 253M198 254L198 257L199 257L198 254z"/>
<path style="fill:#e750e2; stroke:none;" d="M214 255L215 256L214 255z"/>
<path style="fill:#f1a803; stroke:none;" d="M229 255L230 256L229 255M442 255L443 256L442 255z"/>
<path style="fill:#e750e2; stroke:none;" d="M457 255L458 256L457 255z"/>
<path style="fill:#f1a803; stroke:none;" d="M473 255L473 258L474 258L473 255M214.333 256.667L214.667 257.333L214.333 256.667z"/>
<path style="fill:#0cc6d4; stroke:none;" d="M426.001 256.729C415.349 257.319 415.891 276.972 414.389 285C410.776 304.317 407.12 323.64 403.75 343C402.791 348.51 398.264 359.6 401.067 364.786C404.139 370.469 413.559 370.226 419 369.96C433.721 369.24 432.766 354.352 434.999 343C438.335 326.045 441.206 308.986 444.389 292C445.692 285.046 449.358 274.997 447.678 268.001C445.671 259.638 433.478 256.315 426.001 256.729z"/>
<path style="fill:#f1a803; stroke:none;" d="M457.333 256.667L457.667 257.333L457.333 256.667z"/>
<path style="fill:#e750e2; stroke:none;" d="M468 256L469 257L468 256M198.333 257.667L198.667 258.333L198.333 257.667M226 257L227 258L226 257z"/>
<path style="fill:#0cc6d4; stroke:none;" d="M238 257.529C232.319 258.833 225 262.621 224.163 269C223.249 275.959 226.345 284.181 227.576 291L236.576 340C237.892 347.3 237.765 359.881 242.564 365.775C246.849 371.039 256.966 370.866 263 369.471C276.666 366.31 269.753 351.833 268.081 342C264.786 322.625 260.913 303.342 257.424 284C256.19 277.157 256.343 264.945 252.062 259.318C249.347 255.75 241.841 256.648 238 257.529z"/>
<path style="fill:#f1a803; stroke:none;" d="M257 257L258 258L257 257M414 257L415 258L414 257z"/>
<path style="fill:#e750e2; stroke:none;" d="M445 257L446 258L445 257M473 258L474 259L473 258z"/>
<path style="fill:#f1a803; stroke:none;" d="M223 259L224 260L223 259M448 259L449 260L448 259M222 260L223 261L222 260M449 260L450 261L449 260M221 261L222 262L221 261M258.333 261.667L258.667 262.333L258.333 261.667M413.333 261.667L413.667 262.333L413.333 261.667M450 261L451 262L450 261z"/>
<path style="fill:#feffff; stroke:none;" d="M330 263.468C296.886 269.728 308.967 319.476 342 313.671C374.341 307.988 362.557 257.313 330 263.468z"/>
<path style="fill:#f1a803; stroke:none;" d="M219 264L220 265L219 264z"/>
<path style="fill:#0cc6d4; stroke:none;" d="M333 264.444C301.761 269.1 307.923 317.239 339 312.699C369.826 308.196 363.752 259.86 333 264.444z"/>
<path style="fill:#f1a803; stroke:none;" d="M452 264L453 265L452 264z"/>
<path style="fill:#e750e2; stroke:none;" d="M213 265L214 266L213 265M458.333 265.667L458.667 266.333L458.333 265.667z"/>
<path style="fill:#f1a803; stroke:none;" d="M213 266L213 271L214 271L213 266M259 267L260 268L259 267M412 267L413 268L412 267M458 267L458 272L459 272L458 267z"/>
<path style="fill:#e750e2; stroke:none;" d="M218 268L219 269L218 268M259 268L260 269L259 268M412 268L413 269L412 268M453 268L454 269L453 268z"/>
<path style="fill:#f1a803; stroke:none;" d="M215 270L216 271L215 270M456 270L457 271L456 270z"/>
<path style="fill:#feffff; stroke:none;" d="M213 271L214 272L213 271z"/>
<path style="fill:#e750e2; stroke:none;" d="M457 271L458 272L457 271M213 272L214 273L213 272z"/>
<path style="fill:#f1a803; stroke:none;" d="M260.333 272.667L260.667 273.333L260.333 272.667M411.333 272.667L411.667 273.333L411.333 272.667z"/>
<path style="fill:#e750e2; stroke:none;" d="M458 272L459 273L458 272z"/>
<path style="fill:#f1a803; stroke:none;" d="M218 274C214.955 280.437 217.939 287.288 219.081 294C221.752 309.706 225.018 325.306 227.75 341C228.898 347.593 228.509 357.594 235 361L224.25 301L218 274M453 274L445.576 313L437 361C443.304 357.692 442.99 348.414 444.081 342C446.865 325.631 450.052 309.303 453.197 293C454.387 286.829 457.52 279.221 453 274z"/>
<path style="fill:#e750e2; stroke:none;" d="M473 274L473 277L474 277L473 274M198.333 275.667L198.667 276.333L198.333 275.667z"/>
<path style="fill:#feffff; stroke:none;" d="M329 276L329 301C333.717 300.37 346.864 294.081 346.079 288.076C345.359 282.578 333.803 276.701 329 276z"/>
<path style="fill:#f1a803; stroke:none;" d="M198 277L198 280L199 280L198 277M473.333 277.667L473.667 278.333L473.333 277.667M261 278L262 279L261 278z"/>
<path style="fill:#0cc6d4; stroke:none;" d="M330 278L330 300L346 288L330 278z"/>
<path style="fill:#f1a803; stroke:none;" d="M410 278L411 279L410 278z"/>
<path style="fill:#e750e2; stroke:none;" d="M261 279L262 280L261 279M410 279L411 280L410 279z"/>
<path style="fill:#f1a803; stroke:none;" d="M262.333 283.667L262.667 284.333L262.333 283.667M409.333 283.667L409.667 284.333L409.333 283.667z"/>
<path style="fill:#e750e2; stroke:none;" d="M472 285L473 286L472 285M199 286L200 287L199 286z"/>
<path style="fill:#f1a803; stroke:none;" d="M472.333 286.667L472.667 287.333L472.333 286.667M199 287L200 288L199 287M263 289L264 290L263 289M408 289L409 290L408 289z"/>
<path style="fill:#e750e2; stroke:none;" d="M263 290L264 291L263 290M408 290L409 291L408 290M471 291L472 292L471 291z"/>
<path style="fill:#f1a803; stroke:none;" d="M200.333 292.667L200.667 293.333L200.333 292.667z"/>
<path style="fill:#e750e2; stroke:none;" d="M213 292C202.189 307.319 204.938 338.862 224 347L213 292M458 292L448 347C462.972 340.017 474.754 302.983 458 292z"/>
<path style="fill:#f1a803; stroke:none;" d="M471.333 292.667L471.667 293.333L471.333 292.667M264.333 294.667L264.667 295.333L264.333 294.667M407.333 294.667L407.667 295.333L407.333 294.667M201.333 297.667L201.667 298.333L201.333 297.667M470 297L471 298L470 297M265 300L266 301L265 300M406 300L407 301L406 300z"/>
<path style="fill:#e750e2; stroke:none;" d="M202 301L203 302L202 301M265 301L266 302L265 301M406 301L407 302L406 301z"/>
<path style="fill:#f1a803; stroke:none;" d="M469 301L470 302L469 301M202 302L202 305L203 305L202 302M469 304L470 305L469 304M266.333 305.667L266.667 306.333L266.333 305.667M405 305L406 306L405 305z"/>
<path style="fill:#e750e2; stroke:none;" d="M469 305L470 306L469 305M405 306L406 307L405 306z"/>
<path style="fill:#f1a803; stroke:none;" d="M267 311L268 312L267 311M404 311L405 312L404 311M268 316L269 317L268 316M403 316L404 317L403 316z"/>
<path style="fill:#e750e2; stroke:none;" d="M268 317L269 318L268 317M403 317L404 318L403 317z"/>
<path style="fill:#f1a803; stroke:none;" d="M469.333 320.667L469.667 321.333L469.333 320.667z"/>
<path style="fill:#e750e2; stroke:none;" d="M202 321L203 322L202 321z"/>
<path style="fill:#f1a803; stroke:none;" d="M269.333 321.667L269.667 322.333L269.333 321.667M402.333 321.667L402.667 322.333L402.333 321.667M202 322L203 323L202 322z"/>
<path style="fill:#e750e2; stroke:none;" d="M203 325L204 326L203 325z"/>
<path style="fill:#f1a803; stroke:none;" d="M468.333 325.667L468.667 326.333L468.333 325.667M203 326L204 327L203 326M270 327L271 328L270 327M401 327L402 328L401 327z"/>
<path style="fill:#e750e2; stroke:none;" d="M270 328L271 329L270 328z"/>
<path style="fill:#f1a803; stroke:none;" d="M204 329L205 330L204 329M467 329L468 330L467 329M205 332L206 333L205 332M271 332L272 333L271 332M400 332L401 333L400 332M466 332L467 333L466 332z"/>
<path style="fill:#e750e2; stroke:none;" d="M271 333L272 334L271 333M400 333L401 334L400 333z"/>
<path style="fill:#f1a803; stroke:none;" d="M206 334L207 335L206 334M465 334L466 335L465 334M207 336L208 337L207 336M464 336L465 337L464 336M399.333 337.667L399.667 338.333L399.333 337.667M208 338L209 339L208 338M272 338L273 339L272 338M463 338L464 339L463 338M210 341L211 342L210 341M461 341L462 342L461 341M273 343L274 344L273 343M398 343L399 344L398 343z"/>
<path style="fill:#e750e2; stroke:none;" d="M273 344L274 345L273 344M398 344L399 345L398 344z"/>
<path style="fill:#f1a803; stroke:none;" d="M274.333 348.667L274.667 349.333L274.333 348.667M397.333 348.667L397.667 349.333L397.333 348.667M219 350L220 351L219 350M452 350L453 351L452 350M222 352L223 353L222 352M449 352L450 353L449 352M224 353L225 354L224 353M447 353L448 354L447 353M275 354L276 355L275 354M396 354L397 355L396 354z"/>
<path style="fill:#e750e2; stroke:none;" d="M275 355L276 356L275 355M396 355L397 356L396 355M225 356L226 357L225 356M446 356L447 357L446 356z"/>
<path style="fill:#f1a803; stroke:none;" d="M225 357L226 358L225 357M446 357L447 358L446 357M395.333 359.667L395.667 360.333L395.333 359.667M226 360L227 361L226 360M445 360L446 361L445 360M443 363L444 364L443 363M231 365L232 366L231 365M276 365L277 366L276 365M395 365L396 366L395 365M440 365L441 366L440 365M233 366L234 367L233 366z"/>
<path style="fill:#e750e2; stroke:none;" d="M234 366L235 367L234 366M436 366L437 367L436 366z"/>
<path style="fill:#f1a803; stroke:none;" d="M437 366L438 367L437 366z"/>
<path style="fill:#e750e2; stroke:none;" d="M275 367L276 368L275 367M396 367L397 368L396 367z"/>
<path style="fill:#f1a803; stroke:none;" d="M237 368L238 369L237 368M434 368L435 369L434 368z"/>
<path style="fill:#e750e2; stroke:none;" d="M238 369L239 370L238 369M433 369L434 370L433 369M239 370L240 371L239 370M432 370L433 371L432 370z"/>
<path style="fill:#f1a803; stroke:none;" d="M240 371L241 372L240 371M271 371L272 372L271 371M400 371L401 372L400 371M431 371L432 372L431 371M242 372L243 373L242 372z"/>
<path style="fill:#e750e2; stroke:none;" d="M269 372L270 373L269 372M402 372L403 373L402 372z"/>
<path style="fill:#f1a803; stroke:none;" d="M429 372L430 373L429 372M244 373L245 374L244 373M267 373L268 374L267 373M404 373L405 374L404 373M427 373L428 374L427 373M247.667 374.333L248.333 374.667L247.667 374.333M263 374L264 375L263 374M408 374L409 375L408 374M423.667 374.333L424.333 374.667L423.667 374.333z"/>
<path style="fill:#0cc6d4; stroke:none;" d="M263 422L263 457C270.171 457 279.304 458.454 285.985 455.347C294.479 451.397 292.315 442.394 285 439C290.39 434.379 292.105 426.096 283.985 422.894C277.963 420.519 269.385 422 263 422z"/>
<path style="fill:#feffff; stroke:none;" d="M266 438C269.331 438 272.671 438.074 276 437.985C277.664 437.941 279.375 437.904 280.985 437.427C296.95 432.699 274.051 416.736 267.028 425.603C264.821 428.389 266 434.643 266 438z"/>
<path style="fill:#0cc6d4; stroke:none;" d="M296 435C304.032 435.183 311.7 430.635 314 442C308.858 442 301.58 440.917 297.434 444.703C293.51 448.286 295.494 454.26 300.044 456.106C305.146 458.177 309.963 456.077 314 453L314 457L317 457C317 450.489 318.689 441.078 315.427 435.189C311.968 428.942 299.663 429.478 296 435M320 431C322.03 438.423 336.25 457.779 325.945 462.934C323.631 464.091 320.504 463.567 318 464L318 465C334.339 471.849 341.256 442.41 346 431C338.675 433.291 335.58 446.351 333 453L323 431L320 431M348 436C355.595 433.473 363.812 431.37 365 442C360.368 442 354.159 441.031 350.148 443.858C345.345 447.243 346.841 454.199 352.019 456.258C356.899 458.197 361.261 455.985 365 453L365 457L368 457C368 450.796 370.178 439.416 366.258 434.228C362.252 428.928 350.095 429.535 348 436M376 431L376 457L379 457C379 451.796 377.832 444.92 379.742 440.005C382.485 432.949 390.972 431.479 395.142 438.044C398.398 443.171 397 451.195 397 457L400 457C400 444.127 397.468 420.258 379 435L379 431L376 431z"/>
<path style="fill:#feffff; stroke:none;" d="M266 440L266 454C271.428 454 280.023 455.613 284.867 452.821C289.331 450.247 289.051 444.616 284.89 441.938C279.802 438.664 271.758 440 266 440M303.019 444.573C294.251 447.202 300.572 456.813 307.985 454.092C318.134 450.366 311.892 441.912 303.019 444.573M365 444C362.678 444 360.314 443.89 357.998 444.094C341.352 445.559 358.617 462.911 364.258 449.9C365.057 448.056 364.953 445.959 365 444z"/>
<path style="fill:#0cc6d4; stroke:none;" d="M281 464L281 479C278.442 477.483 275.988 475.748 273 475.228C252.302 471.622 253.432 504.818 273 500.602C276.183 499.916 278.549 498.007 281 496L281 501L284 501L284 464L281 464M291 464L291 468L295 468L295 464L291 464M435 464L435 501L438 501C438.019 499.354 437.899 497.588 438.318 495.975C442.052 481.588 452.486 499.974 459 501L448.766 485.424L457 475C449.486 476.16 443.214 483.829 438 489L438 464L435 464M191 501C195.989 499.429 195.423 494.587 199.394 492.028C208.147 486.385 219.474 492.253 222 501L226 501L214.424 475L208.12 466.636L202.745 474L191 501M343 466L343 501C350.149 501 359.329 502.474 365.981 499.347C374.133 495.515 371.619 486.546 365 483C381.289 466.801 352.908 466 343 466z"/>
<path style="fill:#feffff; stroke:none;" d="M346 468L346 482C351.039 482 358.289 483.284 362.772 480.543C366.679 478.154 366.685 472.458 362.852 469.988C358.274 467.039 351.173 468 346 468M208 470L200 489L217 489L208 470z"/>
<path style="fill:#0cc6d4; stroke:none;" d="M229 475C229 484.995 226.547 504.803 242.998 500.431C245.527 499.759 247.752 498.283 250 497L250 501L252 501L252 475L249 475C249 480.346 250.407 488.107 247.821 492.956C244.325 499.51 235.233 498.994 232.603 491.995C230.775 487.129 232 480.147 232 475L229 475M292 475L292 501L295 501L295 475L292 475M307.015 475.858C292.088 482.087 302.596 506.305 317.996 499.991C334.106 493.385 323.252 469.083 307.015 475.858M382.004 475.742C366.25 481.845 377.196 506.119 392.996 499.852C408.99 493.508 397.898 469.585 382.004 475.742M411.001 475.742C394.829 481.96 406.096 506.614 421.985 499.772C437.442 493.115 426.885 469.635 411.001 475.742M459 496C461.455 503.007 478.029 503.221 479.458 494.958C481.018 485.929 468.258 488.36 464.662 483.574C461.134 478.878 468.786 476.98 471.995 477.529C474.01 477.874 476.006 478.544 478 479C475.708 472.481 460.756 473.298 460.207 481.015C459.573 489.919 470.26 487.273 474.458 491.699C479.306 496.811 469.026 498.176 466.002 497.624C463.635 497.193 461.377 496.402 459 496z"/>
<path style="fill:#feffff; stroke:none;" d="M268.004 477.587C255.177 480.973 260.587 501.609 273.985 497.486C285.987 493.792 280.273 474.348 268.004 477.587M310.004 477.657C297.61 481.422 303.105 501.127 315.985 497.566C328.231 494.179 322.376 473.898 310.004 477.657M385.004 477.576C372.166 481.129 377.579 501.323 390.985 497.566C403.017 494.195 397.349 474.16 385.004 477.576M413.005 477.746C400.711 482.37 407.194 502.243 419.985 497.397C431.38 493.079 425.258 473.137 413.005 477.746M346 484L346 498C351.372 498 360.085 499.644 364.852 496.821C368.924 494.41 368.611 488.469 364.852 485.938C359.898 482.603 351.66 484 346 484z"/>
</svg>
