<svg xmlns="http://www.w3.org/2000/svg" xmlns:xlink="http://www.w3.org/1999/xlink" preserveAspectRatio="xMidYMid" width="443" height="443" viewBox="0 0 443 443">
  <defs>
    <style>
      .cls-1, .cls-4 {
        fill: #fff;
      }

      .cls-1, .cls-2, .cls-3 {
        fill-rule: evenodd;
      }

      .cls-2 {
        fill: #000;
      }

      .cls-3 {
        fill: #fa0000;
      }
    </style>
  </defs>
  <g>
    <path d="M341.199,181.514 C341.199,181.514 329.240,198.397 364.162,215.016 C364.162,215.016 310.908,209.376 296.786,195.998 C296.786,195.998 204.949,208.024 241.644,296.184 C241.644,296.184 211.447,274.452 202.192,246.099 C202.192,246.099 133.385,318.336 179.528,436.617 C179.528,436.617 129.141,382.779 122.046,329.902 C122.046,329.902 117.782,338.194 119.576,350.880 C119.576,350.880 99.298,292.397 104.504,261.508 C104.504,261.508 92.138,278.643 91.378,288.332 C91.378,288.332 93.107,266.615 101.661,253.245 C101.661,253.245 99.170,233.867 107.680,213.575 C116.171,193.332 113.463,171.640 111.827,167.782 C111.827,167.782 109.198,176.572 105.433,180.351 C105.433,180.351 117.471,132.757 112.356,109.929 C112.356,109.929 101.837,120.099 103.373,145.597 C103.373,145.597 97.287,123.077 103.298,98.997 C103.298,98.997 97.916,99.526 97.476,105.016 C97.476,105.016 91.763,89.607 99.801,71.864 C99.801,71.864 53.861,41.051 49.370,37.405 C49.370,37.405 42.748,34.052 34.576,34.782 C60.449,24.014 94.715,42.762 115.899,56.843 C127.423,64.850 133.085,69.917 145.649,73.271 C158.380,76.669 169.714,87.898 169.714,87.898 C156.987,69.315 152.956,79.582 118.199,54.835 C68.767,19.873 41.714,29.300 32.237,35.104 C31.001,35.334 29.742,35.658 28.475,36.118 C28.475,36.118 48.041,-5.329 130.152,21.206 C130.152,21.206 142.859,8.268 150.718,7.000 C150.718,7.000 139.765,14.805 137.775,21.256 C137.775,21.256 153.368,9.960 166.082,10.086 C166.082,10.086 151.494,17.506 144.164,24.376 C144.164,24.376 153.849,19.212 167.805,19.383 C167.805,19.383 159.135,23.576 156.156,25.016 C155.536,25.315 155.162,25.496 155.162,25.496 C155.162,25.496 163.938,23.635 168.699,23.535 C168.699,23.535 192.437,12.135 213.904,14.367 C213.904,14.367 206.439,14.422 196.089,22.692 C196.089,22.692 228.441,20.998 250.117,31.701 C250.117,31.701 231.766,28.100 220.340,28.180 C220.340,28.180 276.182,30.408 322.808,91.274 C371.863,155.310 373.908,160.510 413.969,190.628 C413.969,190.628 365.515,188.519 341.199,181.514 Z" class="cls-1"/>
    <path d="M307.000,158.000 C307.000,158.000 298.389,172.789 324.000,184.000 C324.000,184.000 284.902,183.184 274.000,173.000 C274.000,173.000 202.346,191.137 234.000,261.000 C234.000,261.000 209.486,246.084 201.000,223.000 C201.000,223.000 147.602,292.965 190.000,382.000 C190.000,382.000 146.674,346.092 138.000,303.000 C138.000,303.000 134.801,310.563 137.000,321.000 C137.000,321.000 116.229,273.617 119.000,246.000 C119.000,246.000 109.084,262.424 109.000,271.000 C109.000,271.000 109.211,251.727 116.000,239.000 C116.000,239.000 112.623,221.998 119.000,203.000 C125.377,184.002 121.697,164.428 120.000,161.000 C120.000,161.000 118.160,169.258 115.000,173.000 C115.000,173.000 123.014,128.197 117.000,107.000 C117.000,107.000 107.994,117.129 111.000,141.000 C111.000,141.000 103.994,120.180 108.000,97.000 C108.000,97.000 103.051,97.730 103.000,103.000 C103.000,103.000 96.660,88.441 103.000,71.000 C103.000,71.000 56.725,41.609 52.000,38.000 C52.000,38.000 45.130,34.687 37.006,35.551 C61.771,24.269 96.266,42.627 117.000,56.000 C128.061,63.455 133.500,68.163 145.000,71.000 C156.500,73.837 167.000,84.000 167.000,84.000 C154.894,66.930 151.844,76.752 119.000,54.000 C69.846,20.172 43.925,29.888 34.829,35.879 C33.563,36.132 32.281,36.495 31.000,37.000 C31.000,37.000 47.998,-5.445 128.000,21.000 C128.000,21.000 138.914,8.246 146.000,7.000 C146.000,7.000 136.453,14.670 135.000,21.000 C135.000,21.000 148.561,9.895 160.000,10.000 C160.000,10.000 147.270,17.262 141.000,24.000 C141.000,24.000 149.486,18.910 162.000,19.000 C162.000,19.000 154.466,23.109 151.868,24.526 C151.327,24.822 151.000,25.000 151.000,25.000 C151.000,25.000 158.766,23.131 163.000,23.000 C163.000,23.000 183.369,11.930 202.000,14.000 C202.000,14.000 195.598,14.076 187.000,22.000 C187.000,22.000 214.584,20.193 233.000,30.000 C233.000,30.000 217.627,26.824 208.000,27.000 C208.000,27.000 254.348,28.752 292.000,82.000 C329.652,135.248 330.877,138.893 359.000,161.000 C359.000,161.000 324.770,162.277 307.000,158.000 Z" class="cls-2"/>
    <path d="M118.000,37.000 C118.000,37.000 125.482,30.131 128.000,41.000 C128.000,41.000 124.428,44.504 122.000,43.000 C119.572,41.496 118.000,37.000 118.000,37.000 Z" class="cls-1"/>
    <g>
      <path d="M184.000,67.000 C184.000,67.000 189.596,53.143 207.000,58.000 C221.245,62.388 222.000,74.000 222.000,74.000 C222.000,74.000 215.773,89.560 204.000,88.000 C192.227,86.440 184.492,76.630 184.000,67.000 Z" class="cls-3"/>
      <path d="M200.055,61.063 C207.079,60.796 213.823,64.926 214.031,70.403 C214.243,75.962 207.620,79.457 200.388,78.313 C194.177,77.332 189.733,73.180 189.712,68.967 C189.691,64.801 194.001,61.293 200.055,61.063 Z" class="cls-2"/>
      <ellipse cx="196.5" cy="65" rx="4.5" ry="4" class="cls-4"/>
    </g>
  </g>
</svg>
